Fraunces9ptExtraSoft-Italic.ufo
<glyph name="exclam" format="2">
  <advance width="637.4"/>
  <unicode hex="0021"/>
  <outline>
    <contour>
      <point x="591.6" y="1473.8" type="curve" smooth="yes"/>
      <point x="497.6" y="1473.8"/>
      <point x="443.59999999999997" y="1421.8"/>
      <point x="422.19999999999993" y="1343.6" type="curve" smooth="yes"/>
      <point x="416.8" y="1323.0"/>
      <point x="410.20000000000005" y="1287.3999999999999"/>
      <point x="406.0" y="1257.4" type="curve" smooth="yes"/>
      <point x="279.0" y="550.4" type="line" smooth="yes"/>
      <point x="272.8" y="496.40000000000003"/>
      <point x="287.0" y="475.2"/>
      <point x="323.8" y="475.2" type="curve" smooth="yes"/>
      <point x="361.2" y="475.2"/>
      <point x="386.8" y="497.0"/>
      <point x="408.6" y="551.6" type="curve" smooth="yes"/>
      <point x="660.4000000000001" y="1257.3999999999999" type="line" smooth="yes"/>
      <point x="673.8" y="1287.3999999999999"/>
      <point x="685.5999999999999" y="1323.0"/>
      <point x="691.0" y="1343.6" type="curve" smooth="yes"/>
      <point x="712.4" y="1421.8000000000002"/>
      <point x="686.2" y="1473.8"/>
    </contour>
    <component base="period" xOffset="18.4"/>
  </outline>
</glyph>
<glyph name="numbersign" format="2">
  <advance width="1321.6"/>
  <unicode hex="0023"/>
  <outline>
    <contour>
      <point x="590.0" y="684.8" type="curve" smooth="yes"/>
      <point x="678.4" y="853.0"/>
      <point x="853.0" y="1163.8"/>
      <point x="930.0" y="1304.1999999999998" type="curve" smooth="yes"/>
      <point x="958.5999999999999" y="1357.0"/>
      <point x="955.4" y="1387.8"/>
      <point x="921.8" y="1397.8" type="curve" smooth="yes"/>
      <point x="887.8000000000001" y="1409.0"/>
      <point x="854.8000000000001" y="1387.6"/>
      <point x="827.4" y="1337.0" type="curve" smooth="yes"/>
      <point x="753.8000000000001" y="1196.6"/>
      <point x="600.6" y="885.0"/>
      <point x="511.40000000000003" y="716.6" type="curve" smooth="yes"/>
      <point x="419.40000000000003" y="542.6"/>
      <point x="227.6" y="230.6"/>
      <point x="148.6" y="83.2" type="curve" smooth="yes"/>
      <point x="124.0" y="36.4"/>
      <point x="127.60000000000001" y="4.6"/>
      <point x="162.0" y="-5.000000000000001" type="curve" smooth="yes"/>
      <point x="197.6" y="-14.0"/>
      <point x="228.6" y="6.999999999999999"/>
      <point x="254.6" y="53.8" type="curve" smooth="yes"/>
      <point x="327.8" y="190.0"/>
      <point x="498.8" y="512.2"/>
    </contour>
    <contour>
      <point x="829.1999999999999" y="889.0" type="curve" smooth="yes"/>
      <point x="965.0" y="889.0"/>
      <point x="1211.6" y="876.8000000000001"/>
      <point x="1325.4" y="874.8000000000001" type="curve" smooth="yes"/>
      <point x="1374.0" y="876.2"/>
      <point x="1407.6" y="896.8"/>
      <point x="1419.3999999999999" y="937.6" type="curve" smooth="yes"/>
      <point x="1428.6" y="975.8"/>
      <point x="1405.6000000000001" y="994.8000000000001"/>
      <point x="1358.8" y="994.8000000000001" type="curve" smooth="yes"/>
      <point x="1243.6" y="992.4000000000001"/>
      <point x="991.2" y="979.6"/>
      <point x="854.4" y="979.6" type="curve" smooth="yes"/>
      <point x="710.0" y="977.6"/>
      <point x="457.20000000000005" y="1002.6"/>
      <point x="336.2" y="1001.5999999999999" type="curve" smooth="yes"/>
      <point x="292.0" y="1001.1999999999999"/>
      <point x="261.0" y="982.0"/>
      <point x="250.2" y="942.0" type="curve" smooth="yes"/>
      <point x="240.6" y="902.6"/>
      <point x="259.2" y="881.0"/>
      <point x="305.8" y="882.0" type="curve" smooth="yes"/>
      <point x="424.2" y="881.0"/>
      <point x="688.6" y="887.0"/>
    </contour>
    <contour>
      <point x="950.1999999999999" y="684.8" type="curve" smooth="yes"/>
      <point x="1039.1999999999998" y="853.0"/>
      <point x="1213.8" y="1163.8"/>
      <point x="1290.8" y="1304.1999999999998" type="curve" smooth="yes"/>
      <point x="1318.8" y="1357.0"/>
      <point x="1316.2" y="1387.8"/>
      <point x="1282.6" y="1397.8" type="curve" smooth="yes"/>
      <point x="1248.0" y="1409.0"/>
      <point x="1216.0" y="1387.6"/>
      <point x="1188.6" y="1337.0" type="curve" smooth="yes"/>
      <point x="1113.8" y="1196.6"/>
      <point x="961.8" y="885.0"/>
      <point x="872.6" y="716.6" type="curve" smooth="yes"/>
      <point x="779.4" y="542.6"/>
      <point x="587.8" y="230.6"/>
      <point x="508.79999999999995" y="83.2" type="curve" smooth="yes"/>
      <point x="484.8" y="36.4"/>
      <point x="488.4" y="4.6"/>
      <point x="522.8" y="-5.000000000000001" type="curve" smooth="yes"/>
      <point x="558.4" y="-14.0"/>
      <point x="589.4" y="6.999999999999999"/>
      <point x="615.4" y="53.8" type="curve" smooth="yes"/>
      <point x="687.4000000000001" y="190.6"/>
      <point x="859.0" y="512.2"/>
    </contour>
    <contour>
      <point x="631.2" y="446.2" type="curve" smooth="yes"/>
      <point x="767.0" y="446.2"/>
      <point x="1013.8" y="434.0"/>
      <point x="1127.4" y="432.0" type="curve" smooth="yes"/>
      <point x="1175.6" y="433.40000000000003"/>
      <point x="1209.6000000000001" y="454.0"/>
      <point x="1222.0" y="494.8" type="curve" smooth="yes"/>
      <point x="1230.6000000000001" y="533.0"/>
      <point x="1207.1999999999998" y="552.0"/>
      <point x="1160.4" y="552.0" type="curve" smooth="yes"/>
      <point x="1045.6" y="549.5999999999999"/>
      <point x="793.1999999999999" y="536.8000000000001"/>
      <point x="656.4" y="536.8000000000001" type="curve" smooth="yes"/>
      <point x="512.6" y="534.8000000000001"/>
      <point x="259.2" y="559.8"/>
      <point x="139.4" y="558.8" type="curve" smooth="yes"/>
      <point x="94.19999999999999" y="558.4"/>
      <point x="62.60000000000001" y="539.2"/>
      <point x="52.2" y="499.2" type="curve" smooth="yes"/>
      <point x="42.6" y="459.79999999999995"/>
      <point x="61.199999999999996" y="438.2"/>
      <point x="107.4" y="439.2" type="curve" smooth="yes"/>
      <point x="226.2" y="438.2"/>
      <point x="490.8" y="444.2"/>
    </contour>
  </outline>
</glyph>
<glyph name="dollar" format="2">
  <advance width="1186.4"/>
  <unicode hex="0024"/>
  <outline>
    <contour>
      <point x="481.20000000000005" y="5.799999999999999" type="curve" smooth="yes"/>
      <point x="761.9478260869565" y="5.799999999999999"/>
      <point x="1002.7174103386708" y="140.10113741492717"/>
      <point x="1031.2" y="366.40000000000003" type="curve" smooth="yes"/>
      <point x="1056.9524805191074" y="512.9046876918376"/>
      <point x="974.6226889136598" y="655.5517870816775"/>
      <point x="726.6" y="770.8" type="curve" smooth="yes"/>
      <point x="513.6" y="866.0"/>
      <point x="452.2" y="958.5999999999999"/>
      <point x="478.0" y="1094.4" type="curve" smooth="yes"/>
      <point x="500.8" y="1228.8"/>
      <point x="645.0" y="1323.2"/>
      <point x="820.0" y="1323.2" type="curve" smooth="yes"/>
      <point x="978.6" y="1323.2"/>
      <point x="1046.0" y="1243.6"/>
      <point x="1018.1999999999999" y="1138.8" type="curve" smooth="yes"/>
      <point x="1000.0" y="1071.8" type="line" smooth="yes"/>
      <point x="983.6" y="1010.4"/>
      <point x="1021.4" y="970.6"/>
      <point x="1084.2" y="970.6" type="curve" smooth="yes"/>
      <point x="1147.8" y="970.5999999999999"/>
      <point x="1201.2" y="1024.6"/>
      <point x="1209.6" y="1104.6" type="curve" smooth="yes"/>
      <point x="1234.8" y="1255.0"/>
      <point x="1108.8000000000002" y="1391.6"/>
      <point x="830.1999999999999" y="1391.6" type="curve" smooth="yes"/>
      <point x="515.8" y="1391.6"/>
      <point x="309.79999999999995" y="1210.4"/>
      <point x="283.4" y="1017.5999999999999" type="curve" smooth="yes"/>
      <point x="254.6" y="853.6"/>
      <point x="316.95917309994957" y="720.0199255682485"/>
      <point x="569.8000000000001" y="608.8" type="curve" smooth="yes"/>
      <point x="771.8" y="519.8"/>
      <point x="845.0" y="418.2"/>
      <point x="821.6" y="295.6" type="curve" smooth="yes"/>
      <point x="798.2" y="166.0"/>
      <point x="672.2" y="79.80000000000001"/>
      <point x="494.0" y="79.80000000000001" type="curve" smooth="yes"/>
      <point x="310.0" y="79.80000000000001"/>
      <point x="237.4" y="160.4"/>
      <point x="266.4" y="266.59999999999997" type="curve" smooth="yes"/>
      <point x="282.6" y="327.2" type="line" smooth="yes"/>
      <point x="300.6" y="394.59999999999997"/>
      <point x="270.0" y="438.4"/>
      <point x="211.79999999999998" y="438.40000000000003" type="curve" smooth="yes"/>
      <point x="142.2" y="438.40000000000003"/>
      <point x="81.6" y="377.2"/>
      <point x="73.2" y="290.4" type="curve" smooth="yes"/>
      <point x="47.4" y="133.6"/>
      <point x="204.8" y="5.799999999999999"/>
    </contour>
    <contour>
      <point x="699.4000000000001" y="733.0" type="line"/>
      <point x="847.8000000000001" y="1287.0"/>
      <point x="914.8000000000001" y="1391.2"/>
      <point x="938.1999999999999" y="1477.3999999999999" type="curve" smooth="yes"/>
      <point x="954.2" y="1538.0"/>
      <point x="931.0" y="1567.2"/>
      <point x="892.4" y="1567.2" type="curve" smooth="yes"/>
      <point x="851.1999999999999" y="1567.2"/>
      <point x="811.8000000000001" y="1536.8"/>
      <point x="796.6" y="1479.6000000000001" type="curve" smooth="yes"/>
      <point x="772.8" y="1392.4"/>
      <point x="782.1999999999999" y="1287.0"/>
      <point x="631.8000000000001" y="733.0" type="curve"/>
    </contour>
    <contour>
      <point x="603.6" y="669.6" type="line"/>
      <point x="460.6" y="137.2"/>
      <point x="397.2" y="34.8"/>
      <point x="373.8" y="-52.0" type="curve" smooth="yes"/>
      <point x="356.0" y="-118.6"/>
      <point x="377.4" y="-149.6"/>
      <point x="418.4" y="-149.6" type="curve" smooth="yes"/>
      <point x="462.0" y="-149.6"/>
      <point x="498.4" y="-118.0"/>
      <point x="515.4" y="-54.800000000000004" type="curve" smooth="yes"/>
      <point x="539.2" y="34.400000000000006"/>
      <point x="527.4" y="138.0"/>
      <point x="671.1999999999999" y="669.6" type="curve"/>
    </contour>
  </outline>
</glyph>
<glyph name="ampersand" format="2">
  <advance width="1383.8000000000002"/>
  <unicode hex="0026"/>
  <outline>
    <contour>
      <point x="838.0" y="1325.8" type="curve" smooth="yes"/>
      <point x="711.9616766467066" y="1325.8"/>
      <point x="602.7056078785542" y="1224.5983992777412"/>
      <point x="566.8000000000001" y="1089.6" type="curve" smooth="yes"/>
      <point x="531.4849809098798" y="957.6389296392714"/>
      <point x="564.8" y="851.8000000000001"/>
      <point x="684.5999999999999" y="805.0" type="curve" smooth="yes"/>
      <point x="782.0" y="764.2"/>
      <point x="823.4" y="717.6"/>
      <point x="882.0" y="604.5999999999999" type="curve" smooth="yes"/>
      <point x="1093.4" y="192.8" type="line" smooth="yes"/>
      <point x="1116.0" y="148.2"/>
      <point x="1139.4" y="129.20000000000002"/>
      <point x="1193.1999999999998" y="119.2" type="curve" smooth="yes"/>
      <point x="1224.8000000000002" y="111.0"/>
      <point x="1245.0" y="94.60000000000001"/>
      <point x="1242.0" y="64.0" type="curve" smooth="yes"/>
      <point x="1238.4" y="23.8"/>
      <point x="1207.0" y="0.6"/>
      <point x="1159.6" y="0.6" type="curve" smooth="yes"/>
      <point x="1033.3999999999999" y="0.6" type="line" smooth="yes"/>
      <point x="970.0000000000001" y="0.6"/>
      <point x="935.2" y="19.8"/>
      <point x="908.6" y="71.0" type="curve" smooth="yes"/>
      <point x="680.0" y="522.0" type="line" smooth="yes"/>
      <point x="629.2470749650013" y="622.1600331763575"/>
      <point x="589.6126160284989" y="679.9403040748755"/>
      <point x="504.20000000000005" y="710.8" type="curve" smooth="yes"/>
      <point x="363.945273201669" y="762.0258145275146"/>
      <point x="315.59999999999997" y="889.5999999999999"/>
      <point x="356.8" y="1039.2" type="curve" smooth="yes"/>
      <point x="416.7417663364014" y="1255.3979468338778"/>
      <point x="626.6" y="1422.8"/>
      <point x="889.6" y="1422.8" type="curve" smooth="yes"/>
      <point x="1119.1999999999998" y="1422.8"/>
      <point x="1235.8881523359437" y="1275.1247717640028"/>
      <point x="1184.2" y="1082.8" type="curve" smooth="yes"/>
      <point x="1131.6000000000001" y="888.6"/>
      <point x="955.8000000000001" y="754.0"/>
      <point x="676.0" y="732.8000000000001" type="curve"/>
      <point x="675.8" y="782.8" type="line"/>
      <point x="827.8000000000001" y="811.4"/>
      <point x="926.6" y="916.4"/>
      <point x="965.5999999999999" y="1070.3999999999999" type="curve" smooth="yes"/>
      <point x="1006.0" y="1230.8"/>
      <point x="950.9999999999999" y="1325.8"/>
    </contour>
    <contour>
      <point x="573.4" y="673.4" type="line"/>
      <point x="419.8" y="652.8"/>
      <point x="300.2" y="524.8"/>
      <point x="263.40000000000003" y="389.6" type="curve" smooth="yes"/>
      <point x="215.40000000000003" y="208.8"/>
      <point x="291.59999999999997" y="104.80000000000001"/>
      <point x="459.6" y="104.80000000000001" type="curve" smooth="yes"/>
      <point x="596.4" y="104.80000000000001"/>
      <point x="728.8" y="170.60000000000002"/>
      <point x="832.1999999999999" y="292.6" type="curve"/>
      <point x="892.0" y="233.40000000000003" type="line"/>
      <point x="744.0" y="73.0"/>
      <point x="579.0" y="-24.6"/>
      <point x="347.4" y="-24.6" type="curve" smooth="yes"/>
      <point x="82.19999999999999" y="-24.6"/>
      <point x="-11.400000000000006" y="144.8"/>
      <point x="33.599999999999994" y="342.59999999999997" type="curve" smooth="yes"/>
      <point x="83.4" y="560.1999999999999"/>
      <point x="297.8" y="723.6"/>
      <point x="590.8" y="738.0" type="curve"/>
    </contour>
    <contour>
      <point x="966.6000000000001" y="363.4" type="line"/>
      <point x="1138.0" y="568.4" type="line" smooth="yes"/>
      <point x="1177.7566170427067" y="613.5872309165112"/>
      <point x="1177.0" y="636.8"/>
      <point x="1143.6000000000001" y="645.5999999999999" type="curve" smooth="yes"/>
      <point x="1088.6" y="658.0" type="line" smooth="yes"/>
      <point x="1064.2511983695686" y="665.3526007133137"/>
      <point x="1051.6" y="683.8049382716049"/>
      <point x="1054.0" y="708.0" type="curve" smooth="yes"/>
      <point x="1056.3999999999999" y="741.1172413793103"/>
      <point x="1081.6" y="767.8000000000001"/>
      <point x="1126.8" y="767.8000000000001" type="curve" smooth="yes"/>
      <point x="1388.6" y="767.8000000000001" type="line" smooth="yes"/>
      <point x="1429.3999999999999" y="767.8000000000001"/>
      <point x="1448.2" y="746.1999999999999"/>
      <point x="1445.2" y="711.8" type="curve" smooth="yes"/>
      <point x="1442.8" y="683.6"/>
      <point x="1420.6" y="658.4"/>
      <point x="1379.2" y="645.6" type="curve" smooth="yes"/>
      <point x="1318.3999999999999" y="633.6"/>
      <point x="1283.6" y="605.6"/>
      <point x="1231.0" y="548.2" type="curve" smooth="yes"/>
      <point x="1011.5999999999999" y="292.8" type="line"/>
    </contour>
  </outline>
</glyph>
<glyph name="quotesingle" format="2">
  <advance width="315.8"/>
  <unicode hex="0027"/>
  <outline>
    <contour>
      <point x="287.4" y="912.0" type="curve" smooth="yes"/>
      <point x="319.8" y="912.0"/>
      <point x="347.2" y="930.2"/>
      <point x="366.0" y="974.6" type="curve" smooth="yes"/>
      <point x="517.8" y="1387.2" type="line" smooth="yes"/>
      <point x="562.8" y="1493.4"/>
      <point x="545.2" y="1552.0"/>
      <point x="464.40000000000003" y="1552.0" type="curve" smooth="yes"/>
      <point x="384.0" y="1552.0"/>
      <point x="333.8" y="1493.8"/>
      <point x="320.2" y="1386.8" type="curve" smooth="yes"/>
      <point x="245.6" y="975.4000000000001" type="line" smooth="yes"/>
      <point x="239.6" y="933.4000000000001"/>
      <point x="258.40000000000003" y="912.0"/>
    </contour>
  </outline>
</glyph>
<glyph name="parenleft" format="2">
  <advance width="729.2"/>
  <unicode hex="0028"/>
  <outline>
    <contour>
      <point x="229.6" y="647.4" type="curve" smooth="yes"/>
      <point x="115.39999999999999" y="221.60000000000002"/>
      <point x="233.2" y="-140.60000000000002"/>
      <point x="429.0" y="-248.8" type="curve" smooth="yes"/>
      <point x="467.59999999999997" y="-266.6"/>
      <point x="500.59999999999997" y="-259.6"/>
      <point x="520.0" y="-231.8" type="curve" smooth="yes"/>
      <point x="535.0" y="-210.8"/>
      <point x="527.1999999999999" y="-186.79999999999998"/>
      <point x="507.4" y="-162.0" type="curve" smooth="yes"/>
      <point x="377.8" y="-12.799999999999997"/>
      <point x="326.8" y="299.59999999999997"/>
      <point x="419.59999999999997" y="647.4" type="curve" smooth="yes"/>
      <point x="505.6" y="968.2"/>
      <point x="703.4" y="1229.6"/>
      <point x="921.8000000000001" y="1384.8" type="curve" smooth="yes"/>
      <point x="955.2" y="1409.6000000000001"/>
      <point x="975.8000000000001" y="1433.0"/>
      <point x="972.0" y="1454.6" type="curve" smooth="yes"/>
      <point x="967.3999999999999" y="1482.3999999999999"/>
      <point x="938.0" y="1489.4"/>
      <point x="889.8000000000001" y="1471.6" type="curve" smooth="yes"/>
      <point x="623.2" y="1356.8"/>
      <point x="336.0" y="1045.6"/>
    </contour>
  </outline>
</glyph>
<glyph name="asterisk" format="2">
  <advance width="1250.0"/>
  <unicode hex="002A"/>
  <outline>
    <contour>
      <point x="769.0" y="985.0" type="line"/>
      <point x="813.1999999999999" y="1148.6"/>
      <point x="942.0" y="1310.2"/>
      <point x="973.1999999999999" y="1427.0" type="curve" smooth="yes"/>
      <point x="991.1999999999999" y="1493.1999999999998"/>
      <point x="958.5999999999999" y="1529.0"/>
      <point x="889.8" y="1529.0" type="curve" smooth="yes"/>
      <point x="815.6" y="1529.0"/>
      <point x="768.4" y="1493.2"/>
      <point x="750.4" y="1427.0" type="curve" smooth="yes"/>
      <point x="719.1999999999999" y="1310.1999999999998"/>
      <point x="763.1999999999999" y="1148.6"/>
      <point x="719.0" y="985.0" type="curve"/>
    </contour>
    <contour>
      <point x="742.0" y="1008.4" type="curve"/>
      <point x="744.8" y="960.4000000000001" type="line"/>
      <point x="913.8" y="1011.4000000000001"/>
      <point x="1085.8" y="979.6"/>
      <point x="1206.6" y="1015.8000000000001" type="curve" smooth="yes"/>
      <point x="1275.0" y="1036.0"/>
      <point x="1310.2" y="1087.1999999999998"/>
      <point x="1305.6000000000001" y="1152.4" type="curve" smooth="yes"/>
      <point x="1302.2" y="1223.2"/>
      <point x="1262.8" y="1247.8"/>
      <point x="1194.8" y="1227.6000000000001" type="curve" smooth="yes"/>
      <point x="1073.3999999999999" y="1191.0"/>
      <point x="911.4" y="1058.4"/>
    </contour>
    <contour>
      <point x="758.0" y="1009.6" type="line"/>
      <point x="615.8" y="1059.6"/>
      <point x="523.8000000000001" y="1191.0"/>
      <point x="422.79999999999995" y="1227.6000000000001" type="curve" smooth="yes"/>
      <point x="365.2" y="1247.8"/>
      <point x="310.40000000000003" y="1219.4"/>
      <point x="271.4" y="1153.6000000000001" type="curve" smooth="yes"/>
      <point x="229.6" y="1083.3999999999999"/>
      <point x="239.8" y="1036.0"/>
      <point x="297.0" y="1015.8000000000001" type="curve" smooth="yes"/>
      <point x="398.2" y="979.5999999999999"/>
      <point x="588.1999999999999" y="1012.5999999999999"/>
      <point x="730.0" y="961.6" type="curve"/>
    </contour>
    <contour>
      <point x="726.8000000000001" y="1000.0" type="line"/>
      <point x="594.8" y="868.0"/>
      <point x="409.8" y="787.6"/>
      <point x="315.2" y="693.0" type="curve" smooth="yes"/>
      <point x="261.6" y="639.0"/>
      <point x="260.6" y="585.8000000000001"/>
      <point x="305.2" y="545.0" type="curve" smooth="yes"/>
      <point x="353.6" y="501.6"/>
      <point x="407.4" y="508.4"/>
      <point x="460.40000000000003" y="561.8" type="curve" smooth="yes"/>
      <point x="554.0" y="656.4"/>
      <point x="627.8" y="838.0"/>
      <point x="758.8000000000001" y="970.6" type="curve"/>
    </contour>
    <contour>
      <point x="718.8000000000001" y="970.0" type="line"/>
      <point x="779.5999999999999" y="837.4"/>
      <point x="756.4" y="656.4"/>
      <point x="799.1999999999999" y="561.8" type="curve" smooth="yes"/>
      <point x="823.8" y="508.4"/>
      <point x="878.2" y="504.2"/>
      <point x="944.8000000000001" y="544.4" type="curve" smooth="yes"/>
      <point x="1016.4000000000001" y="588.4"/>
      <point x="1039.6" y="639.0"/>
      <point x="1015.6" y="693.0" type="curve" smooth="yes"/>
      <point x="971.8" y="787.6"/>
      <point x="828.0" y="867.4"/>
      <point x="766.8" y="999.4" type="curve"/>
    </contour>
  </outline>
</glyph>
<glyph name="plus" format="2">
  <advance width="1154.0"/>
  <unicode hex="002B"/>
  <outline>
    <contour>
      <point x="519.6" y="228.6" type="curve" smooth="yes"/>
      <point x="563.2" y="228.6"/>
      <point x="596.8" y="258.2"/>
      <point x="606.6" y="292.6" type="curve" smooth="yes"/>
      <point x="811.2" y="1058.6" type="line" smooth="yes"/>
      <point x="821.0" y="1093.3999999999999"/>
      <point x="804.0" y="1122.6000000000001"/>
      <point x="759.4" y="1122.6000000000001" type="curve" smooth="yes"/>
      <point x="717.1999999999999" y="1122.6000000000001"/>
      <point x="683.6" y="1093.8"/>
      <point x="673.8000000000001" y="1058.6" type="curve" smooth="yes"/>
      <point x="469.2" y="294.6" type="line" smooth="yes"/>
      <point x="460.0" y="258.79999999999995"/>
      <point x="477.4" y="228.6"/>
    </contour>
    <component base="minus" xOffset="-4.000000000000001"/>
  </outline>
</glyph>
<glyph name="comma" format="2">
  <advance width="540.1999999999999"/>
  <unicode hex="002C"/>
  <outline>
    <contour>
      <point x="183.79999999999998" y="5.4" type="curve" smooth="yes"/>
      <point x="222.2" y="-2.2" type="line" smooth="yes"/>
      <point x="255.6" y="-7.0"/>
      <point x="270.59999999999997" y="-4.800000000000001"/>
      <point x="261.6" y="-46.0" type="curve" smooth="yes"/>
      <point x="250.20000000000002" y="-104.8"/>
      <point x="173.8" y="-193.79999999999998"/>
      <point x="58.199999999999996" y="-240.40000000000003" type="curve" smooth="yes"/>
      <point x="8.599999999999994" y="-260.0"/>
      <point x="-6.600000000000001" y="-280.0"/>
      <point x="-0.6000000000000014" y="-309.0" type="curve" smooth="yes"/>
      <point x="5.599999999999994" y="-334.8"/>
      <point x="36.2" y="-345.0"/>
      <point x="90.80000000000001" y="-324.59999999999997" type="curve" smooth="yes"/>
      <point x="213.0" y="-281.0"/>
      <point x="370.6" y="-150.2"/>
      <point x="404.20000000000005" y="65.8" type="curve"/>
      <point x="424.0" y="190.6"/>
      <point x="375.0" y="267.40000000000003"/>
      <point x="276.6" y="267.40000000000003" type="curve" smooth="yes"/>
      <point x="180.4" y="267.40000000000003"/>
      <point x="106.4" y="198.00000000000003"/>
      <point x="98.0" y="121.80000000000001" type="curve" smooth="yes"/>
      <point x="90.2" y="60.8"/>
      <point x="126.2" y="14.6"/>
    </contour>
  </outline>
</glyph>
<glyph name="hyphen" format="2">
  <advance width="855.0"/>
  <unicode hex="002D"/>
  <outline>
    <contour>
      <point x="721.8000000000001" y="598.8000000000001" type="curve" smooth="yes"/>
      <point x="232.6" y="598.8000000000001" type="line" smooth="yes"/>
      <point x="200.2" y="598.8000000000001"/>
      <point x="184.0" y="589.4"/>
      <point x="167.39999999999998" y="555.0" type="curve" smooth="yes"/>
      <point x="135.6" y="493.59999999999997" type="line" smooth="yes"/>
      <point x="119.0" y="459.4"/>
      <point x="128.4" y="438.8"/>
      <point x="166.8" y="438.8" type="curve" smooth="yes"/>
      <point x="656.0" y="438.8" type="line" smooth="yes"/>
      <point x="688.4" y="438.8"/>
      <point x="705.2" y="448.2"/>
      <point x="721.1999999999999" y="482.59999999999997" type="curve" smooth="yes"/>
      <point x="753.0" y="544.0" type="line" smooth="yes"/>
      <point x="769.6" y="578.2"/>
      <point x="760.1999999999999" y="598.8000000000001"/>
    </contour>
  </outline>
</glyph>
<glyph name="period" format="2">
  <advance width="513.6"/>
  <unicode hex="002E"/>
  <outline>
    <contour>
      <point x="195.39999999999998" y="-14.799999999999999" type="curve" smooth="yes"/>
      <point x="299.0" y="-14.799999999999999"/>
      <point x="376.4" y="49.8"/>
      <point x="384.2" y="127.4" type="curve" smooth="yes"/>
      <point x="392.6" y="201.40000000000003"/>
      <point x="350.20000000000005" y="256.6"/>
      <point x="261.4" y="256.6" type="curve" smooth="yes"/>
      <point x="152.6" y="256.6"/>
      <point x="74.4" y="187.79999999999998"/>
      <point x="66.0" y="108.20000000000002" type="curve" smooth="yes"/>
      <point x="58.2" y="40.2"/>
      <point x="107.39999999999999" y="-14.799999999999999"/>
    </contour>
  </outline>
</glyph>
<glyph name="slash" format="2">
  <advance width="903.0"/>
  <unicode hex="002F"/>
  <outline>
    <contour>
      <point x="553.0" y="594.4" type="curve" smooth="yes"/>
      <point x="677.0" y="822.6"/>
      <point x="945.4" y="1298.6"/>
      <point x="1057.8000000000002" y="1507.6000000000001" type="curve" smooth="yes"/>
      <point x="1085.8" y="1557.4"/>
      <point x="1082.4" y="1605.8"/>
      <point x="1048.0" y="1619.6" type="curve" smooth="yes"/>
      <point x="1005.5999999999999" y="1634.8000000000002"/>
      <point x="965.8" y="1611.6"/>
      <point x="935.6" y="1558.6000000000001" type="curve" smooth="yes"/>
      <point x="811.8000000000001" y="1325.4"/>
      <point x="576.6" y="851.8"/>
      <point x="458.80000000000007" y="632.6" type="curve" smooth="yes"/>
      <point x="340.6" y="412.8"/>
      <point x="66.8" y="-46.79999999999999"/>
      <point x="-58.599999999999994" y="-281.4" type="curve" smooth="yes"/>
      <point x="-89.80000000000001" y="-334.8"/>
      <point x="-84.0" y="-375.0"/>
      <point x="-43.2" y="-391.0" type="curve" smooth="yes"/>
      <point x="-0.599999999999997" y="-407.20000000000005"/>
      <point x="39.00000000000001" y="-385.0"/>
      <point x="70.0" y="-331.59999999999997" type="curve" smooth="yes"/>
      <point x="182.79999999999998" y="-120.4"/>
      <point x="432.4" y="366.2"/>
    </contour>
  </outline>
</glyph>
<glyph name="zero" format="2">
  <advance width="1289.3999999999999"/>
  <unicode hex="0030"/>
  <outline>
    <contour>
      <point x="910.8000000000001" y="1422.8" type="curve" smooth="yes"/>
      <point x="557.8000000000001" y="1422.8"/>
      <point x="261.18810521352447" y="1147.9522065336207"/>
      <point x="144.8" y="701.4" type="curve" smooth="yes"/>
      <point x="26.0" y="244.6"/>
      <point x="158.60000000000002" y="-24.0"/>
      <point x="518.8000000000001" y="-24.0" type="curve" smooth="yes"/>
      <point x="832.4" y="-24.0"/>
      <point x="1141.4" y="226.4"/>
      <point x="1265.8" y="701.6" type="curve" smooth="yes"/>
      <point x="1383.4240050099127" y="1152.0962306099136"/>
      <point x="1248.8" y="1422.8"/>
    </contour>
    <contour>
      <point x="1020.6" y="679.4" type="curve" smooth="yes"/>
      <point x="918.9628881753723" y="288.4515527014894"/>
      <point x="726.6134185303514" y="88.2"/>
      <point x="548.4000000000001" y="88.2" type="curve" smooth="yes"/>
      <point x="332.4352941176471" y="88.2"/>
      <point x="275.413717547318" y="284.8585844436247"/>
      <point x="390.6" y="725.4" type="curve" smooth="yes"/>
      <point x="486.23189333102874" y="1089.7268048101143"/>
      <point x="675.4564102564102" y="1310.6000000000001"/>
      <point x="870.8" y="1310.6000000000001" type="curve" smooth="yes"/>
      <point x="1079.9428571428573" y="1310.6000000000001"/>
      <point x="1132.1291433657304" y="1107.3408261319755"/>
    </contour>
  </outline>
</glyph>
<glyph name="one" format="2">
  <advance width="872.0"/>
  <unicode hex="0031"/>
  <outline>
    <contour>
      <point x="358.6" y="1193.2" type="line" smooth="yes"/>
      <point x="312.0" y="1193.2"/>
      <point x="295.2" y="1218.0"/>
      <point x="306.40000000000003" y="1259.6" type="curve" smooth="yes"/>
      <point x="317.0" y="1297.1999999999998"/>
      <point x="346.59999999999997" y="1325.6000000000001"/>
      <point x="399.2" y="1325.6000000000001" type="curve" smooth="yes"/>
      <point x="542.4" y="1325.6000000000001" type="line" smooth="yes"/>
      <point x="609.979020979021" y="1325.6000000000001"/>
      <point x="646.4221454646956" y="1348.629765706747"/>
      <point x="698.6" y="1391.8" type="curve" smooth="yes"/>
      <point x="729.172940540463" y="1416.3884030887698"/>
      <point x="753.8000000000001" y="1429.4"/>
      <point x="778.4000000000001" y="1429.4" type="curve" smooth="yes"/>
      <point x="820.6" y="1429.4"/>
      <point x="841.1999999999999" y="1406.4"/>
      <point x="827.4" y="1356.6" type="curve" smooth="yes"/>
      <point x="518.8" y="217.0" type="line" smooth="yes"/>
      <point x="503.8453512492002" y="162.71169219839618"/>
      <point x="512.8" y="132.4"/>
      <point x="565.4000000000001" y="125.2" type="curve" smooth="yes"/>
      <point x="681.6" y="111.2" type="line" smooth="yes"/>
      <point x="711.4223800008681" y="105.21719999974088"/>
      <point x="725.8000000000001" y="87.0"/>
      <point x="722.8" y="60.4" type="curve" smooth="yes"/>
      <point x="720.4000000000001" y="21.486274509803923"/>
      <point x="692.0" y="0.0"/>
      <point x="649.6" y="0.0" type="curve" smooth="yes"/>
      <point x="55.2" y="0.0" type="line" smooth="yes"/>
      <point x="11.600000000000001" y="0.0"/>
      <point x="-6.0" y="19.2"/>
      <point x="-3.6" y="53.6" type="curve" smooth="yes"/>
      <point x="-0.5999999999999996" y="85.60000000000001"/>
      <point x="23.6" y="108.2"/>
      <point x="60.400000000000006" y="114.4" type="curve" smooth="yes"/>
      <point x="196.6" y="128.0" type="line" smooth="yes"/>
      <point x="242.60000000000002" y="133.40000000000003"/>
      <point x="275.31868312801964" y="164.22660820055032"/>
      <point x="290.0" y="217.6" type="curve" smooth="yes"/>
      <point x="530.6" y="1099.3999999999999" type="line" smooth="yes"/>
      <point x="550.7275037254416" y="1174.0446306373512"/>
      <point x="537.3446808510638" y="1193.2"/>
      <point x="486.0" y="1193.2" type="curve" smooth="yes"/>
    </contour>
  </outline>
</glyph>
<glyph name="two" format="2">
  <advance width="1187.0"/>
  <unicode hex="0032"/>
  <outline>
    <contour>
      <point x="183.4" y="203.8" type="line"/>
      <point x="541.4000000000001" y="402.2" type="line" smooth="yes"/>
      <point x="992.8" y="656.2"/>
      <point x="1162.8000000000002" y="809.8000000000001"/>
      <point x="1213.6" y="1002.0" type="curve" smooth="yes"/>
      <point x="1278.2" y="1243.8"/>
      <point x="1177.0" y="1426.8"/>
      <point x="876.0" y="1426.8" type="curve" smooth="yes"/>
      <point x="559.6" y="1426.8"/>
      <point x="347.6" y="1244.0"/>
      <point x="297.8" y="1058.8000000000002" type="curve" smooth="yes"/>
      <point x="271.4" y="961.4"/>
      <point x="304.0" y="907.8000000000001"/>
      <point x="377.40000000000003" y="907.8000000000001" type="curve"/>
      <point x="449.8" y="907.8000000000001"/>
      <point x="508.20000000000005" y="953.2"/>
      <point x="530.4" y="1034.8" type="curve" smooth="yes"/>
      <point x="551.6" y="1114.3999999999999" type="line" smooth="yes"/>
      <point x="581.4" y="1228.3999999999999"/>
      <point x="680.8000000000001" y="1334.0"/>
      <point x="832.6" y="1334.0" type="curve" smooth="yes"/>
      <point x="978.4000000000001" y="1334.0"/>
      <point x="1026.4" y="1208.6"/>
      <point x="974.2" y="1016.8" type="curve" smooth="yes"/>
      <point x="916.0" y="800.4"/>
      <point x="760.4" y="641.8000000000001"/>
      <point x="411.2" y="430.6" type="curve" smooth="yes"/>
      <point x="161.4" y="271.2" type="line"/>
    </contour>
    <contour>
      <point x="12.4" y="106.60000000000001" type="curve" smooth="yes"/>
      <point x="-10.800000000000002" y="19.4"/>
      <point x="24.0" y="-28.0"/>
      <point x="85.0" y="-28.0" type="curve" smooth="yes"/>
      <point x="160.4" y="-28.0"/>
      <point x="211.8" y="10.6"/>
      <point x="247.6" y="106.80000000000001" type="curve" smooth="yes"/>
      <point x="272.2" y="173.6"/>
      <point x="302.79999999999995" y="214.8"/>
      <point x="350.4" y="214.8" type="curve" smooth="yes"/>
      <point x="398.8" y="214.8"/>
      <point x="424.0" y="190.0"/>
      <point x="464.6" y="135.20000000000002" type="curve" smooth="yes"/>
      <point x="514.8" y="20.4"/>
      <point x="586.4" y="-27.4"/>
      <point x="719.4" y="-27.4" type="curve" smooth="yes"/>
      <point x="872.6" y="-27.4"/>
      <point x="987.0" y="66.6"/>
      <point x="1071.4" y="283.40000000000003" type="curve" smooth="yes"/>
      <point x="1093.2" y="341.6"/>
      <point x="1082.1999999999998" y="366.6"/>
      <point x="1048.4" y="370.4" type="curve" smooth="yes"/>
      <point x="1024.6" y="373.40000000000003"/>
      <point x="998.2" y="359.59999999999997"/>
      <point x="978.5999999999999" y="324.4" type="curve" smooth="yes"/>
      <point x="925.6" y="226.8"/>
      <point x="868.6" y="182.0"/>
      <point x="781.0" y="182.0" type="curve" smooth="yes"/>
      <point x="645.2" y="182.0"/>
      <point x="510.20000000000005" y="318.4"/>
      <point x="336.79999999999995" y="318.4" type="curve" smooth="yes"/>
      <point x="163.6" y="318.4"/>
      <point x="43.8" y="222.8"/>
    </contour>
  </outline>
</glyph>
<glyph name="three" format="2">
  <advance width="1069.6"/>
  <unicode hex="0033"/>
  <outline>
    <contour>
      <point x="550.6" y="728.8" type="line"/>
      <point x="1161.8" y="1234.8" type="line" smooth="yes"/>
      <point x="1217.6000000000001" y="1277.6000000000001"/>
      <point x="1250.2" y="1304.6"/>
      <point x="1259.2" y="1338.0" type="curve" smooth="yes"/>
      <point x="1269.6" y="1374.2"/>
      <point x="1250.2" y="1400.0"/>
      <point x="1208.6000000000001" y="1400.0" type="curve" smooth="yes"/>
      <point x="491.79999999999995" y="1400.0" type="line" smooth="yes"/>
      <point x="429.40000000000003" y="1400.0"/>
      <point x="389.4" y="1368.8"/>
      <point x="368.20000000000005" y="1315.4" type="curve" smooth="yes"/>
      <point x="274.2" y="1071.1999999999998" type="line" smooth="yes"/>
      <point x="253.79999999999998" y="1019.1999999999999"/>
      <point x="273.8" y="997.2"/>
      <point x="309.0" y="996.6000000000001" type="curve" smooth="yes"/>
      <point x="344.0" y="996.0"/>
      <point x="369.40000000000003" y="1018.4"/>
      <point x="387.0" y="1053.1999999999998" type="curve" smooth="yes"/>
      <point x="434.59999999999997" y="1142.8" type="line" smooth="yes"/>
      <point x="461.2" y="1193.2"/>
      <point x="489.4" y="1215.6"/>
      <point x="542.4" y="1215.6" type="curve" smooth="yes"/>
      <point x="1079.6" y="1215.6" type="line"/>
      <point x="1096.4" y="1305.3999999999999" type="line"/>
      <point x="492.0" y="806.8" type="line" smooth="yes"/>
      <point x="453.4" y="776.4"/>
      <point x="427.59999999999997" y="749.8"/>
      <point x="418.40000000000003" y="717.1999999999999" type="curve" smooth="yes"/>
      <point x="407.0" y="677.6"/>
      <point x="429.0" y="656.4"/>
      <point x="468.0" y="656.4" type="curve" smooth="yes"/>
      <point x="536.1999999999999" y="656.4" type="line" smooth="yes"/>
      <point x="746.8" y="656.4"/>
      <point x="811.0" y="561.8"/>
      <point x="755.6" y="360.6" type="curve" smooth="yes"/>
      <point x="703.5999999999999" y="171.2"/>
      <point x="565.6" y="69.0"/>
      <point x="419.40000000000003" y="69.0" type="curve" smooth="yes"/>
      <point x="281.6" y="69.0"/>
      <point x="221.0" y="129.60000000000002"/>
      <point x="248.20000000000002" y="230.8" type="curve" smooth="yes"/>
      <point x="270.8" y="311.0" type="line" smooth="yes"/>
      <point x="291.80000000000007" y="387.6"/>
      <point x="267.40000000000003" y="434.6"/>
      <point x="191.0" y="434.6" type="curve" smooth="yes"/>
      <point x="119.19999999999999" y="434.6"/>
      <point x="51.0" y="377.2"/>
      <point x="26.0" y="286.40000000000003" type="curve" smooth="yes"/>
      <point x="-21.400000000000006" y="115.0"/>
      <point x="95.0" y="-28.0"/>
      <point x="381.6" y="-28.0" type="curve" smooth="yes"/>
      <point x="680.6" y="-28.0"/>
      <point x="921.6" y="144.0"/>
      <point x="991.6" y="399.4" type="curve" smooth="yes"/>
      <point x="1054.2" y="624.4000000000001"/>
      <point x="937.4" y="778.6"/>
      <point x="658.4" y="778.6" type="curve" smooth="yes"/>
      <point x="626.0" y="778.6"/>
      <point x="575.2" y="774.2"/>
      <point x="550.8000000000001" y="766.6" type="curve"/>
    </contour>
  </outline>
</glyph>
<glyph name="four" format="2">
  <advance width="1138.4"/>
  <unicode hex="0034"/>
  <outline>
    <contour>
      <point x="707.8000000000001" y="713.8" type="curve" smooth="yes"/>
      <point x="572.6" y="217.6" type="line" smooth="yes"/>
      <point x="558.1999999999999" y="165.6"/>
      <point x="525.8" y="138.40000000000003"/>
      <point x="478.8" y="130.4" type="curve" smooth="yes"/>
      <point x="393.4" y="114.4" type="line" smooth="yes"/>
      <point x="354.8" y="105.8"/>
      <point x="328.4" y="86.0"/>
      <point x="319.4" y="55.2" type="curve" smooth="yes"/>
      <point x="309.79999999999995" y="20.0"/>
      <point x="326.2" y="0.0"/>
      <point x="370.6" y="0.0" type="curve" smooth="yes"/>
      <point x="864.6" y="0.0" type="line" smooth="yes"/>
      <point x="909.4000000000001" y="0.0"/>
      <point x="936.6" y="20.400000000000002"/>
      <point x="946.2" y="55.2" type="curve" smooth="yes"/>
      <point x="955.2" y="85.60000000000001"/>
      <point x="938.4" y="102.6"/>
      <point x="905.8000000000001" y="114.0" type="curve" smooth="yes"/>
      <point x="837.6" y="130.39999999999998" type="line" smooth="yes"/>
      <point x="795.8000000000001" y="139.6"/>
      <point x="777.0" y="165.6"/>
      <point x="791.4" y="217.6" type="curve" smooth="yes"/>
      <point x="969.6" y="868.6" type="line" smooth="yes"/>
      <point x="978.4" y="900.4"/>
      <point x="967.2" y="914.8"/>
      <point x="946.5999999999999" y="914.8" type="curve" smooth="yes"/>
      <point x="927.4" y="914.8"/>
      <point x="910.8000000000001" y="908.0"/>
      <point x="881.6" y="885.8000000000001" type="curve" smooth="yes"/>
      <point x="761.4" y="795.8" type="line" smooth="yes"/>
      <point x="738.2" y="777.0"/>
      <point x="718.6" y="752.1999999999999"/>
    </contour>
    <contour>
      <point x="645.5999999999999" y="1004.8" type="curve" smooth="yes"/>
      <point x="81.19999999999999" y="516.6" type="line" smooth="yes"/>
      <point x="33.2" y="479.40000000000003"/>
      <point x="14.600000000000001" y="452.59999999999997"/>
      <point x="7.1999999999999975" y="426.8" type="curve" smooth="yes"/>
      <point x="-4.400000000000002" y="385.4"/>
      <point x="14.0" y="358.20000000000005"/>
      <point x="61.599999999999994" y="358.20000000000005" type="curve" smooth="yes"/>
      <point x="988.0" y="357.6" type="line" smooth="yes"/>
      <point x="1032.8" y="357.6"/>
      <point x="1057.8" y="376.79999999999995"/>
      <point x="1068.8" y="415.79999999999995" type="curve" smooth="yes"/>
      <point x="1078.6000000000001" y="453.2"/>
      <point x="1058.2" y="469.2"/>
      <point x="1020.5999999999999" y="469.2" type="curve" smooth="yes"/>
      <point x="112.4" y="469.2" type="line"/>
      <point x="117.4" y="423.8" type="line"/>
      <point x="836.0" y="1027.2" type="line" smooth="yes"/>
      <point x="979.6" y="1140.3999999999999"/>
      <point x="1032.2" y="1210.8"/>
      <point x="1055.2" y="1293.6000000000001" type="curve" smooth="yes"/>
      <point x="1081.6000000000001" y="1387.4"/>
      <point x="1032.6" y="1441.0"/>
      <point x="944.0" y="1441.0" type="curve" smooth="yes"/>
      <point x="836.6" y="1441.0"/>
      <point x="763.4000000000001" y="1382.0"/>
      <point x="741.8000000000001" y="1304.6000000000001" type="curve" smooth="yes"/>
      <point x="720.8000000000001" y="1228.3999999999999"/>
      <point x="774.2" y="1200.6"/>
      <point x="755.1999999999999" y="1132.0" type="curve" smooth="yes"/>
      <point x="743.6" y="1089.3999999999999"/>
      <point x="703.8000000000001" y="1049.6"/>
    </contour>
  </outline>
</glyph>
<glyph name="five" format="2">
  <advance width="1110.4"/>
  <unicode hex="0035"/>
  <outline>
    <contour>
      <point x="55.0" y="284.59999999999997" type="curve" smooth="yes"/>
      <point x="7.3999999999999915" y="113.2"/>
      <point x="128.2" y="-28.0"/>
      <point x="403.79999999999995" y="-28.0" type="curve" smooth="yes"/>
      <point x="704.0" y="-28.0"/>
      <point x="947.6" y="144.8"/>
      <point x="1025.2" y="424.2" type="curve" smooth="yes"/>
      <point x="1094.6" y="675.8"/>
      <point x="974.0" y="849.8"/>
      <point x="709.8000000000001" y="849.8" type="curve" smooth="yes"/>
      <point x="559.8000000000001" y="849.8"/>
      <point x="426.4" y="796.4"/>
      <point x="302.59999999999997" y="689.2" type="curve"/>
      <point x="341.6" y="677.8" type="line"/>
      <point x="518.2" y="1324.4" type="line"/>
      <point x="436.4" y="1244.4" type="line"/>
      <point x="525.2" y="1168.2"/>
      <point x="659.4" y="1119.2"/>
      <point x="819.0" y="1119.2" type="curve" smooth="yes"/>
      <point x="1019.6" y="1119.2"/>
      <point x="1186.0" y="1203.8"/>
      <point x="1269.6" y="1365.8" type="curve" smooth="yes"/>
      <point x="1294.3999999999999" y="1413.8"/>
      <point x="1287.4" y="1432.3999999999999"/>
      <point x="1273.0" y="1440.8" type="curve" smooth="yes"/>
      <point x="1253.2" y="1452.6"/>
      <point x="1228.8" y="1443.0"/>
      <point x="1198.8000000000002" y="1417.6000000000001" type="curve" smooth="yes"/>
      <point x="1127.3999999999999" y="1350.4"/>
      <point x="1032.3999999999999" y="1312.2"/>
      <point x="907.2" y="1312.2" type="curve" smooth="yes"/>
      <point x="776.0" y="1312.2"/>
      <point x="692.8" y="1352.8000000000002"/>
      <point x="597.5999999999999" y="1409.0" type="curve" smooth="yes"/>
      <point x="573.4000000000001" y="1422.0"/>
      <point x="551.0" y="1428.0"/>
      <point x="524.4" y="1428.0" type="curve" smooth="yes"/>
      <point x="460.59999999999997" y="1428.0"/>
      <point x="422.8" y="1391.6"/>
      <point x="406.6" y="1334.0" type="curve" smooth="yes"/>
      <point x="214.4" y="635.4" type="line" smooth="yes"/>
      <point x="202.0" y="590.8"/>
      <point x="219.2" y="568.0"/>
      <point x="250.0" y="568.0" type="curve" smooth="yes"/>
      <point x="281.4" y="568.0"/>
      <point x="305.0" y="584.8"/>
      <point x="346.2" y="611.0" type="curve" smooth="yes"/>
      <point x="436.8" y="690.0"/>
      <point x="522.0" y="727.0"/>
      <point x="610.4" y="727.0" type="curve" smooth="yes"/>
      <point x="771.6" y="727.0"/>
      <point x="853.6" y="623.2"/>
      <point x="791.8" y="398.8" type="curve" smooth="yes"/>
      <point x="729.1999999999999" y="170.6"/>
      <point x="595.8000000000001" y="69.0"/>
      <point x="451.4" y="69.0" type="curve" smooth="yes"/>
      <point x="308.6" y="69.0"/>
      <point x="252.2" y="135.6"/>
      <point x="277.6" y="230.39999999999998" type="curve" smooth="yes"/>
      <point x="300.2" y="310.6" type="line" smooth="yes"/>
      <point x="321.20000000000005" y="386.40000000000003"/>
      <point x="297.6" y="434.6"/>
      <point x="222.0" y="434.6" type="curve" smooth="yes"/>
      <point x="149.4" y="434.6"/>
      <point x="80.4" y="376.0"/>
    </contour>
  </outline>
</glyph>
<glyph name="six" format="2">
  <advance width="1185.2"/>
  <unicode hex="0036"/>
  <outline>
    <contour>
      <point x="943.6000000000001" y="1427.3999999999999" type="curve" smooth="yes"/>
      <point x="593.8000000000001" y="1427.3999999999999"/>
      <point x="281.8" y="1188.4"/>
      <point x="143.0" y="680.8" type="curve" smooth="yes"/>
      <point x="21.799999999999997" y="239.0"/>
      <point x="148.0" y="-27.4"/>
      <point x="485.8" y="-27.4" type="curve" smooth="yes"/>
      <point x="789.5999999999999" y="-27.4"/>
      <point x="1022.8" y="138.0"/>
      <point x="1096.2" y="405.0" type="curve" smooth="yes"/>
      <point x="1170.6000000000001" y="672.1999999999999"/>
      <point x="1060.8" y="846.4"/>
      <point x="801.5999999999999" y="846.4" type="curve" smooth="yes"/>
      <point x="561.0" y="846.4"/>
      <point x="311.0" y="664.8000000000001"/>
      <point x="247.8" y="463.2" type="curve"/>
      <point x="301.2" y="432.0" type="line"/>
      <point x="354.79999999999995" y="585.4"/>
      <point x="526.8000000000001" y="718.0"/>
      <point x="684.6" y="718.0" type="curve" smooth="yes"/>
      <point x="849.2" y="718.0"/>
      <point x="926.0" y="608.0"/>
      <point x="869.0" y="399.4" type="curve" smooth="yes"/>
      <point x="813.4" y="197.0"/>
      <point x="681.4000000000001" y="80.6"/>
      <point x="526.0" y="80.6" type="curve" smooth="yes"/>
      <point x="344.6" y="80.6"/>
      <point x="250.8" y="227.6"/>
      <point x="377.40000000000003" y="687.1999999999999" type="curve" smooth="yes"/>
      <point x="507.2" y="1158.8"/>
      <point x="718.1999999999999" y="1318.2"/>
      <point x="886.5999999999999" y="1318.2" type="curve" smooth="yes"/>
      <point x="1005.2" y="1318.2"/>
      <point x="1044.0" y="1264.6"/>
      <point x="1018.9999999999999" y="1171.8" type="curve" smooth="yes"/>
      <point x="1002.8" y="1112.4" type="line" smooth="yes"/>
      <point x="980.4000000000001" y="1034.3999999999999"/>
      <point x="1007.8000000000001" y="992.8000000000001"/>
      <point x="1088.8000000000002" y="992.8000000000001" type="curve" smooth="yes"/>
      <point x="1167.2" y="992.8000000000001"/>
      <point x="1229.0" y="1045.0"/>
      <point x="1254.8000000000002" y="1137.0" type="curve" smooth="yes"/>
      <point x="1297.2" y="1291.2"/>
      <point x="1189.8000000000002" y="1427.3999999999999"/>
    </contour>
  </outline>
</glyph>
<glyph name="seven" format="2">
  <advance width="1073.6"/>
  <unicode hex="0037"/>
  <outline>
    <contour>
      <point x="1087.8" y="1219.4" type="line"/>
      <point x="753.6" y="873.6" type="line" smooth="yes"/>
      <point x="475.4" y="608.2"/>
      <point x="307.0" y="414.2"/>
      <point x="251.39999999999998" y="214.2" type="curve" smooth="yes"/>
      <point x="208.2" y="55.400000000000006"/>
      <point x="256.0" y="-27.4"/>
      <point x="364.59999999999997" y="-27.4" type="curve" smooth="yes"/>
      <point x="465.0" y="-27.4"/>
      <point x="535.2" y="33.400000000000006"/>
      <point x="557.8" y="114.60000000000001" type="curve" smooth="yes"/>
      <point x="584.0" y="208.8"/>
      <point x="509.2" y="281.0"/>
      <point x="539.4" y="388.0" type="curve" smooth="yes"/>
      <point x="577.2" y="526.6"/>
      <point x="687.8000000000001" y="659.8"/>
      <point x="917.2" y="892.0" type="curve" smooth="yes"/>
      <point x="1210.6000000000001" y="1207.3999999999999" type="line" smooth="yes"/>
      <point x="1268.6" y="1256.3999999999999"/>
      <point x="1286.0" y="1289.4"/>
      <point x="1294.8000000000002" y="1321.0" type="curve" smooth="yes"/>
      <point x="1308.6" y="1368.4"/>
      <point x="1286.2" y="1400.0"/>
      <point x="1221.6" y="1400.0" type="curve" smooth="yes"/>
      <point x="475.40000000000003" y="1400.0" type="line" smooth="yes"/>
      <point x="417.4" y="1400.0"/>
      <point x="380.2" y="1367.6000000000001"/>
      <point x="359.8" y="1313.8" type="curve" smooth="yes"/>
      <point x="259.8" y="1042.4" type="line" smooth="yes"/>
      <point x="241.0" y="991.6"/>
      <point x="256.2" y="968.4000000000001"/>
      <point x="294.6" y="967.8000000000001" type="curve" smooth="yes"/>
      <point x="328.8" y="967.2"/>
      <point x="355.0" y="988.8"/>
      <point x="372.6" y="1023.6" type="curve" smooth="yes"/>
      <point x="427.0" y="1126.8" type="line" smooth="yes"/>
      <point x="454.59999999999997" y="1177.8"/>
      <point x="477.4" y="1198.3999999999999"/>
      <point x="531.5999999999999" y="1198.3999999999999" type="curve" smooth="yes"/>
      <point x="1116.6" y="1198.3999999999999" type="line"/>
    </contour>
  </outline>
</glyph>
<glyph name="eight" format="2">
  <advance width="1143.4"/>
  <unicode hex="0038"/>
  <outline>
    <contour>
      <point x="421.0" y="-27.6" type="curve" smooth="yes"/>
      <point x="739.4" y="-27.6"/>
      <point x="969.8000000000001" y="118.20000000000002"/>
      <point x="1027.6000000000001" y="327.8" type="curve" smooth="yes"/>
      <point x="1075.6" y="502.2"/>
      <point x="991.1999999999999" y="630.5999999999999"/>
      <point x="727.6" y="722.1999999999999" type="curve" smooth="yes"/>
      <point x="487.20000000000005" y="806.4"/>
      <point x="440.8" y="926.4"/>
      <point x="480.99999999999994" y="1071.6" type="curve" smooth="yes"/>
      <point x="520.8" y="1217.6"/>
      <point x="654.2" y="1327.4"/>
      <point x="814.0" y="1327.4" type="curve" smooth="yes"/>
      <point x="979.0" y="1327.4"/>
      <point x="1055.4" y="1229.0"/>
      <point x="1003.8" y="1041.0" type="curve" smooth="yes"/>
      <point x="965.8000000000001" y="901.2"/>
      <point x="845.0" y="771.6"/>
      <point x="687.4000000000001" y="689.4" type="curve"/>
      <point x="712.1999999999999" y="648.2" type="line"/>
      <point x="976.2" y="697.4"/>
      <point x="1171.4" y="835.6"/>
      <point x="1226.1999999999998" y="1033.0" type="curve" smooth="yes"/>
      <point x="1288.6000000000001" y="1256.2"/>
      <point x="1168.6" y="1426.8000000000002"/>
      <point x="870.0" y="1426.8000000000002" type="curve" smooth="yes"/>
      <point x="544.2" y="1426.8000000000002"/>
      <point x="309.4" y="1239.6000000000001"/>
      <point x="250.20000000000002" y="1023.8" type="curve" smooth="yes"/>
      <point x="192.0" y="814.0"/>
      <point x="273.2" y="684.8000000000001"/>
      <point x="545.6" y="592.6" type="curve" smooth="yes"/>
      <point x="779.4" y="512.4"/>
      <point x="824.8" y="423.59999999999997"/>
      <point x="788.8000000000001" y="292.8" type="curve" smooth="yes"/>
      <point x="750.8" y="152.0"/>
      <point x="634.4" y="67.4"/>
      <point x="481.8" y="67.4" type="curve" smooth="yes"/>
      <point x="316.6" y="67.4"/>
      <point x="240.79999999999998" y="161.2"/>
      <point x="281.0" y="308.40000000000003" type="curve" smooth="yes"/>
      <point x="312.79999999999995" y="425.8"/>
      <point x="404.4" y="545.4000000000001"/>
      <point x="553.8000000000001" y="609.6" type="curve"/>
      <point x="548.6" y="649.2" type="line"/>
      <point x="300.0" y="625.0"/>
      <point x="102.6" y="483.40000000000003"/>
      <point x="56.0" y="316.4" type="curve" smooth="yes"/>
      <point x="-0.8000000000000025" y="111.0"/>
      <point x="108.8" y="-27.6"/>
    </contour>
  </outline>
</glyph>
<glyph name="nine" format="2">
  <advance width="1186.6000000000001"/>
  <unicode hex="0039"/>
  <outline>
    <contour>
      <point x="391.2" y="-27.4" type="curve" smooth="yes"/>
      <point x="741.8" y="-27.4"/>
      <point x="1035.4" y="220.60000000000002"/>
      <point x="1178.2" y="714.0" type="curve" smooth="yes"/>
      <point x="1309.0" y="1165.8"/>
      <point x="1177.6000000000001" y="1427.3999999999999"/>
      <point x="843.0" y="1427.3999999999999" type="curve" smooth="yes"/>
      <point x="546.0" y="1427.3999999999999"/>
      <point x="295.59999999999997" y="1248.8"/>
      <point x="219.8" y="972.6" type="curve" smooth="yes"/>
      <point x="150.6" y="722.6"/>
      <point x="262.20000000000005" y="547.6"/>
      <point x="520.1999999999999" y="547.6" type="curve" smooth="yes"/>
      <point x="760.8" y="547.6"/>
      <point x="1009.8000000000001" y="729.1999999999999"/>
      <point x="1073.3999999999999" y="930.8" type="curve"/>
      <point x="1020.1999999999999" y="962.0" type="line"/>
      <point x="966.0" y="808.6"/>
      <point x="794.4" y="676.0"/>
      <point x="636.6" y="676.0" type="curve" smooth="yes"/>
      <point x="477.6" y="676.0"/>
      <point x="395.79999999999995" y="786.8"/>
      <point x="453.6" y="997.4" type="curve" smooth="yes"/>
      <point x="510.00000000000006" y="1202.6"/>
      <point x="648.4" y="1319.4"/>
      <point x="803.4000000000001" y="1319.4" type="curve" smooth="yes"/>
      <point x="984.8000000000001" y="1319.4"/>
      <point x="1076.2" y="1164.3999999999999"/>
      <point x="946.8" y="716.8" type="curve" smooth="yes"/>
      <point x="810.8" y="247.0"/>
      <point x="619.8" y="81.8"/>
      <point x="448.2" y="81.8" type="curve" smooth="yes"/>
      <point x="329.6" y="81.8"/>
      <point x="272.8" y="135.4"/>
      <point x="297.79999999999995" y="228.2" type="curve" smooth="yes"/>
      <point x="314.6" y="287.6" type="line" smooth="yes"/>
      <point x="336.4" y="365.6"/>
      <point x="309.00000000000006" y="407.20000000000005"/>
      <point x="228.0" y="407.20000000000005" type="curve" smooth="yes"/>
      <point x="149.60000000000002" y="407.20000000000005"/>
      <point x="88.4" y="355.0"/>
      <point x="62.0" y="263.0" type="curve" smooth="yes"/>
      <point x="19.599999999999998" y="108.8"/>
      <point x="145.0" y="-27.4"/>
    </contour>
  </outline>
</glyph>
<glyph name="less" format="2">
  <advance width="1054.6"/>
  <unicode hex="003C"/>
  <outline>
    <contour>
      <point x="335.2" y="686.8" type="line"/>
      <point x="863.1999999999999" y="347.6" type="line" smooth="yes"/>
      <point x="900.1999999999999" y="323.0"/>
      <point x="911.8" y="294.8"/>
      <point x="905.1999999999999" y="268.4" type="curve" smooth="yes"/>
      <point x="896.8444779750558" y="236.66679240645962"/>
      <point x="873.8000000000001" y="219.6"/>
      <point x="833.0" y="219.6" type="curve" smooth="yes"/>
      <point x="799.1999999999999" y="219.6"/>
      <point x="770.5999999999999" y="237.2"/>
      <point x="728.6" y="263.8" type="curve" smooth="yes"/>
      <point x="226.0" y="570.0" type="line" smooth="yes"/>
      <point x="182.2" y="597.0"/>
      <point x="166.0" y="637.6"/>
      <point x="178.20000000000002" y="687.5999999999999" type="curve" smooth="yes"/>
      <point x="190.8" y="736.4"/>
      <point x="228.2" y="774.6"/>
      <point x="288.6" y="802.8" type="curve" smooth="yes"/>
      <point x="955.0" y="1109.6" type="line" smooth="yes"/>
      <point x="1010.7925363925601" y="1135.8216332640352"/>
      <point x="1047.2392857142859" y="1151.8"/>
      <point x="1081.2" y="1151.8" type="curve" smooth="yes"/>
      <point x="1119.2" y="1151.8"/>
      <point x="1134.2" y="1117.8000000000002"/>
      <point x="1123.0" y="1078.4" type="curve" smooth="yes"/>
      <point x="1115.0" y="1050.0"/>
      <point x="1087.6" y="1021.0"/>
      <point x="1037.2" y="996.8000000000001" type="curve" smooth="yes"/>
      <point x="328.79999999999995" y="662.8" type="line"/>
    </contour>
  </outline>
</glyph>
<glyph name="question" format="2">
  <advance width="993.6"/>
  <unicode hex="003F"/>
  <outline>
    <contour>
      <point x="405.4" y="673.8000000000001" type="line" smooth="yes"/>
      <point x="411.4" y="729.6"/>
      <point x="440.40000000000003" y="773.0"/>
      <point x="503.2" y="801.6" type="curve" smooth="yes"/>
      <point x="584.0" y="837.4" type="line" smooth="yes"/>
      <point x="741.1999999999999" y="907.4000000000001"/>
      <point x="808.2" y="1001.8"/>
      <point x="839.0" y="1116.0" type="curve" smooth="yes"/>
      <point x="879.6" y="1268.3999999999999"/>
      <point x="816.8" y="1344.8000000000002"/>
      <point x="707.0" y="1344.8000000000002" type="curve" smooth="yes"/>
      <point x="603.4" y="1344.8000000000002"/>
      <point x="528.0" y="1297.3999999999999"/>
      <point x="502.20000000000005" y="1200.4" type="curve" smooth="yes"/>
      <point x="487.40000000000003" y="1145.6000000000001" type="line" smooth="yes"/>
      <point x="464.20000000000005" y="1059.1999999999998"/>
      <point x="403.0" y="1010.8"/>
      <point x="321.4" y="1010.8" type="curve" smooth="yes"/>
      <point x="251.79999999999998" y="1010.8"/>
      <point x="218.0" y="1065.8"/>
      <point x="239.39999999999998" y="1144.0" type="curve" smooth="yes"/>
      <point x="281.6" y="1300.8"/>
      <point x="501.8" y="1453.8"/>
      <point x="745.1999999999999" y="1453.8" type="curve" smooth="yes"/>
      <point x="1010.0000000000001" y="1453.8"/>
      <point x="1127.2" y="1318.6"/>
      <point x="1073.0" y="1110.3999999999999" type="curve" smooth="yes"/>
      <point x="1030.0" y="945.6"/>
      <point x="913.0000000000001" y="817.4"/>
      <point x="693.8" y="753.8" type="curve" smooth="yes"/>
      <point x="635.6" y="735.0" type="line" smooth="yes"/>
      <point x="596.6" y="724.4"/>
      <point x="581.8" y="700.4000000000001"/>
      <point x="567.4" y="666.0" type="curve" smooth="yes"/>
      <point x="527.6" y="547.1999999999999" type="line" smooth="yes"/>
      <point x="495.6" y="486.2"/>
      <point x="470.40000000000003" y="461.2"/>
      <point x="431.20000000000005" y="461.2" type="curve" smooth="yes"/>
      <point x="391.2" y="461.2"/>
      <point x="374.8" y="489.4"/>
      <point x="379.6" y="544.8" type="curve" smooth="yes"/>
    </contour>
    <component base="period" xOffset="129.2" yOffset="-4.8"/>
  </outline>
</glyph>
<glyph name="at" format="2">
  <advance width="1814.6000000000001"/>
  <unicode hex="0040"/>
  <outline>
    <contour>
      <point x="689.2" y="409.40000000000003" type="curve" smooth="yes"/>
      <point x="702.8000000000001" y="657.1999999999999"/>
      <point x="916.0" y="912.8"/>
      <point x="1096.0" y="912.8" type="curve" smooth="yes"/>
      <point x="1145.2" y="912.8"/>
      <point x="1175.0" y="885.8"/>
      <point x="1171.8" y="832.6" type="curve" smooth="yes"/>
      <point x="1159.8000000000002" y="617.2"/>
      <point x="927.6" y="262.2"/>
      <point x="775.4" y="262.2" type="curve" smooth="yes"/>
      <point x="716.4" y="262.2"/>
      <point x="682.0" y="297.40000000000003"/>
    </contour>
    <contour>
      <point x="1196.2" y="126.0" type="curve" smooth="yes"/>
      <point x="1430.4" y="126.0"/>
      <point x="1656.2" y="314.40000000000003"/>
      <point x="1733.4" y="601.4" type="curve" smooth="yes"/>
      <point x="1865.6000000000001" y="1093.6"/>
      <point x="1602.6" y="1381.8000000000002"/>
      <point x="1186.1999999999998" y="1381.8000000000002" type="curve" smooth="yes"/>
      <point x="678.1999999999999" y="1381.8000000000002"/>
      <point x="255.8" y="1035.0"/>
      <point x="137.0" y="588.4" type="curve" smooth="yes"/>
      <point x="-5.400000000000002" y="57.4"/>
      <point x="273.6" y="-273.79999999999995"/>
      <point x="742.8" y="-273.79999999999995" type="curve" smooth="yes"/>
      <point x="1060.2" y="-273.79999999999995"/>
      <point x="1355.6000000000001" y="-165.8"/>
      <point x="1529.6" y="-6.999999999999998" type="curve" smooth="yes"/>
      <point x="1570.6000000000001" y="28.39999999999999"/>
      <point x="1588.4" y="65.19999999999999"/>
      <point x="1569.8" y="89.80000000000001" type="curve" smooth="yes"/>
      <point x="1550.0" y="114.60000000000001"/>
      <point x="1507.2" y="100.0"/>
      <point x="1471.3999999999999" y="74.6" type="curve" smooth="yes"/>
      <point x="1270.8" y="-79.0"/>
      <point x="1031.0" y="-163.4"/>
      <point x="775.2" y="-163.4" type="curve" smooth="yes"/>
      <point x="366.6" y="-163.4"/>
      <point x="143.20000000000002" y="139.4"/>
      <point x="264.2" y="588.4" type="curve" smooth="yes"/>
      <point x="373.0" y="997.4"/>
      <point x="728.6" y="1278.4"/>
      <point x="1151.8000000000002" y="1278.4" type="curve" smooth="yes"/>
      <point x="1502.6" y="1278.4"/>
      <point x="1713.8" y="1014.9999999999999"/>
      <point x="1602.6000000000001" y="600.0" type="curve" smooth="yes"/>
      <point x="1540.6000000000001" y="367.0"/>
      <point x="1409.2" y="264.6"/>
      <point x="1297.0" y="264.6" type="curve" smooth="yes"/>
      <point x="1231.7882352941176" y="264.6"/>
      <point x="1211.6311449003147" y="311.9262778098704"/>
      <point x="1236.3999999999999" y="404.20000000000005" type="curve" smooth="yes"/>
      <point x="1339.6000000000001" y="801.8000000000001" type="line" smooth="yes"/>
      <point x="1352.8000000000002" y="849.0"/>
      <point x="1400.0" y="865.2"/>
      <point x="1404.4" y="918.6" type="curve" smooth="yes"/>
      <point x="1409.6" y="987.1999999999999"/>
      <point x="1333.0" y="1028.0"/>
      <point x="1147.0" y="1028.0" type="curve" smooth="yes"/>
      <point x="793.1999999999999" y="1028.0"/>
      <point x="501.79999999999995" y="707.0"/>
      <point x="487.0" y="383.59999999999997" type="curve" smooth="yes"/>
      <point x="474.59999999999997" y="202.4"/>
      <point x="554.2" y="125.6"/>
      <point x="676.0" y="125.6" type="curve" smooth="yes"/>
      <point x="853.2" y="125.6"/>
      <point x="1014.6" y="260.2"/>
      <point x="1138.6000000000001" y="534.2" type="curve"/>
      <point x="1127.0" y="582.1999999999999" type="line"/>
      <point x="1070.24999104117" y="392.943424791786"/>
      <point x="1059.0" y="344.0"/>
      <point x="1051.8000000000002" y="287.2" type="curve" smooth="yes"/>
      <point x="1037.4" y="190.2"/>
      <point x="1099.07182320442" y="126.0"/>
    </contour>
  </outline>
</glyph>
<glyph name="A" format="2">
  <advance width="1311.4"/>
  <unicode hex="0041"/>
  <anchor x="1035.6" y="1532.0" name="center"/>
  <outline>
    <contour>
      <point x="280.20000000000005" y="261.20000000000005" type="curve" smooth="yes"/>
      <point x="724.6" y="962.8" type="line" smooth="yes"/>
      <point x="821.0" y="1116.8000000000002"/>
      <point x="890.2" y="1192.8"/>
      <point x="936.5999999999999" y="1226.0" type="curve"/>
      <point x="877.4" y="1252.0" type="line"/>
      <point x="876.5999999999999" y="975.6"/>
      <point x="869.8" y="473.40000000000003"/>
      <point x="865.0" y="254.0" type="curve" smooth="yes"/>
      <point x="863.4" y="187.20000000000002"/>
      <point x="841.1999999999999" y="146.6"/>
      <point x="796.5999999999999" y="131.20000000000002" type="curve" smooth="yes"/>
      <point x="745.0" y="118.0" type="line" smooth="yes"/>
      <point x="712.1999999999999" y="103.60000000000001"/>
      <point x="692.6" y="84.0"/>
      <point x="692.6" y="53.6" type="curve" smooth="yes"/>
      <point x="692.6" y="22.8"/>
      <point x="709.8" y="0.0"/>
      <point x="749.4" y="0.0" type="curve" smooth="yes"/>
      <point x="1135.4" y="0.0" type="line" smooth="yes"/>
      <point x="1181.8" y="0.0"/>
      <point x="1206.2" y="24.4"/>
      <point x="1206.1999999999998" y="59.6" type="curve" smooth="yes"/>
      <point x="1206.1999999999998" y="84.4"/>
      <point x="1195.0" y="102.0"/>
      <point x="1171.3999999999999" y="114.8" type="curve" smooth="yes"/>
      <point x="1108.6" y="145.20000000000002"/>
      <point x="1086.2" y="173.6"/>
      <point x="1085.0" y="248.8" type="curve" smooth="yes"/>
      <point x="1082.6" y="437.40000000000003"/>
      <point x="1090.6000000000001" y="925.8000000000001"/>
      <point x="1091.8" y="1168.8" type="curve" smooth="yes"/>
      <point x="1091.8" y="1243.6"/>
      <point x="1120.3999999999999" y="1278.0"/>
      <point x="1168.2" y="1298.8000000000002" type="curve" smooth="yes"/>
      <point x="1196.2" y="1312.4"/>
      <point x="1209.8" y="1332.0"/>
      <point x="1209.8" y="1359.6" type="curve" smooth="yes"/>
      <point x="1209.8" y="1395.1999999999998"/>
      <point x="1183.8" y="1420.4"/>
      <point x="1115.8" y="1420.4" type="curve" smooth="yes"/>
      <point x="955.0" y="1420.4"/>
      <point x="798.6" y="1293.2"/>
      <point x="631.4000000000001" y="1028.0" type="curve" smooth="yes"/>
      <point x="145.8" y="269.2" type="line" smooth="yes"/>
      <point x="104.4" y="203.20000000000002"/>
      <point x="60.8" y="153.6"/>
      <point x="18.200000000000003" y="138.4" type="curve" smooth="yes"/>
      <point x="-34.2" y="113.2"/>
      <point x="-51.4" y="91.2"/>
      <point x="-51.39999999999999" y="57.6" type="curve" smooth="yes"/>
      <point x="-51.39999999999999" y="20.8"/>
      <point x="-27.399999999999995" y="0.0"/>
      <point x="20.6" y="0.0" type="curve" smooth="yes"/>
      <point x="309.40000000000003" y="0.0" type="line" smooth="yes"/>
      <point x="353.8" y="0.0"/>
      <point x="381.4" y="23.200000000000003"/>
      <point x="381.4" y="62.4" type="curve" smooth="yes"/>
      <point x="381.40000000000003" y="84.0"/>
      <point x="370.2" y="104.2"/>
      <point x="339.8" y="116.80000000000001" type="curve" smooth="yes"/>
      <point x="281.6" y="131.4" type="line" smooth="yes"/>
      <point x="239.8" y="145.8"/>
      <point x="235.0" y="189.2"/>
    </contour>
    <contour>
      <point x="337.40000000000003" y="468.40000000000003" type="line"/>
      <point x="933.0" y="468.40000000000003" type="line"/>
      <point x="941.8000000000001" y="572.8" type="line"/>
      <point x="366.2" y="572.8" type="line"/>
    </contour>
  </outline>
</glyph>
<glyph name="B" format="2">
  <advance width="1341.4"/>
  <unicode hex="0042"/>
  <outline>
    <contour>
      <point x="685.8" y="1180.4" type="curve" smooth="yes"/>
      <point x="707.0" y="1256.8"/>
      <point x="748.0" y="1289.2"/>
      <point x="850.2" y="1289.2" type="curve" smooth="yes"/>
      <point x="1023.2" y="1289.2"/>
      <point x="1122.2" y="1197.0"/>
      <point x="1096.2" y="1027.6" type="curve" smooth="yes"/>
      <point x="1067.6000000000001" y="826.0"/>
      <point x="913.4" y="692.4"/>
      <point x="711.0" y="692.4" type="curve" smooth="yes"/>
      <point x="476.20000000000005" y="692.4" type="line"/>
      <point x="443.4" y="596.4000000000001" type="line"/>
      <point x="743.8" y="596.4000000000001" type="line" smooth="yes"/>
      <point x="930.4" y="596.4000000000001"/>
      <point x="1019.4" y="514.0"/>
      <point x="994.2" y="360.40000000000003" type="curve" smooth="yes"/>
      <point x="967.4" y="195.8"/>
      <point x="826.0" y="107.60000000000001"/>
      <point x="605.8000000000001" y="107.60000000000001" type="curve" smooth="yes"/>
      <point x="461.80000000000007" y="107.60000000000001"/>
      <point x="410.2" y="145.6"/>
      <point x="427.0" y="216.79999999999998" type="curve" smooth="yes"/>
      <point x="459.00000000000006" y="368.0"/>
      <point x="616.2" y="937.8"/>
    </contour>
    <contour>
      <point x="429.8" y="1400.0" type="line" smooth="yes"/>
      <point x="366.6" y="1400.0"/>
      <point x="337.8" y="1371.1999999999998"/>
      <point x="337.79999999999995" y="1333.2" type="curve" smooth="yes"/>
      <point x="337.79999999999995" y="1309.6"/>
      <point x="355.0" y="1296.0"/>
      <point x="384.59999999999997" y="1284.8" type="curve" smooth="yes"/>
      <point x="433.4" y="1274.0" type="line" smooth="yes"/>
      <point x="470.6" y="1259.2"/>
      <point x="471.40000000000003" y="1234.8"/>
      <point x="458.2" y="1169.2" type="curve" smooth="yes"/>
      <point x="440.2" y="1075.2"/>
      <point x="311.4" y="591.2"/>
      <point x="195.4" y="205.60000000000002" type="curve" smooth="yes"/>
      <point x="183.39999999999998" y="165.60000000000002"/>
      <point x="159.4" y="141.20000000000002"/>
      <point x="113.0" y="126.8" type="curve" smooth="yes"/>
      <point x="71.4" y="114.4" type="line" smooth="yes"/>
      <point x="24.6" y="100.4"/>
      <point x="-0.1999999999999993" y="78.4"/>
      <point x="-0.1999999999999993" y="52.4" type="curve" smooth="yes"/>
      <point x="-0.1999999999999993" y="21.599999999999998"/>
      <point x="15.4" y="0.0"/>
      <point x="65.80000000000001" y="0.0" type="curve" smooth="yes"/>
      <point x="597.8" y="0.0" type="line" smooth="yes"/>
      <point x="978.4" y="0.0"/>
      <point x="1189.6" y="134.4"/>
      <point x="1219.8000000000002" y="350.0" type="curve" smooth="yes"/>
      <point x="1246.4" y="540.8"/>
      <point x="1121.8" y="667.2"/>
      <point x="810.2" y="667.2" type="curve"/>
      <point x="815.0" y="648.0" type="line"/>
      <point x="1092.8" y="648.0"/>
      <point x="1289.8" y="803.8"/>
      <point x="1317.4" y="1025.4" type="curve" smooth="yes"/>
      <point x="1346.2" y="1258.6"/>
      <point x="1199.8000000000002" y="1400.0"/>
      <point x="865.8" y="1400.0" type="curve" smooth="yes"/>
    </contour>
  </outline>
</glyph>
<glyph name="C" format="2">
  <advance width="1312.6000000000001"/>
  <unicode hex="0043"/>
  <anchor x="957.4" y="1510.0" name="center"/>
  <outline>
    <contour>
      <point x="1205.8" y="415.6" type="curve" smooth="yes"/>
      <point x="1174.0" y="430.0"/>
      <point x="1145.8" y="411.0"/>
      <point x="1109.4" y="366.8" type="curve" smooth="yes"/>
      <point x="1002.1999999999999" y="203.20000000000002"/>
      <point x="869.6" y="119.60000000000002"/>
      <point x="699.8" y="119.60000000000002" type="curve" smooth="yes"/>
      <point x="483.4" y="119.60000000000002"/>
      <point x="342.0" y="309.2"/>
      <point x="403.2" y="671.8000000000001" type="curve" smooth="yes"/>
      <point x="459.79999999999995" y="1019.0"/>
      <point x="682.1999999999999" y="1311.4"/>
      <point x="967.0" y="1311.4" type="curve" smooth="yes"/>
      <point x="1117.2" y="1311.4"/>
      <point x="1200.6000000000001" y="1250.8"/>
      <point x="1240.8" y="1125.0" type="curve" smooth="yes"/>
      <point x="1264.6" y="1051.2" type="line" smooth="yes"/>
      <point x="1275.0" y="1017.6"/>
      <point x="1295.8" y="998.8"/>
      <point x="1326.6" y="998.8" type="curve" smooth="yes"/>
      <point x="1360.6000000000001" y="998.8"/>
      <point x="1388.2" y="1021.0"/>
      <point x="1386.6" y="1060.8" type="curve" smooth="yes"/>
      <point x="1359.4" y="1365.6" type="line" smooth="yes"/>
      <point x="1356.8" y="1406.0"/>
      <point x="1336.2" y="1430.0"/>
      <point x="1302.2" y="1430.0" type="curve" smooth="yes"/>
      <point x="1252.8" y="1430.0"/>
      <point x="1235.0" y="1378.2"/>
      <point x="1194.6000000000001" y="1378.2" type="curve" smooth="yes"/>
      <point x="1157.0" y="1378.2"/>
      <point x="1099.6000000000001" y="1430.0"/>
      <point x="952.1999999999999" y="1430.0" type="curve" smooth="yes"/>
      <point x="545.0" y="1430.0"/>
      <point x="213.6" y="1073.4"/>
      <point x="148.2" y="655.6" type="curve" smooth="yes"/>
      <point x="79.8" y="222.60000000000002"/>
      <point x="291.0" y="-30.0"/>
      <point x="630.8000000000001" y="-30.0" type="curve" smooth="yes"/>
      <point x="898.5999999999999" y="-30.0"/>
      <point x="1107.0" y="107.39999999999999"/>
      <point x="1207.6000000000001" y="298.79999999999995" type="curve" smooth="yes"/>
      <point x="1241.6" y="362.6"/>
      <point x="1231.6000000000001" y="404.0"/>
    </contour>
  </outline>
</glyph>
<glyph name="D" format="2">
  <advance width="1517.6000000000001"/>
  <unicode hex="0044"/>
  <anchor x="1001.8000000000001" y="1485.0" name="center"/>
  <outline>
    <contour>
      <point x="13.0" y="52.6" type="curve" smooth="yes"/>
      <point x="13.000000000000002" y="22.2"/>
      <point x="25.6" y="0.0"/>
      <point x="71.20000000000002" y="0.0" type="curve" smooth="yes"/>
      <point x="605.6" y="0.0" type="line" smooth="yes"/>
      <point x="1041.2" y="0.0"/>
      <point x="1404.8" y="227.6"/>
      <point x="1484.4" y="688.4" type="curve" smooth="yes"/>
      <point x="1555.4" y="1098.0"/>
      <point x="1282.4" y="1400.0"/>
      <point x="896.4" y="1400.0" type="curve" smooth="yes"/>
      <point x="414.6" y="1400.0" type="line" smooth="yes"/>
      <point x="363.40000000000003" y="1400.0"/>
      <point x="339.0" y="1376.4"/>
      <point x="339.0" y="1339.8" type="curve" smooth="yes"/>
      <point x="339.0" y="1311.4"/>
      <point x="353.0" y="1298.2"/>
      <point x="388.8" y="1286.0" type="curve" smooth="yes"/>
      <point x="430.4" y="1273.2" type="line" smooth="yes"/>
      <point x="466.8" y="1262.1999999999998"/>
      <point x="478.0" y="1238.6"/>
      <point x="467.2" y="1189.6" type="curve" smooth="yes"/>
      <point x="443.59999999999997" y="1082.6"/>
      <point x="252.4" y="389.4"/>
      <point x="211.6" y="255.99999999999997" type="curve" smooth="yes"/>
      <point x="182.2" y="162.4"/>
      <point x="154.8" y="136.60000000000002"/>
      <point x="120.8" y="127.39999999999999" type="curve" smooth="yes"/>
      <point x="71.4" y="116.2" type="line" smooth="yes"/>
      <point x="32.2" y="104.4"/>
      <point x="13.000000000000002" y="83.4"/>
    </contour>
    <contour>
      <point x="621.1999999999999" y="122.8" type="curve" smooth="yes"/>
      <point x="502.6" y="122.8" type="line" smooth="yes"/>
      <point x="447.40000000000003" y="122.8"/>
      <point x="427.0" y="151.00000000000003"/>
      <point x="436.2" y="215.20000000000002" type="curve" smooth="yes"/>
      <point x="453.59999999999997" y="339.6"/>
      <point x="670.2" y="1097.1999999999998"/>
      <point x="701.4" y="1195.6" type="curve" smooth="yes"/>
      <point x="720.6" y="1254.8"/>
      <point x="750.0" y="1284.0"/>
      <point x="798.0" y="1284.0" type="curve" smooth="yes"/>
      <point x="893.1999999999999" y="1284.0" type="line" smooth="yes"/>
      <point x="1107.6" y="1284.0"/>
      <point x="1307.2" y="1066.3999999999999"/>
      <point x="1240.6" y="689.0" type="curve" smooth="yes"/>
      <point x="1178.0" y="327.2"/>
      <point x="937.6" y="122.8"/>
    </contour>
  </outline>
</glyph>
<glyph name="E" format="2">
  <advance width="1259.0"/>
  <unicode hex="0045"/>
  <anchor x="868.8" y="1468.0" name="center"/>
  <outline>
    <contour>
      <point x="453.0" y="752.8" type="line"/>
      <point x="426.2" y="649.1999999999999" type="line"/>
      <point x="842.6" y="649.1999999999999" type="line" smooth="yes"/>
      <point x="905.4" y="649.1999999999999"/>
      <point x="933.0" y="636.8"/>
      <point x="960.6" y="560.8000000000001" type="curve" smooth="yes"/>
      <point x="973.0" y="532.8000000000001"/>
      <point x="991.0" y="515.1999999999999"/>
      <point x="1019.8" y="515.1999999999999" type="curve" smooth="yes"/>
      <point x="1052.2" y="515.1999999999999"/>
      <point x="1077.3999999999999" y="538.8000000000001"/>
      <point x="1069.3999999999999" y="588.8000000000001" type="curve" smooth="yes"/>
      <point x="1019.0000000000001" y="846.8" type="line" smooth="yes"/>
      <point x="1015.0" y="876.4"/>
      <point x="998.2" y="897.6"/>
      <point x="963.8" y="897.6" type="curve" smooth="yes"/>
      <point x="941.0" y="897.6"/>
      <point x="923.8000000000001" y="885.6"/>
      <point x="915.0" y="856.4" type="curve" smooth="yes"/>
      <point x="909.4" y="772.4"/>
      <point x="886.6" y="752.8"/>
      <point x="835.0" y="752.8" type="curve" smooth="yes"/>
    </contour>
    <contour>
      <point x="763.8" y="0.0" type="line" smooth="yes"/>
      <point x="818.6" y="0.0"/>
      <point x="849.8" y="-32.4"/>
      <point x="892.5999999999999" y="-32.4" type="curve" smooth="yes"/>
      <point x="1025.8" y="-32.4"/>
      <point x="1139.8000000000002" y="131.6"/>
      <point x="1139.8" y="293.6" type="curve" smooth="yes"/>
      <point x="1139.8000000000002" y="335.59999999999997"/>
      <point x="1121.8" y="359.59999999999997"/>
      <point x="1091.3999999999999" y="359.59999999999997" type="curve" smooth="yes"/>
      <point x="1067.8000000000002" y="359.59999999999997"/>
      <point x="1044.2" y="340.0"/>
      <point x="1026.6000000000001" y="304.4" type="curve" smooth="yes"/>
      <point x="965.4" y="150.8"/>
      <point x="889.8000000000001" y="103.60000000000001"/>
      <point x="754.6" y="103.60000000000001" type="curve" smooth="yes"/>
      <point x="495.79999999999995" y="103.60000000000001" type="line" smooth="yes"/>
      <point x="433.79999999999995" y="103.60000000000001"/>
      <point x="409.80000000000007" y="140.0"/>
      <point x="423.8" y="198.4" type="curve" smooth="yes"/>
      <point x="445.75864182676617" y="296.97997451839586"/>
      <point x="655.7816054945189" y="1063.1336198280462"/>
      <point x="722.2" y="1298.8000000000002" type="curve"/>
      <point x="1014.1999999999999" y="1298.8000000000002" type="line" smooth="yes"/>
      <point x="1095.0" y="1298.8000000000002"/>
      <point x="1148.9405846593047" y="1261.0409853014312"/>
      <point x="1199.8" y="1137.6" type="curve" smooth="yes"/>
      <point x="1221.8" y="1079.2"/>
      <point x="1247.4" y="1059.2"/>
      <point x="1285.3999999999999" y="1063.6000000000001" type="curve" smooth="yes"/>
      <point x="1318.6000000000001" y="1067.2"/>
      <point x="1339.3999999999999" y="1094.0"/>
      <point x="1330.2" y="1141.1999999999998" type="curve" smooth="yes"/>
      <point x="1280.1999999999998" y="1372.0" type="line" smooth="yes"/>
      <point x="1271.2" y="1419.2"/>
      <point x="1250.2" y="1439.6"/>
      <point x="1213.8" y="1439.6" type="curve" smooth="yes"/>
      <point x="1169.0" y="1439.6"/>
      <point x="1127.4" y="1400.0"/>
      <point x="1062.2" y="1400.0" type="curve" smooth="yes"/>
      <point x="423.0" y="1400.0" type="line" smooth="yes"/>
      <point x="377.0" y="1400.0"/>
      <point x="352.20000000000005" y="1375.6000000000001"/>
      <point x="352.20000000000005" y="1338.0" type="curve" smooth="yes"/>
      <point x="352.20000000000005" y="1310.3999999999999"/>
      <point x="371.8" y="1294.4"/>
      <point x="395.4" y="1286.0" type="curve" smooth="yes"/>
      <point x="443.0" y="1273.2" type="line" smooth="yes"/>
      <point x="471.8" y="1264.6000000000001"/>
      <point x="480.20000000000005" y="1232.3999999999999"/>
      <point x="467.0" y="1175.2" type="curve" smooth="yes"/>
      <point x="427.4" y="1016.8000000000001"/>
      <point x="224.6" y="294.4"/>
      <point x="200.20000000000002" y="217.6" type="curve" smooth="yes"/>
      <point x="182.20000000000002" y="161.6"/>
      <point x="160.60000000000002" y="142.6"/>
      <point x="120.2" y="131.6" type="curve" smooth="yes"/>
      <point x="63.0" y="116.80000000000001" type="line" smooth="yes"/>
      <point x="33.0" y="106.0"/>
      <point x="11.8" y="85.2"/>
      <point x="11.8" y="54.800000000000004" type="curve" smooth="yes"/>
      <point x="11.8" y="24.0"/>
      <point x="26.200000000000003" y="0.0"/>
      <point x="71.8" y="0.0" type="curve" smooth="yes"/>
    </contour>
  </outline>
</glyph>
<glyph name="F" format="2">
  <advance width="1205.6000000000001"/>
  <unicode hex="0046"/>
  <outline>
    <contour>
      <point x="348.59999999999997" y="1340.4" type="curve" smooth="yes"/>
      <point x="346.2" y="1309.6000000000001"/>
      <point x="365.79999999999995" y="1297.4"/>
      <point x="400.2" y="1284.8" type="curve" smooth="yes"/>
      <point x="434.6" y="1273.2" type="line" smooth="yes"/>
      <point x="467.0" y="1261.8"/>
      <point x="477.0" y="1239.1999999999998"/>
      <point x="465.8" y="1188.4" type="curve" smooth="yes"/>
      <point x="412.6" y="962.0000000000001"/>
      <point x="286.2" y="513.6"/>
      <point x="200.20000000000002" y="220.8" type="curve" smooth="yes"/>
      <point x="184.6" y="167.60000000000002"/>
      <point x="162.6" y="143.20000000000002"/>
      <point x="122.6" y="132.8" type="curve" smooth="yes"/>
      <point x="88.2" y="122.80000000000001" type="line" smooth="yes"/>
      <point x="37.8" y="108.39999999999999"/>
      <point x="15.399999999999999" y="88.4"/>
      <point x="14.200000000000001" y="56.0" type="curve" smooth="yes"/>
      <point x="13.0" y="21.599999999999998"/>
      <point x="28.6" y="0.0"/>
      <point x="76.60000000000001" y="0.0" type="curve" smooth="yes"/>
      <point x="487.6" y="0.0" type="line" smooth="yes"/>
      <point x="552.8" y="0.0"/>
      <point x="580.0" y="27.200000000000003"/>
      <point x="580.0" y="65.2" type="curve" smooth="yes"/>
      <point x="580.0" y="92.0"/>
      <point x="561.5999999999999" y="111.80000000000001"/>
      <point x="515.2" y="120.0" type="curve" smooth="yes"/>
      <point x="475.6" y="127.60000000000001" type="line" smooth="yes"/>
      <point x="419.6" y="138.8"/>
      <point x="416.0" y="162.4"/>
      <point x="429.20000000000005" y="216.00000000000003" type="curve" smooth="yes"/>
      <point x="482.0" y="431.20000000000005"/>
      <point x="634.4" y="982.8"/>
      <point x="724.4" y="1298.8" type="curve"/>
      <point x="996.5999999999999" y="1298.8" type="line" smooth="yes"/>
      <point x="1088.2" y="1298.8"/>
      <point x="1138.2" y="1255.2"/>
      <point x="1165.0" y="1191.6" type="curve" smooth="yes"/>
      <point x="1182.2" y="1150.4" type="line" smooth="yes"/>
      <point x="1208.1999999999998" y="1087.6"/>
      <point x="1231.3999999999999" y="1060.4"/>
      <point x="1274.1999999999998" y="1064.8" type="curve" smooth="yes"/>
      <point x="1309.0" y="1068.4"/>
      <point x="1327.4" y="1094.8000000000002"/>
      <point x="1318.2" y="1142.0" type="curve" smooth="yes"/>
      <point x="1267.0" y="1378.0" type="line" smooth="yes"/>
      <point x="1258.6000000000001" y="1420.4"/>
      <point x="1237.0" y="1439.6"/>
      <point x="1203.0" y="1439.6" type="curve" smooth="yes"/>
      <point x="1154.6" y="1439.6"/>
      <point x="1116.1999999999998" y="1400.0"/>
      <point x="1049.0" y="1400.0" type="curve" smooth="yes"/>
      <point x="427.8" y="1400.0" type="line" smooth="yes"/>
      <point x="379.40000000000003" y="1400.0"/>
      <point x="351.0" y="1378.4"/>
    </contour>
    <contour>
      <point x="451.0" y="711.6" type="line"/>
      <point x="423.0" y="608.0" type="line"/>
      <point x="838.2" y="608.0" type="line" smooth="yes"/>
      <point x="907.0" y="608.0"/>
      <point x="929.8000000000001" y="592.0"/>
      <point x="955.0" y="528.0" type="curve" smooth="yes"/>
      <point x="969.8" y="491.6"/>
      <point x="987.8" y="472.79999999999995"/>
      <point x="1016.5999999999999" y="472.79999999999995" type="curve" smooth="yes"/>
      <point x="1049.0" y="472.79999999999995"/>
      <point x="1075.3999999999999" y="496.4"/>
      <point x="1067.4" y="545.2" type="curve" smooth="yes"/>
      <point x="1019.4" y="800.8000000000001" type="line" smooth="yes"/>
      <point x="1014.1999999999999" y="834.0"/>
      <point x="996.2" y="856.4"/>
      <point x="963.0" y="856.4" type="curve" smooth="yes"/>
      <point x="937.8000000000001" y="856.4"/>
      <point x="923.0" y="840.8"/>
      <point x="915.4" y="808.0" type="curve" smooth="yes"/>
      <point x="909.8" y="728.8000000000001"/>
      <point x="881.0" y="711.6"/>
      <point x="831.8" y="711.6" type="curve" smooth="yes"/>
    </contour>
  </outline>
</glyph>
<glyph name="G" format="2">
  <advance width="1426.6"/>
  <unicode hex="0047"/>
  <anchor x="968.2" y="1566.0" name="center"/>
  <outline>
    <contour>
      <point x="944.8" y="1428.0" type="curve" smooth="yes"/>
      <point x="561.4" y="1428.0"/>
      <point x="224.4" y="1095.8"/>
      <point x="148.4" y="659.2" type="curve" smooth="yes"/>
      <point x="73.8" y="233.4"/>
      <point x="270.8" y="-32.4"/>
      <point x="613.5999999999999" y="-32.4" type="curve" smooth="yes"/>
      <point x="822.0" y="-32.4"/>
      <point x="913.5999999999999" y="43.199999999999996"/>
      <point x="960.0" y="43.199999999999996" type="curve" smooth="yes"/>
      <point x="1007.6" y="43.199999999999996"/>
      <point x="1005.2" y="-32.4"/>
      <point x="1061.2" y="-32.4" type="curve" smooth="yes"/>
      <point x="1103.6" y="-32.4"/>
      <point x="1127.6000000000001" y="-10.0"/>
      <point x="1146.0" y="54.4" type="curve" smooth="yes"/>
      <point x="1266.8" y="465.6" type="line" smooth="yes"/>
      <point x="1276.2" y="497.6"/>
      <point x="1291.6000000000001" y="516.5999999999999"/>
      <point x="1328.8" y="527.2" type="curve" smooth="yes"/>
      <point x="1364.4" y="537.6" type="line" smooth="yes"/>
      <point x="1399.6000000000001" y="548.6"/>
      <point x="1422.8" y="570.8000000000001"/>
      <point x="1424.0" y="601.6" type="curve" smooth="yes"/>
      <point x="1425.2" y="636.8"/>
      <point x="1412.4" y="657.5999999999999"/>
      <point x="1362.8" y="657.5999999999999" type="curve" smooth="yes"/>
      <point x="975.1999999999999" y="657.5999999999999" type="line" smooth="yes"/>
      <point x="928.8000000000001" y="657.5999999999999"/>
      <point x="902.0" y="635.1999999999999"/>
      <point x="902.0" y="595.6" type="curve" smooth="yes"/>
      <point x="902.0" y="568.0"/>
      <point x="914.0" y="544.8000000000001"/>
      <point x="945.1999999999999" y="540.0" type="curve" smooth="yes"/>
      <point x="1016.4" y="529.6" type="line" smooth="yes"/>
      <point x="1058.4" y="524.1999999999999"/>
      <point x="1067.8" y="494.40000000000003"/>
      <point x="1054.0" y="442.40000000000003" type="curve" smooth="yes"/>
      <point x="1008.4000000000001" y="271.6" type="line" smooth="yes"/>
      <point x="977.6" y="154.4"/>
      <point x="864.4" y="96.8"/>
      <point x="702.8000000000001" y="96.8" type="curve" smooth="yes"/>
      <point x="476.6" y="96.8"/>
      <point x="329.0" y="280.79999999999995"/>
      <point x="400.20000000000005" y="659.4" type="curve" smooth="yes"/>
      <point x="474.80000000000007" y="1060.2"/>
      <point x="713.2" y="1310.8"/>
      <point x="1002.0" y="1310.8" type="curve" smooth="yes"/>
      <point x="1140.0" y="1310.8"/>
      <point x="1237.1999999999998" y="1264.0"/>
      <point x="1294.8000000000002" y="1121.6000000000001" type="curve" smooth="yes"/>
      <point x="1322.3999999999999" y="1052.3999999999999" type="line" smooth="yes"/>
      <point x="1333.6000000000001" y="1022.8"/>
      <point x="1359.6" y="1001.6"/>
      <point x="1391.2" y="1004.0" type="curve" smooth="yes"/>
      <point x="1420.8000000000002" y="1006.4"/>
      <point x="1446.8" y="1026.4"/>
      <point x="1442.8" y="1070.0" type="curve" smooth="yes"/>
      <point x="1406.8" y="1347.2" type="line" smooth="yes"/>
      <point x="1401.2" y="1403.6"/>
      <point x="1375.6" y="1430.0"/>
      <point x="1337.6000000000001" y="1430.0" type="curve" smooth="yes"/>
      <point x="1290.8" y="1430.0"/>
      <point x="1276.0" y="1378.8"/>
      <point x="1226.0" y="1378.8" type="curve" smooth="yes"/>
      <point x="1188.3999999999999" y="1378.8"/>
      <point x="1099.6000000000001" y="1428.0"/>
    </contour>
  </outline>
</glyph>
<glyph name="H" format="2">
  <advance width="1591.8"/>
  <unicode hex="0048"/>
  <anchor x="1074.2" y="1498.0" name="center"/>
  <outline>
    <contour>
      <point x="429.0" y="213.60000000000002" type="curve" smooth="yes"/>
      <point x="441.40000000000003" y="278.0"/>
      <point x="638.1999999999999" y="1008.4"/>
      <point x="696.6" y="1194.4" type="curve" smooth="yes"/>
      <point x="710.6" y="1241.2"/>
      <point x="729.4000000000001" y="1258.8"/>
      <point x="774.1999999999999" y="1270.8" type="curve" smooth="yes"/>
      <point x="824.1999999999999" y="1284.4" type="line" smooth="yes"/>
      <point x="862.2" y="1296.8"/>
      <point x="883.8000000000001" y="1316.8"/>
      <point x="883.8000000000001" y="1350.0" type="curve" smooth="yes"/>
      <point x="883.8000000000001" y="1380.8"/>
      <point x="870.6" y="1400.0"/>
      <point x="821.4" y="1400.0" type="curve" smooth="yes"/>
      <point x="425.4" y="1400.0" type="line" smooth="yes"/>
      <point x="368.20000000000005" y="1400.0"/>
      <point x="337.79999999999995" y="1378.8"/>
      <point x="337.79999999999995" y="1341.6000000000001" type="curve" smooth="yes"/>
      <point x="337.8" y="1313.2"/>
      <point x="351.4" y="1298.4"/>
      <point x="385.79999999999995" y="1286.0" type="curve" smooth="yes"/>
      <point x="428.59999999999997" y="1273.2" type="line" smooth="yes"/>
      <point x="469.4" y="1260.8"/>
      <point x="474.6" y="1235.6"/>
      <point x="464.2" y="1186.3999999999999" type="curve" smooth="yes"/>
      <point x="429.40000000000003" y="1020.0000000000001"/>
      <point x="242.6" y="353.6"/>
      <point x="200.2" y="218.4" type="curve" smooth="yes"/>
      <point x="183.0" y="164.8"/>
      <point x="159.4" y="137.2"/>
      <point x="114.19999999999999" y="126.8" type="curve" smooth="yes"/>
      <point x="66.6" y="115.60000000000001" type="line" smooth="yes"/>
      <point x="32.199999999999996" y="105.60000000000001"/>
      <point x="10.600000000000001" y="83.2"/>
      <point x="11.8" y="52.4" type="curve" smooth="yes"/>
      <point x="11.8" y="20.4"/>
      <point x="25.000000000000004" y="0.0"/>
      <point x="75.4" y="0.0" type="curve" smooth="yes"/>
      <point x="476.2" y="0.0" type="line" smooth="yes"/>
      <point x="521.0" y="0.0"/>
      <point x="551.8000000000001" y="22.400000000000002"/>
      <point x="551.8000000000001" y="58.4" type="curve" smooth="yes"/>
      <point x="551.8" y="86.0"/>
      <point x="537.8" y="101.60000000000001"/>
      <point x="505.0" y="114.0" type="curve" smooth="yes"/>
      <point x="465.79999999999995" y="125.60000000000001" type="line" smooth="yes"/>
      <point x="427.8" y="135.20000000000002"/>
      <point x="417.8" y="158.00000000000003"/>
    </contour>
    <contour>
      <point x="464.59999999999997" y="714.4000000000001" type="line"/>
      <point x="433.4" y="598.4" type="line"/>
      <point x="1242.6000000000001" y="598.4" type="line"/>
      <point x="1275.0" y="714.4000000000001" type="line"/>
    </contour>
    <contour>
      <point x="1271.0" y="213.6" type="curve" smooth="yes"/>
      <point x="1283.4" y="278.0"/>
      <point x="1479.8" y="1008.4"/>
      <point x="1538.6" y="1194.3999999999999" type="curve" smooth="yes"/>
      <point x="1552.6000000000001" y="1241.1999999999998"/>
      <point x="1571.4" y="1258.8"/>
      <point x="1616.2" y="1270.8" type="curve" smooth="yes"/>
      <point x="1666.2" y="1284.4" type="line" smooth="yes"/>
      <point x="1704.2" y="1296.8"/>
      <point x="1725.8" y="1316.8"/>
      <point x="1725.8" y="1350.0" type="curve" smooth="yes"/>
      <point x="1725.8" y="1380.8"/>
      <point x="1712.6000000000001" y="1400.0"/>
      <point x="1663.3999999999999" y="1400.0" type="curve" smooth="yes"/>
      <point x="1267.3999999999999" y="1400.0" type="line" smooth="yes"/>
      <point x="1210.1999999999998" y="1400.0"/>
      <point x="1179.8" y="1378.8000000000002"/>
      <point x="1179.8000000000002" y="1341.6000000000001" type="curve" smooth="yes"/>
      <point x="1179.8" y="1313.2"/>
      <point x="1193.3999999999999" y="1298.4"/>
      <point x="1227.8000000000002" y="1286.0" type="curve" smooth="yes"/>
      <point x="1270.6000000000001" y="1273.2" type="line" smooth="yes"/>
      <point x="1311.4" y="1260.8000000000002"/>
      <point x="1316.6" y="1235.6"/>
      <point x="1306.2" y="1186.4" type="curve" smooth="yes"/>
      <point x="1271.0" y="1020.0"/>
      <point x="1084.6" y="353.6"/>
      <point x="1042.2" y="218.39999999999998" type="curve" smooth="yes"/>
      <point x="1025.0" y="164.8"/>
      <point x="1001.4" y="137.2"/>
      <point x="956.2" y="126.80000000000001" type="curve" smooth="yes"/>
      <point x="908.6" y="115.6" type="line" smooth="yes"/>
      <point x="874.1999999999999" y="105.6"/>
      <point x="852.6" y="83.2"/>
      <point x="853.8000000000001" y="52.4" type="curve" smooth="yes"/>
      <point x="853.8000000000001" y="20.400000000000002"/>
      <point x="867.0" y="0.0"/>
      <point x="917.4" y="0.0" type="curve" smooth="yes"/>
      <point x="1318.2" y="0.0" type="line" smooth="yes"/>
      <point x="1363.0" y="0.0"/>
      <point x="1393.8" y="22.4"/>
      <point x="1393.8" y="58.4" type="curve" smooth="yes"/>
      <point x="1393.8" y="86.0"/>
      <point x="1379.8" y="101.6"/>
      <point x="1347.0" y="114.0" type="curve" smooth="yes"/>
      <point x="1307.8000000000002" y="125.6" type="line" smooth="yes"/>
      <point x="1269.8" y="135.2"/>
      <point x="1259.8" y="158.0"/>
    </contour>
  </outline>
</glyph>
<glyph name="I" format="2">
  <advance width="758.4"/>
  <unicode hex="0049"/>
  <anchor x="666.4000000000001" y="1468.0" name="center"/>
  <outline>
    <contour>
      <point x="433.6" y="213.60000000000002" type="curve" smooth="yes"/>
      <point x="446.0" y="278.0"/>
      <point x="643.4000000000001" y="1009.0"/>
      <point x="701.1999999999999" y="1194.4" type="curve" smooth="yes"/>
      <point x="715.2" y="1241.2"/>
      <point x="734.0" y="1258.8"/>
      <point x="778.8000000000001" y="1270.8" type="curve" smooth="yes"/>
      <point x="828.8" y="1284.4" type="line" smooth="yes"/>
      <point x="866.8" y="1296.8"/>
      <point x="888.4" y="1316.8000000000002"/>
      <point x="888.4" y="1350.0" type="curve" smooth="yes"/>
      <point x="888.4" y="1380.8"/>
      <point x="875.1999999999999" y="1400.0"/>
      <point x="826.0" y="1400.0" type="curve" smooth="yes"/>
      <point x="430.0" y="1400.0" type="line" smooth="yes"/>
      <point x="372.8" y="1400.0"/>
      <point x="342.4" y="1378.8"/>
      <point x="342.40000000000003" y="1341.6000000000001" type="curve" smooth="yes"/>
      <point x="342.40000000000003" y="1313.2"/>
      <point x="356.0" y="1298.4"/>
      <point x="390.40000000000003" y="1286.0" type="curve" smooth="yes"/>
      <point x="433.20000000000005" y="1273.2" type="line" smooth="yes"/>
      <point x="474.0" y="1260.8"/>
      <point x="479.2" y="1235.6"/>
      <point x="468.8" y="1186.3999999999999" type="curve" smooth="yes"/>
      <point x="434.0" y="1019.4000000000001"/>
      <point x="247.20000000000002" y="353.6"/>
      <point x="204.79999999999998" y="218.4" type="curve" smooth="yes"/>
      <point x="187.6" y="164.8"/>
      <point x="164.0" y="137.2"/>
      <point x="118.8" y="126.8" type="curve" smooth="yes"/>
      <point x="71.2" y="115.60000000000001" type="line" smooth="yes"/>
      <point x="36.800000000000004" y="105.60000000000001"/>
      <point x="15.200000000000001" y="83.2"/>
      <point x="16.4" y="52.4" type="curve" smooth="yes"/>
      <point x="16.4" y="20.4"/>
      <point x="29.6" y="0.0"/>
      <point x="80.0" y="0.0" type="curve" smooth="yes"/>
      <point x="480.8" y="0.0" type="line" smooth="yes"/>
      <point x="525.6" y="0.0"/>
      <point x="556.4" y="22.400000000000002"/>
      <point x="556.4" y="58.4" type="curve" smooth="yes"/>
      <point x="556.4000000000001" y="86.0"/>
      <point x="542.4000000000001" y="101.60000000000001"/>
      <point x="509.59999999999997" y="114.0" type="curve" smooth="yes"/>
      <point x="470.40000000000003" y="125.60000000000001" type="line" smooth="yes"/>
      <point x="432.40000000000003" y="135.20000000000002"/>
      <point x="422.40000000000003" y="158.00000000000003"/>
    </contour>
  </outline>
</glyph>
<glyph name="J" format="2">
  <advance width="735.8000000000001"/>
  <unicode hex="004A"/>
  <anchor x="651.0" y="1468.0" name="center"/>
  <outline>
    <contour>
      <point x="681.4" y="1141.2" type="curve" smooth="yes"/>
      <point x="709.8" y="1237.6"/>
      <point x="725.8" y="1254.0"/>
      <point x="774.2" y="1270.2" type="curve" smooth="yes"/>
      <point x="820.6" y="1285.6" type="line" smooth="yes"/>
      <point x="850.1999999999999" y="1296.8"/>
      <point x="873.6" y="1316.8"/>
      <point x="873.6" y="1350.0" type="curve" smooth="yes"/>
      <point x="873.6" y="1380.2"/>
      <point x="859.8" y="1400.0"/>
      <point x="811.2" y="1400.0" type="curve" smooth="yes"/>
      <point x="408.0" y="1400.0" type="line" smooth="yes"/>
      <point x="352.8" y="1400.0"/>
      <point x="327.6" y="1376.6"/>
      <point x="327.6" y="1339.8" type="curve" smooth="yes"/>
      <point x="327.59999999999997" y="1313.2"/>
      <point x="341.8" y="1297.2"/>
      <point x="373.8" y="1286.0" type="curve" smooth="yes"/>
      <point x="426.2" y="1273.8" type="line" smooth="yes"/>
      <point x="471.6" y="1261.6"/>
      <point x="477.0" y="1242.8"/>
      <point x="462.40000000000003" y="1170.0" type="curve" smooth="yes"/>
      <point x="434.6" y="1037.8"/>
      <point x="209.8" y="237.6"/>
      <point x="196.6" y="189.39999999999998" type="curve" smooth="yes"/>
      <point x="162.4" y="67.0"/>
      <point x="229.20000000000002" y="-7.800000000000001"/>
      <point x="229.20000000000002" y="-76.0" type="curve" smooth="yes"/>
      <point x="229.20000000000002" y="-170.8"/>
      <point x="187.20000000000002" y="-206.8"/>
      <point x="134.2" y="-206.8" type="curve" smooth="yes"/>
      <point x="80.25079365079365" y="-206.8"/>
      <point x="16.514285714285712" y="-150.8"/>
      <point x="-46.199999999999996" y="-150.8" type="curve" smooth="yes"/>
      <point x="-115.0" y="-150.8"/>
      <point x="-155.0" y="-198.6"/>
      <point x="-155.0" y="-254.4" type="curve" smooth="yes"/>
      <point x="-155.0" y="-325.4"/>
      <point x="-100.93539518900343" y="-381.59999999999997"/>
      <point x="10.400000000000004" y="-381.59999999999997" type="curve" smooth="yes"/>
      <point x="185.4" y="-381.59999999999997"/>
      <point x="308.00000000000006" y="-275.8"/>
      <point x="360.00000000000006" y="-62.599999999999994" type="curve" smooth="yes"/>
      <point x="432.6" y="236.0"/>
      <point x="648.2" y="1031.6000000000001"/>
    </contour>
  </outline>
</glyph>
<glyph name="K" format="2">
  <advance width="1441.3999999999999"/>
  <unicode hex="004B"/>
  <anchor x="662.1999999999999" y="1487.0" name="center"/>
  <outline>
    <contour>
      <point x="417.0" y="207.20000000000002" type="curve" smooth="yes"/>
      <point x="429.20000000000005" y="272.0"/>
      <point x="631.6" y="1011.8"/>
      <point x="688.1999999999999" y="1197.2" type="curve" smooth="yes"/>
      <point x="701.8000000000001" y="1243.6"/>
      <point x="727.0" y="1265.2"/>
      <point x="767.0" y="1275.1999999999998" type="curve" smooth="yes"/>
      <point x="811.4" y="1286.3999999999999" type="line" smooth="yes"/>
      <point x="852.6" y="1301.6000000000001"/>
      <point x="874.2" y="1316.8000000000002"/>
      <point x="874.2" y="1350.8000000000002" type="curve" smooth="yes"/>
      <point x="874.2" y="1381.6000000000001"/>
      <point x="857.8000000000001" y="1400.0"/>
      <point x="816.2" y="1400.0" type="curve" smooth="yes"/>
      <point x="425.79999999999995" y="1400.0" type="line" smooth="yes"/>
      <point x="369.4" y="1400.0"/>
      <point x="338.59999999999997" y="1378.8000000000002"/>
      <point x="338.59999999999997" y="1342.0" type="curve" smooth="yes"/>
      <point x="338.59999999999997" y="1313.2"/>
      <point x="352.2" y="1298.4"/>
      <point x="386.59999999999997" y="1286.0" type="curve" smooth="yes"/>
      <point x="428.2" y="1274.0" type="line" smooth="yes"/>
      <point x="466.6" y="1263.2"/>
      <point x="475.0" y="1240.4"/>
      <point x="465.4" y="1193.6" type="curve" smooth="yes"/>
      <point x="431.0" y="1026.6"/>
      <point x="243.20000000000002" y="353.59999999999997"/>
      <point x="200.2" y="218.40000000000003" type="curve" smooth="yes"/>
      <point x="183.4" y="166.00000000000003"/>
      <point x="158.6" y="136.79999999999998"/>
      <point x="114.2" y="126.8" type="curve" smooth="yes"/>
      <point x="66.6" y="115.60000000000001" type="line" smooth="yes"/>
      <point x="32.2" y="105.6"/>
      <point x="10.600000000000001" y="83.60000000000001"/>
      <point x="11.8" y="52.4" type="curve" smooth="yes"/>
      <point x="11.8" y="20.400000000000002"/>
      <point x="25.0" y="0.0"/>
      <point x="75.4" y="0.0" type="curve" smooth="yes"/>
      <point x="467.0" y="0.0" type="line" smooth="yes"/>
      <point x="511.8" y="0.0"/>
      <point x="541.4000000000001" y="21.200000000000003"/>
      <point x="541.4000000000001" y="56.800000000000004" type="curve" smooth="yes"/>
      <point x="541.4" y="87.60000000000001"/>
      <point x="523.8000000000001" y="104.0"/>
      <point x="493.40000000000003" y="117.2" type="curve" smooth="yes"/>
      <point x="456.6" y="129.2" type="line" smooth="yes"/>
      <point x="419.8" y="139.6"/>
      <point x="408.2" y="161.20000000000002"/>
    </contour>
    <contour>
      <point x="698.0" y="738.8000000000001" type="line"/>
      <point x="944.2" y="118.60000000000001" type="line" smooth="yes"/>
      <point x="983.8000000000001" y="22.0"/>
      <point x="1030.4" y="-22.799999999999997"/>
      <point x="1123.8" y="-22.799999999999997" type="curve" smooth="yes"/>
      <point x="1223.3999999999999" y="-22.799999999999997"/>
      <point x="1308.2" y="37.0"/>
      <point x="1344.0" y="127.8" type="curve" smooth="yes"/>
      <point x="1361.6" y="171.79999999999998"/>
      <point x="1347.0" y="201.0"/>
      <point x="1325.0" y="208.2" type="curve" smooth="yes"/>
      <point x="1309.1999999999998" y="214.4"/>
      <point x="1287.6" y="208.0"/>
      <point x="1271.4" y="191.2" type="curve" smooth="yes"/>
      <point x="1254.6000000000001" y="172.79999999999998"/>
      <point x="1238.0" y="161.79999999999998"/>
      <point x="1214.4" y="161.79999999999998" type="curve" smooth="yes"/>
      <point x="1172.6000000000001" y="161.79999999999998"/>
      <point x="1152.2" y="193.60000000000002"/>
      <point x="1129.8" y="246.0" type="curve" smooth="yes"/>
      <point x="872.4" y="871.8" type="line"/>
    </contour>
    <contour>
      <point x="442.79999999999995" y="413.0" type="line"/>
      <point x="1166.4" y="1106.2" type="line" smooth="yes"/>
      <point x="1222.6" y="1160.8"/>
      <point x="1277.8000000000002" y="1193.0"/>
      <point x="1317.8000000000002" y="1193.0" type="curve" smooth="yes"/>
      <point x="1370.6" y="1193.0"/>
      <point x="1405.8" y="1164.2"/>
      <point x="1462.6" y="1164.2" type="curve" smooth="yes"/>
      <point x="1529.3999999999999" y="1164.2"/>
      <point x="1587.0" y="1202.0"/>
      <point x="1594.2" y="1283.6000000000001" type="curve" smooth="yes"/>
      <point x="1601.4" y="1361.8000000000002"/>
      <point x="1548.8" y="1421.6"/>
      <point x="1461.0" y="1421.6" type="curve" smooth="yes"/>
      <point x="1365.0" y="1421.6"/>
      <point x="1291.8" y="1377.6"/>
      <point x="1175.3999999999999" y="1263.8000000000002" type="curve" smooth="yes"/>
      <point x="416.59999999999997" y="526.8" type="line"/>
    </contour>
  </outline>
</glyph>
<glyph name="L" format="2">
  <advance width="1125.2"/>
  <unicode hex="004C"/>
  <anchor x="931.5704450041981" y="1236.0" name="right"/>
  <outline>
    <contour>
      <point x="655.8000000000001" y="0.0" type="line" smooth="yes"/>
      <point x="727.8" y="0.0"/>
      <point x="754.8000000000001" y="-30.000000000000004"/>
      <point x="800.2" y="-30.000000000000004" type="curve" smooth="yes"/>
      <point x="930.4" y="-30.000000000000004"/>
      <point x="1053.0" y="146.4"/>
      <point x="1053.0" y="330.0" type="curve" smooth="yes"/>
      <point x="1053.0" y="371.2063492063492"/>
      <point x="1038.0901098901097" y="396.8"/>
      <point x="1003.0" y="396.8" type="curve" smooth="yes"/>
      <point x="973.1353383458647" y="396.8"/>
      <point x="951.6" y="374.2"/>
      <point x="930.4" y="327.4" type="curve" smooth="yes"/>
      <point x="872.2" y="161.0"/>
      <point x="804.5999999999999" y="106.0"/>
      <point x="681.1999999999999" y="106.0" type="curve" smooth="yes"/>
      <point x="499.4" y="106.0" type="line" smooth="yes"/>
      <point x="444.20000000000005" y="106.0"/>
      <point x="414.20000000000005" y="133.6"/>
      <point x="429.40000000000003" y="209.20000000000002" type="curve" smooth="yes"/>
      <point x="455.6" y="337.59999999999997"/>
      <point x="633.0" y="975.4"/>
      <point x="696.6" y="1182.0" type="curve" smooth="yes"/>
      <point x="714.0" y="1238.2"/>
      <point x="731.8000000000001" y="1261.8"/>
      <point x="769.4" y="1270.2" type="curve" smooth="yes"/>
      <point x="828.6" y="1283.0" type="line" smooth="yes"/>
      <point x="859.0" y="1292.4"/>
      <point x="885.0" y="1314.2"/>
      <point x="885.0" y="1346.3999999999999" type="curve" smooth="yes"/>
      <point x="885.0" y="1378.0"/>
      <point x="869.2" y="1400.0"/>
      <point x="821.4" y="1400.0" type="curve" smooth="yes"/>
      <point x="412.4" y="1400.0" type="line"/>
      <point x="365.2" y="1400.0"/>
      <point x="338.40000000000003" y="1376.6000000000001"/>
      <point x="338.40000000000003" y="1341.6" type="curve" smooth="yes"/>
      <point x="338.40000000000003" y="1311.8000000000002"/>
      <point x="356.40000000000003" y="1297.8"/>
      <point x="385.8" y="1286.6000000000001" type="curve" smooth="yes"/>
      <point x="439.40000000000003" y="1270.2" type="line" smooth="yes"/>
      <point x="463.79999999999995" y="1262.2"/>
      <point x="475.40000000000003" y="1238.2"/>
      <point x="468.8" y="1206.4" type="curve" smooth="yes"/>
      <point x="438.6" y="1060.3999999999999"/>
      <point x="260.0" y="416.2"/>
      <point x="208.20000000000002" y="237.6" type="curve" smooth="yes"/>
      <point x="188.6" y="171.0"/>
      <point x="167.6" y="141.60000000000002"/>
      <point x="120.19999999999999" y="129.2" type="curve" smooth="yes"/>
      <point x="76.19999999999999" y="117.4" type="line" smooth="yes"/>
      <point x="41.4" y="106.00000000000001"/>
      <point x="17.200000000000003" y="85.8"/>
      <point x="16.6" y="54.800000000000004" type="curve" smooth="yes"/>
      <point x="13.000000000000002" y="22.8"/>
      <point x="30.4" y="0.0"/>
      <point x="80.2" y="0.0" type="curve"/>
    </contour>
  </outline>
</glyph>
<glyph name="M" format="2">
  <advance width="1714.8"/>
  <unicode hex="004D"/>
  <anchor x="743.8" y="1444.0" name="center"/>
  <outline>
    <contour>
      <point x="888.0" y="354.0" type="line"/>
      <point x="823.6" y="653.0"/>
      <point x="772.0" y="986.2"/>
      <point x="721.2" y="1262.0" type="curve" smooth="yes"/>
      <point x="703.6" y="1358.3999999999999"/>
      <point x="664.0" y="1400.0"/>
      <point x="602.8000000000001" y="1400.0" type="curve" smooth="yes"/>
      <point x="415.2" y="1400.0" type="line" smooth="yes"/>
      <point x="371.6" y="1400.0"/>
      <point x="344.4" y="1379.2"/>
      <point x="342.0" y="1342.0" type="curve" smooth="yes"/>
      <point x="339.59999999999997" y="1313.2"/>
      <point x="354.4" y="1297.8"/>
      <point x="380.40000000000003" y="1286.0" type="curve" smooth="yes"/>
      <point x="437.59999999999997" y="1267.1999999999998" type="line" smooth="yes"/>
      <point x="473.6" y="1254.0"/>
      <point x="485.40000000000003" y="1215.6000000000001"/>
      <point x="466.8" y="1152.8" type="curve" smooth="yes"/>
      <point x="206.8" y="288.0" type="line" smooth="yes"/>
      <point x="175.0" y="177.20000000000002"/>
      <point x="159.20000000000002" y="154.39999999999998"/>
      <point x="111.19999999999999" y="140.0" type="curve" smooth="yes"/>
      <point x="60.0" y="125.2" type="line" smooth="yes"/>
      <point x="23.199999999999996" y="112.8"/>
      <point x="1.6000000000000014" y="94.0"/>
      <point x="-0.7999999999999989" y="58.4" type="curve" smooth="yes"/>
      <point x="-3.200000000000001" y="25.2"/>
      <point x="13.600000000000001" y="0.0"/>
      <point x="64.0" y="0.0" type="curve" smooth="yes"/>
      <point x="354.79999999999995" y="0.0" type="line" smooth="yes"/>
      <point x="404.40000000000003" y="0.0"/>
      <point x="434.0" y="23.6"/>
      <point x="437.59999999999997" y="63.2" type="curve" smooth="yes"/>
      <point x="440.0" y="87.2"/>
      <point x="426.0" y="103.2"/>
      <point x="399.2" y="116.4" type="curve" smooth="yes"/>
      <point x="337.2" y="137.6" type="line" smooth="yes"/>
      <point x="304.79999999999995" y="150.0"/>
      <point x="298.59999999999997" y="177.60000000000002"/>
      <point x="311.59999999999997" y="221.60000000000002" type="curve" smooth="yes"/>
      <point x="586.4" y="1133.2" type="line"/>
      <point x="537.1999999999999" y="1124.8" type="line"/>
      <point x="592.8000000000001" y="861.0"/>
      <point x="642.0" y="539.0"/>
      <point x="694.8000000000001" y="252.0" type="curve" smooth="yes"/>
      <point x="706.0" y="195.6"/>
      <point x="734.8000000000001" y="162.4"/>
      <point x="772.0" y="162.4" type="curve" smooth="yes"/>
      <point x="818.0" y="162.4"/>
      <point x="843.6" y="182.79999999999998"/>
      <point x="888.0" y="253.2" type="curve" smooth="yes"/>
      <point x="1441.2" y="1123.2" type="line"/>
      <point x="1410.0" y="1133.2" type="line"/>
      <point x="1374.0" y="897.0"/>
      <point x="1272.0" y="368.2"/>
      <point x="1245.2" y="228.00000000000003" type="curve" smooth="yes"/>
      <point x="1234.3999999999999" y="168.39999999999998"/>
      <point x="1208.0" y="145.6"/>
      <point x="1168.8" y="132.8" type="curve" smooth="yes"/>
      <point x="1115.2" y="116.8" type="line" smooth="yes"/>
      <point x="1088.8000000000002" y="106.4"/>
      <point x="1065.2" y="90.0"/>
      <point x="1062.8" y="57.2" type="curve" smooth="yes"/>
      <point x="1061.6" y="23.2"/>
      <point x="1076.3999999999999" y="0.0"/>
      <point x="1124.4" y="0.0" type="curve" smooth="yes"/>
      <point x="1514.3999999999999" y="0.0" type="line" smooth="yes"/>
      <point x="1560.3999999999999" y="0.0"/>
      <point x="1585.2" y="21.200000000000003"/>
      <point x="1587.6000000000001" y="59.6" type="curve" smooth="yes"/>
      <point x="1590.0" y="88.4"/>
      <point x="1574.4" y="102.00000000000001"/>
      <point x="1548.0" y="114.0" type="curve" smooth="yes"/>
      <point x="1498.0" y="131.6" type="line" smooth="yes"/>
      <point x="1463.2" y="145.2"/>
      <point x="1452.4" y="172.40000000000003"/>
      <point x="1460.8000000000002" y="223.60000000000002" type="curve" smooth="yes"/>
      <point x="1482.8" y="370.40000000000003"/>
      <point x="1600.0" y="980.2"/>
      <point x="1636.3999999999999" y="1184.3999999999999" type="curve" smooth="yes"/>
      <point x="1645.2" y="1233.6"/>
      <point x="1667.2" y="1262.2"/>
      <point x="1702.4" y="1270.8" type="curve" smooth="yes"/>
      <point x="1743.6" y="1281.2" type="line" smooth="yes"/>
      <point x="1772.8" y="1290.2"/>
      <point x="1798.0" y="1307.2"/>
      <point x="1800.4" y="1346.3999999999999" type="curve" smooth="yes"/>
      <point x="1801.6" y="1380.3999999999999"/>
      <point x="1786.8" y="1400.0"/>
      <point x="1740.4" y="1400.0" type="curve" smooth="yes"/>
      <point x="1552.4" y="1400.0" type="line" smooth="yes"/>
      <point x="1512.0" y="1400.0"/>
      <point x="1460.1999999999998" y="1373.1999999999998"/>
      <point x="1420.8" y="1309.6" type="curve" smooth="yes"/>
      <point x="795.5999999999999" y="314.4" type="line"/>
    </contour>
  </outline>
</glyph>
<glyph name="N" format="2">
  <advance width="1456.2"/>
  <unicode hex="004E"/>
  <anchor x="1020.0" y="1497.0" name="center"/>
  <outline>
    <contour>
      <point x="344.8" y="265.6" type="line" smooth="yes"/>
      <point x="327.59999999999997" y="202.8"/>
      <point x="337.59999999999997" y="149.20000000000002"/>
      <point x="406.0" y="124.0" type="curve" smooth="yes"/>
      <point x="439.6" y="113.6" type="line" smooth="yes"/>
      <point x="465.6" y="103.60000000000001"/>
      <point x="482.0" y="82.4"/>
      <point x="482.0" y="55.2" type="curve" smooth="yes"/>
      <point x="482.0" y="18.0"/>
      <point x="456.79999999999995" y="0.0"/>
      <point x="419.59999999999997" y="0.0" type="curve" smooth="yes"/>
      <point x="74.80000000000001" y="0.0" type="line" smooth="yes"/>
      <point x="30.799999999999997" y="0.0"/>
      <point x="11.2" y="22.8"/>
      <point x="11.2" y="56.0" type="curve" smooth="yes"/>
      <point x="11.2" y="81.60000000000001"/>
      <point x="30.000000000000004" y="106.8"/>
      <point x="64.4" y="118.8" type="curve" smooth="yes"/>
      <point x="109.6" y="132.8" type="line" smooth="yes"/>
      <point x="162.79999999999998" y="147.20000000000002"/>
      <point x="202.39999999999998" y="201.20000000000002"/>
      <point x="222.4" y="273.2" type="curve" smooth="yes"/>
      <point x="431.2" y="1014.8" type="line" smooth="yes"/>
      <point x="448.79999999999995" y="1078.0"/>
      <point x="444.40000000000003" y="1144.8000000000002"/>
      <point x="413.20000000000005" y="1186.4" type="curve" smooth="yes"/>
      <point x="353.59999999999997" y="1280.0" type="line" smooth="yes"/>
      <point x="312.4" y="1331.6000000000001"/>
      <point x="328.8" y="1400.0"/>
      <point x="396.0" y="1400.0" type="curve" smooth="yes"/>
      <point x="512.8" y="1400.0" type="line" smooth="yes"/>
      <point x="580.0" y="1400.0"/>
      <point x="605.6" y="1362.8"/>
      <point x="639.1999999999999" y="1296.0" type="curve" smooth="yes"/>
      <point x="736.8" y="1102.4"/>
      <point x="1020.0" y="490.79999999999995"/>
      <point x="1134.0" y="272.8" type="curve"/>
      <point x="1026.8" y="227.60000000000002" type="line"/>
      <point x="1257.0" y="1130.4" type="line" smooth="yes"/>
      <point x="1309.0" y="1334.0"/>
      <point x="1404.2" y="1435.2"/>
      <point x="1517.8" y="1435.2" type="curve" smooth="yes"/>
      <point x="1578.6" y="1435.2"/>
      <point x="1623.8" y="1397.6000000000001"/>
      <point x="1623.0" y="1332.0" type="curve" smooth="yes"/>
      <point x="1622.2" y="1268.0"/>
      <point x="1585.0" y="1223.2"/>
      <point x="1509.8" y="1188.8000000000002" type="curve" smooth="yes"/>
      <point x="1418.2" y="1149.2"/>
      <point x="1367.0" y="1087.6"/>
      <point x="1334.2" y="960.0" type="curve" smooth="yes"/>
      <point x="1178.0" y="340.40000000000003" type="line" smooth="yes"/>
      <point x="1166.0" y="294.0"/>
      <point x="1164.8" y="264.0"/>
      <point x="1182.4" y="219.2" type="curve" smooth="yes"/>
      <point x="1224.8" y="112.00000000000001" type="line" smooth="yes"/>
      <point x="1249.6000000000001" y="50.0"/>
      <point x="1223.2" y="0.0"/>
      <point x="1166.4" y="0.0" type="curve" smooth="yes"/>
      <point x="1006.0" y="0.0" type="line" smooth="yes"/>
      <point x="954.8" y="0.0"/>
      <point x="926.0" y="37.2"/>
      <point x="926.4" y="98.4" type="curve" smooth="yes"/>
      <point x="927.2" y="155.6"/>
      <point x="918.0" y="200.0"/>
      <point x="889.2" y="260.4" type="curve" smooth="yes"/>
      <point x="824.0" y="401.6"/>
      <point x="616.0" y="843.6"/>
      <point x="482.0" y="1110.8" type="curve"/>
      <point x="585.2" y="1126.0" type="line"/>
    </contour>
  </outline>
</glyph>
<glyph name="O" format="2">
  <advance width="1553.6"/>
  <unicode hex="004F"/>
  <anchor x="1056.6" y="1546.0" name="center"/>
  <outline>
    <contour>
      <point x="1038.4" y="1427.6000000000001" type="curve" smooth="yes"/>
      <point x="652.2" y="1447.8"/>
      <point x="288.20000000000005" y="1168.3999999999999"/>
      <point x="178.0" y="767.0" type="curve" smooth="yes"/>
      <point x="54.2" y="318.8"/>
      <point x="260.0" y="-8.0"/>
      <point x="626.5999999999999" y="-28.799999999999997" type="curve" smooth="yes"/>
      <point x="1029.6" y="-53.199999999999996"/>
      <point x="1398.0" y="197.4"/>
      <point x="1513.6000000000001" y="675.6" type="curve" smooth="yes"/>
      <point x="1614.6000000000001" y="1090.6"/>
      <point x="1405.2" y="1408.4"/>
    </contour>
    <contour>
      <point x="668.2" y="86.60000000000001" type="curve" smooth="yes"/>
      <point x="504.2" y="99.6"/>
      <point x="389.0" y="214.79999999999998"/>
      <point x="388.2" y="446.4" type="curve" smooth="yes"/>
      <point x="388.0" y="531.0"/>
      <point x="401.6" y="633.8000000000001"/>
      <point x="433.4" y="757.8000000000001" type="curve" smooth="yes"/>
      <point x="528.0" y="1132.2"/>
      <point x="779.0" y="1333.0"/>
      <point x="1006.6" y="1310.8" type="curve" smooth="yes"/>
      <point x="1167.2" y="1295.6000000000001"/>
      <point x="1293.0" y="1167.8"/>
      <point x="1295.0" y="947.4000000000001" type="curve" smooth="yes"/>
      <point x="1295.8000000000002" y="874.4"/>
      <point x="1284.2" y="787.4000000000001"/>
      <point x="1256.8" y="684.4000000000001" type="curve" smooth="yes"/>
      <point x="1138.0" y="245.59999999999997"/>
      <point x="894.8" y="69.2"/>
    </contour>
  </outline>
</glyph>
<glyph name="P" format="2">
  <advance width="1320.0"/>
  <unicode hex="0050"/>
  <outline>
    <contour>
      <point x="1359.2" y="879.1999999999999" type="curve" smooth="yes"/>
      <point x="1419.2" y="1170.2"/>
      <point x="1222.3999999999999" y="1400.0"/>
      <point x="877.2" y="1400.0" type="curve" smooth="yes"/>
      <point x="417.6" y="1400.0" type="line" smooth="yes"/>
      <point x="368.8" y="1400.0"/>
      <point x="342.0" y="1377.6"/>
      <point x="342.0" y="1339.1999999999998" type="curve" smooth="yes"/>
      <point x="342.0" y="1311.6000000000001"/>
      <point x="357.20000000000005" y="1297.2"/>
      <point x="385.8" y="1286.0" type="curve" smooth="yes"/>
      <point x="434.6" y="1272.0" type="line" smooth="yes"/>
      <point x="461.6" y="1264.0"/>
      <point x="475.2" y="1240.2"/>
      <point x="468.59999999999997" y="1204.1999999999998" type="curve" smooth="yes"/>
      <point x="439.0" y="1055.0"/>
      <point x="257.2" y="402.8"/>
      <point x="199.4" y="213.6" type="curve" smooth="yes"/>
      <point x="182.0" y="157.20000000000002"/>
      <point x="160.4" y="135.20000000000002"/>
      <point x="111.2" y="125.6" type="curve" smooth="yes"/>
      <point x="74.4" y="116.8" type="line" smooth="yes"/>
      <point x="38.199999999999996" y="107.4"/>
      <point x="14.2" y="86.2"/>
      <point x="14.200000000000001" y="53.4" type="curve" smooth="yes"/>
      <point x="14.2" y="20.8"/>
      <point x="29.0" y="0.0"/>
      <point x="74.8" y="0.0" type="curve" smooth="yes"/>
      <point x="498.00000000000006" y="0.0" type="line" smooth="yes"/>
      <point x="542.8000000000001" y="0.0"/>
      <point x="568.8" y="26.0"/>
      <point x="568.8" y="61.6" type="curve" smooth="yes"/>
      <point x="568.8" y="86.4"/>
      <point x="555.1999999999999" y="106.6"/>
      <point x="522.0" y="114.0" type="curve" smooth="yes"/>
      <point x="463.40000000000003" y="126.8" type="line" smooth="yes"/>
      <point x="433.0" y="133.20000000000002"/>
      <point x="419.20000000000005" y="159.6"/>
      <point x="434.79999999999995" y="227.6" type="curve" smooth="yes"/>
      <point x="477.40000000000003" y="408.19999999999993"/>
      <point x="674.0" y="1113.0"/>
      <point x="686.0" y="1161.0" type="curve" smooth="yes"/>
      <point x="710.8000000000001" y="1250.0"/>
      <point x="752.0" y="1286.6"/>
      <point x="837.2" y="1286.6" type="curve" smooth="yes"/>
      <point x="1048.4" y="1286.6"/>
      <point x="1169.0" y="1140.8000000000002"/>
      <point x="1129.4" y="899.6" type="curve" smooth="yes"/>
      <point x="1092.8" y="674.1999999999999"/>
      <point x="945.8000000000001" y="558.0"/>
      <point x="733.1999999999999" y="558.0" type="curve" smooth="yes"/>
      <point x="638.1999999999999" y="558.0"/>
      <point x="546.0" y="589.1999999999999"/>
      <point x="481.0" y="636.4" type="curve"/>
      <point x="436.4" y="530.4000000000001" type="line"/>
      <point x="533.4" y="480.2"/>
      <point x="622.8" y="449.4"/>
      <point x="777.5999999999999" y="449.4" type="curve" smooth="yes"/>
      <point x="1066.6000000000001" y="449.4"/>
      <point x="1302.6" y="605.2"/>
    </contour>
  </outline>
</glyph>
<glyph name="Q" format="2">
  <advance width="1553.2"/>
  <unicode hex="0051"/>
  <outline>
    <contour>
      <point x="702.0" y="372.0" type="curve" smooth="yes"/>
      <point x="579.8" y="-93.8"/>
      <point x="717.4" y="-333.2"/>
      <point x="964.4" y="-357.40000000000003" type="curve" smooth="yes"/>
      <point x="1097.2" y="-370.4"/>
      <point x="1145.8" y="-339.0"/>
      <point x="1173.2" y="-296.8" type="curve" smooth="yes"/>
      <point x="1233.6000000000001" y="-204.4" type="line" smooth="yes"/>
      <point x="1248.2" y="-182.6"/>
      <point x="1238.6" y="-158.0"/>
      <point x="1224.3999999999999" y="-154.6" type="curve" smooth="yes"/>
      <point x="1200.8" y="-149.6"/>
      <point x="1147.6" y="-212.39999999999998"/>
      <point x="988.8" y="-186.99999999999997" type="curve" smooth="yes"/>
      <point x="793.4000000000001" y="-155.79999999999998"/>
      <point x="684.0" y="-8.399999999999999"/>
      <point x="773.8000000000001" y="358.0" type="curve" smooth="yes"/>
      <point x="782.4000000000001" y="393.6"/>
      <point x="777.5999999999999" y="418.0"/>
      <point x="751.1999999999999" y="422.6" type="curve" smooth="yes"/>
      <point x="723.6" y="427.8"/>
      <point x="709.6" y="401.0"/>
    </contour>
    <contour>
      <point x="1038.4" y="1427.6000000000001" type="curve" smooth="yes"/>
      <point x="652.2" y="1447.8"/>
      <point x="288.2" y="1168.4"/>
      <point x="178.0" y="767.0" type="curve" smooth="yes"/>
      <point x="54.2" y="318.8"/>
      <point x="260.0" y="-8.000000000000004"/>
      <point x="626.6" y="-28.8" type="curve" smooth="yes"/>
      <point x="1029.6" y="-53.2"/>
      <point x="1398.0" y="197.39999999999998"/>
      <point x="1513.6" y="675.6" type="curve" smooth="yes"/>
      <point x="1614.6" y="1090.6"/>
      <point x="1405.2" y="1408.4"/>
    </contour>
    <contour>
      <point x="668.1999999999999" y="86.60000000000001" type="curve" smooth="yes"/>
      <point x="504.2" y="99.60000000000001"/>
      <point x="389.0" y="214.79999999999998"/>
      <point x="388.2" y="446.4" type="curve" smooth="yes"/>
      <point x="388.0" y="531.0"/>
      <point x="401.59999999999997" y="633.8"/>
      <point x="433.4" y="757.8000000000001" type="curve" smooth="yes"/>
      <point x="528.0" y="1132.2"/>
      <point x="779.0" y="1333.0"/>
      <point x="1006.6" y="1310.8" type="curve" smooth="yes"/>
      <point x="1167.2" y="1295.6000000000001"/>
      <point x="1293.0" y="1167.8"/>
      <point x="1295.0" y="947.4" type="curve" smooth="yes"/>
      <point x="1295.8" y="874.4"/>
      <point x="1284.2" y="787.4000000000001"/>
      <point x="1256.8" y="684.4000000000001" type="curve" smooth="yes"/>
      <point x="1138.0" y="245.60000000000002"/>
      <point x="894.8000000000001" y="69.2"/>
    </contour>
  </outline>
</glyph>
<glyph name="R" format="2">
  <advance width="1388.4"/>
  <unicode hex="0052"/>
  <anchor x="935.1999999999999" y="1485.0" name="center"/>
  <outline>
    <contour>
      <point x="413.2" y="594.0" type="line"/>
      <point x="499.2" y="543.2"/>
      <point x="608.8" y="511.4"/>
      <point x="748.0" y="514.8000000000001" type="curve" smooth="yes"/>
      <point x="1072.2" y="521.6"/>
      <point x="1303.8" y="666.6"/>
      <point x="1355.4" y="903.4" type="curve" smooth="yes"/>
      <point x="1421.2" y="1206.6000000000001"/>
      <point x="1218.6000000000001" y="1400.0"/>
      <point x="881.6" y="1400.0" type="curve" smooth="yes"/>
      <point x="413.2" y="1400.0" type="line" smooth="yes"/>
      <point x="366.40000000000003" y="1400.0"/>
      <point x="340.4" y="1376.4"/>
      <point x="340.40000000000003" y="1339.6" type="curve" smooth="yes"/>
      <point x="340.4" y="1313.6"/>
      <point x="352.8" y="1297.6"/>
      <point x="384.8" y="1286.0" type="curve" smooth="yes"/>
      <point x="428.8" y="1274.0" type="line" smooth="yes"/>
      <point x="472.40000000000003" y="1259.2"/>
      <point x="472.4" y="1236.8000000000002"/>
      <point x="461.20000000000005" y="1177.6000000000001" type="curve" smooth="yes"/>
      <point x="436.4" y="1051.2"/>
      <point x="235.6" y="326.8"/>
      <point x="199.20000000000002" y="214.79999999999998" type="curve" smooth="yes"/>
      <point x="180.79999999999998" y="158.0"/>
      <point x="154.0" y="134.8"/>
      <point x="108.8" y="125.6" type="curve" smooth="yes"/>
      <point x="70.8" y="116.8" type="line" smooth="yes"/>
      <point x="34.0" y="106.8"/>
      <point x="12.400000000000002" y="86.00000000000001"/>
      <point x="12.4" y="52.400000000000006" type="curve" smooth="yes"/>
      <point x="12.4" y="21.2"/>
      <point x="26.0" y="0.0"/>
      <point x="71.20000000000002" y="0.0" type="curve" smooth="yes"/>
      <point x="471.20000000000005" y="0.0" type="line" smooth="yes"/>
      <point x="517.6" y="0.0"/>
      <point x="544.4" y="22.8"/>
      <point x="544.4" y="59.2" type="curve" smooth="yes"/>
      <point x="544.4" y="88.00000000000001"/>
      <point x="527.2" y="102.8"/>
      <point x="496.4" y="117.2" type="curve" smooth="yes"/>
      <point x="453.6" y="130.4" type="line" smooth="yes"/>
      <point x="427.2" y="140.8"/>
      <point x="408.8" y="158.39999999999998"/>
      <point x="422.0" y="217.2" type="curve" smooth="yes"/>
      <point x="451.2" y="349.6"/>
      <point x="648.4" y="1051.6000000000001"/>
      <point x="684.8000000000001" y="1183.2" type="curve" smooth="yes"/>
      <point x="705.5999999999999" y="1255.6"/>
      <point x="737.1999999999999" y="1294.0"/>
      <point x="852.0" y="1294.0" type="curve" smooth="yes"/>
      <point x="1042.2" y="1294.0"/>
      <point x="1176.4" y="1168.0"/>
      <point x="1130.8000000000002" y="937.8" type="curve" smooth="yes"/>
      <point x="1094.4" y="747.0"/>
      <point x="953.0" y="618.0"/>
      <point x="727.2" y="618.0" type="curve" smooth="yes"/>
      <point x="625.2" y="618.0"/>
      <point x="544.0" y="647.2"/>
      <point x="492.4" y="681.6" type="curve"/>
    </contour>
    <contour>
      <point x="741.4" y="540.4" type="line"/>
      <point x="851.0" y="151.79999999999998" type="line" smooth="yes"/>
      <point x="889.0" y="15.8"/>
      <point x="948.6" y="-22.799999999999997"/>
      <point x="1034.6" y="-22.799999999999997" type="curve" smooth="yes"/>
      <point x="1145.0" y="-22.799999999999997"/>
      <point x="1234.3999999999999" y="35.400000000000006"/>
      <point x="1273.2" y="129.2" type="curve" smooth="yes"/>
      <point x="1289.2" y="166.8"/>
      <point x="1280.6" y="199.2"/>
      <point x="1256.2" y="209.6" type="curve" smooth="yes"/>
      <point x="1239.2" y="217.4"/>
      <point x="1217.2" y="209.4"/>
      <point x="1205.3999999999999" y="195.8" type="curve" smooth="yes"/>
      <point x="1186.2" y="175.20000000000002"/>
      <point x="1163.8" y="161.8"/>
      <point x="1136.3999999999999" y="161.8" type="curve" smooth="yes"/>
      <point x="1097.6" y="161.8"/>
      <point x="1070.0" y="188.2"/>
      <point x="1044.6" y="272.6" type="curve" smooth="yes"/>
      <point x="952.0" y="576.4" type="line"/>
    </contour>
  </outline>
</glyph>
<glyph name="S" format="2">
  <advance width="1162.4"/>
  <unicode hex="0053"/>
  <anchor x="857.0" y="1528.0" name="center"/>
  <outline>
    <contour>
      <point x="559.8" y="-24.0" type="curve" smooth="yes"/>
      <point x="815.4" y="-24.0"/>
      <point x="993.4" y="122.6"/>
      <point x="1015.0" y="331.2" type="curve" smooth="yes"/>
      <point x="1033.3999999999999" y="507.0"/>
      <point x="971.8" y="622.4"/>
      <point x="736.6" y="769.2" type="curve" smooth="yes"/>
      <point x="559.6" y="882.0"/>
      <point x="497.19999999999993" y="975.8000000000001"/>
      <point x="518.0" y="1105.6" type="curve" smooth="yes"/>
      <point x="536.8000000000001" y="1222.6"/>
      <point x="640.4" y="1314.0"/>
      <point x="809.0" y="1314.0" type="curve" smooth="yes"/>
      <point x="925.4" y="1314.0"/>
      <point x="1007.8" y="1256.2"/>
      <point x="1038.6" y="1152.8" type="curve" smooth="yes"/>
      <point x="1055.0" y="1101.6" type="line" smooth="yes"/>
      <point x="1076.2" y="1042.8"/>
      <point x="1106.2" y="1016.8000000000001"/>
      <point x="1158.6" y="1016.8000000000001" type="curve" smooth="yes"/>
      <point x="1215.0" y="1016.8000000000001"/>
      <point x="1249.0" y="1066.0"/>
      <point x="1250.1999999999998" y="1123.2" type="curve" smooth="yes"/>
      <point x="1253.4" y="1274.0"/>
      <point x="1098.0" y="1426.0"/>
      <point x="824.6" y="1426.0" type="curve" smooth="yes"/>
      <point x="504.80000000000007" y="1426.0"/>
      <point x="332.0" y="1245.0"/>
      <point x="305.8" y="1042.4" type="curve" smooth="yes"/>
      <point x="281.0" y="853.0"/>
      <point x="369.2" y="731.0"/>
      <point x="569.8" y="609.2" type="curve" smooth="yes"/>
      <point x="753.0" y="497.59999999999997"/>
      <point x="802.4000000000001" y="408.8"/>
      <point x="781.4000000000001" y="289.6" type="curve" smooth="yes"/>
      <point x="759.6" y="164.20000000000002"/>
      <point x="663.4" y="93.6"/>
      <point x="517.0" y="93.6" type="curve" smooth="yes"/>
      <point x="364.6" y="93.6"/>
      <point x="248.8" y="175.60000000000002"/>
      <point x="234.6" y="318.4" type="curve" smooth="yes"/>
      <point x="223.79999999999998" y="372.4" type="line" smooth="yes"/>
      <point x="208.4" y="423.2"/>
      <point x="187.73986928104574" y="452.40000000000003"/>
      <point x="153.79999999999998" y="452.40000000000003" type="curve" smooth="yes"/>
      <point x="118.44122137404581" y="452.40000000000003"/>
      <point x="93.028085377683" y="422.802701501445"/>
      <point x="89.0" y="367.20000000000005" type="curve" smooth="yes"/>
      <point x="57.8" y="54.8" type="line" smooth="yes"/>
      <point x="53.800000000000004" y="0.40000000000000036"/>
      <point x="75.4" y="-23.2"/>
      <point x="116.6" y="-23.2" type="curve" smooth="yes"/>
      <point x="166.6" y="-23.2"/>
      <point x="197.8" y="72.4"/>
      <point x="230.20000000000002" y="72.4" type="curve" smooth="yes"/>
      <point x="266.8" y="72.4"/>
      <point x="326.8" y="-24.0"/>
    </contour>
  </outline>
</glyph>
<glyph name="T" format="2">
  <advance width="1181.0"/>
  <unicode hex="0054"/>
  <anchor x="435.4" y="1516.0" name="center"/>
  <outline>
    <contour>
      <point x="533.0" y="1423.2" type="curve" smooth="yes"/>
      <point x="319.4" y="1423.2"/>
      <point x="207.8" y="1310.8"/>
      <point x="206.20000000000002" y="1158.0" type="curve" smooth="yes"/>
      <point x="205.0" y="1075.2"/>
      <point x="250.20000000000002" y="1028.0"/>
      <point x="317.0" y="1028.0" type="curve" smooth="yes"/>
      <point x="374.59999999999997" y="1028.0"/>
      <point x="413.0" y="1070.0"/>
      <point x="413.0" y="1116.4" type="curve" smooth="yes"/>
      <point x="413.0" y="1152.3999999999999"/>
      <point x="393.0" y="1176.4"/>
      <point x="393.4" y="1201.6000000000001" type="curve" smooth="yes"/>
      <point x="393.8" y="1269.1999999999998"/>
      <point x="434.59999999999997" y="1310.8"/>
      <point x="552.2" y="1310.8" type="curve" smooth="yes"/>
      <point x="706.5999999999999" y="1310.8"/>
      <point x="1043.8" y="1195.2"/>
      <point x="1190.6" y="1195.2" type="curve" smooth="yes"/>
      <point x="1332.3999999999999" y="1195.2"/>
      <point x="1417.8" y="1273.8"/>
      <point x="1419.0" y="1392.4" type="curve" smooth="yes"/>
      <point x="1419.8000000000002" y="1470.0"/>
      <point x="1382.2" y="1507.2"/>
      <point x="1326.2" y="1507.2" type="curve" smooth="yes"/>
      <point x="1272.6" y="1507.2"/>
      <point x="1245.2" y="1477.3999999999999"/>
      <point x="1230.2" y="1426.0" type="curve" smooth="yes"/>
      <point x="1226.3999999999999" y="1413.2"/>
      <point x="1224.2" y="1398.6000000000001"/>
      <point x="1215.6" y="1377.3999999999999" type="curve" smooth="yes"/>
      <point x="1203.6000000000001" y="1347.3999999999999"/>
      <point x="1178.2" y="1330.4"/>
      <point x="1129.0" y="1330.4" type="curve" smooth="yes"/>
      <point x="1012.6" y="1330.4"/>
      <point x="730.2" y="1423.2"/>
    </contour>
    <contour>
      <point x="652.4" y="191.60000000000002" type="curve" smooth="yes"/>
      <point x="688.8" y="332.0"/>
      <point x="874.8" y="1005.8"/>
      <point x="966.0" y="1314.3999999999999" type="curve"/>
      <point x="755.6" y="1352.8" type="line"/>
      <point x="701.6" y="1165.8"/>
      <point x="483.221858392473" y="384.8713085262643"/>
      <point x="432.40000000000003" y="218.8" type="curve" smooth="yes"/>
      <point x="416.0" y="162.8"/>
      <point x="393.2" y="140.8"/>
      <point x="359.6" y="132.8" type="curve" smooth="yes"/>
      <point x="300.40000000000003" y="117.60000000000001" type="line" smooth="yes"/>
      <point x="263.20000000000005" y="104.39999999999999"/>
      <point x="240.4" y="86.4"/>
      <point x="239.20000000000002" y="52.8" type="curve" smooth="yes"/>
      <point x="238.0" y="22.4"/>
      <point x="257.2" y="0.0"/>
      <point x="301.59999999999997" y="0.0" type="curve" smooth="yes"/>
      <point x="708.4" y="0.0" type="line" smooth="yes"/>
      <point x="754.8000000000001" y="0.0"/>
      <point x="785.2" y="18.0"/>
      <point x="788.8" y="57.2" type="curve" smooth="yes"/>
      <point x="792.4" y="84.0"/>
      <point x="777.6" y="99.2"/>
      <point x="749.1999999999999" y="112.0" type="curve" smooth="yes"/>
      <point x="685.2" y="129.6" type="line" smooth="yes"/>
      <point x="657.2" y="137.20000000000002"/>
      <point x="642.8" y="153.6"/>
    </contour>
  </outline>
</glyph>
<glyph name="U" format="2">
  <advance width="1445.6"/>
  <unicode hex="0055"/>
  <anchor x="1023.0" y="1479.0" name="center"/>
  <outline>
    <contour>
      <point x="1064.0" y="428.4" type="line" smooth="yes"/>
      <point x="996.1999999999999" y="195.4"/>
      <point x="871.5999999999999" y="101.6"/>
      <point x="700.4" y="101.6" type="curve" smooth="yes"/>
      <point x="544.2" y="101.6"/>
      <point x="451.6" y="185.20000000000002"/>
      <point x="452.40000000000003" y="346.8" type="curve" smooth="yes"/>
      <point x="452.80000000000007" y="415.8"/>
      <point x="468.6" y="500.0"/>
      <point x="500.8" y="610.0" type="curve" smooth="yes"/>
      <point x="663.6" y="1172.8" type="line" smooth="yes"/>
      <point x="679.5999999999999" y="1229.2"/>
      <point x="700.4" y="1256.8000000000002"/>
      <point x="742.0" y="1270.0" type="curve" smooth="yes"/>
      <point x="790.0" y="1281.6" type="line" smooth="yes"/>
      <point x="835.6" y="1296.0"/>
      <point x="854.4" y="1323.6"/>
      <point x="854.8" y="1352.8000000000002" type="curve" smooth="yes"/>
      <point x="855.1999999999999" y="1383.2"/>
      <point x="835.6" y="1400.0"/>
      <point x="794.0" y="1400.0" type="curve" smooth="yes"/>
      <point x="384.4" y="1400.0" type="line" smooth="yes"/>
      <point x="340.0" y="1400.0"/>
      <point x="315.6" y="1376.4"/>
      <point x="315.2" y="1348.0" type="curve" smooth="yes"/>
      <point x="314.79999999999995" y="1317.1999999999998"/>
      <point x="326.8" y="1303.2"/>
      <point x="364.8" y="1284.4" type="curve" smooth="yes"/>
      <point x="402.8" y="1273.6000000000001" type="line" smooth="yes"/>
      <point x="437.6" y="1260.3999999999999"/>
      <point x="444.8" y="1214.0"/>
      <point x="430.40000000000003" y="1164.3999999999999" type="curve" smooth="yes"/>
      <point x="269.2" y="610.0" type="line" smooth="yes"/>
      <point x="242.2" y="516.8"/>
      <point x="214.0" y="405.0"/>
      <point x="213.20000000000002" y="318.79999999999995" type="curve" smooth="yes"/>
      <point x="212.0" y="125.0"/>
      <point x="336.8" y="-30.0"/>
      <point x="606.0" y="-30.0" type="curve"/>
      <point x="909.4" y="-30.0"/>
      <point x="1098.3999999999999" y="113.4"/>
      <point x="1185.6" y="412.79999999999995" type="curve" smooth="yes"/>
      <point x="1400.0" y="1146.0" type="line" smooth="yes"/>
      <point x="1420.0" y="1215.2"/>
      <point x="1444.8" y="1241.6"/>
      <point x="1500.4" y="1262.4" type="curve" smooth="yes"/>
      <point x="1548.8" y="1276.0" type="line" smooth="yes"/>
      <point x="1598.4" y="1294.0"/>
      <point x="1615.6000000000001" y="1310.8000000000002"/>
      <point x="1615.6000000000001" y="1349.2" type="curve" smooth="yes"/>
      <point x="1615.6000000000001" y="1378.0"/>
      <point x="1594.8" y="1400.0"/>
      <point x="1555.2" y="1400.0" type="curve" smooth="yes"/>
      <point x="1220.8" y="1400.0" type="line" smooth="yes"/>
      <point x="1172.4" y="1400.0"/>
      <point x="1147.2" y="1375.2"/>
      <point x="1146.8" y="1342.0" type="curve" smooth="yes"/>
      <point x="1146.3999999999999" y="1311.6000000000001"/>
      <point x="1164.3999999999999" y="1297.2"/>
      <point x="1208.4" y="1276.0" type="curve" smooth="yes"/>
      <point x="1242.8" y="1263.6" type="line" smooth="yes"/>
      <point x="1292.4" y="1241.6"/>
      <point x="1292.4" y="1208.8"/>
      <point x="1275.2" y="1152.0" type="curve" smooth="yes"/>
    </contour>
  </outline>
</glyph>
<glyph name="V" format="2">
  <advance width="1290.8"/>
  <unicode hex="0056"/>
  <outline>
    <contour>
      <point x="1061.2" y="1342.3999999999999" type="curve" smooth="yes"/>
      <point x="1061.2" y="1316.0"/>
      <point x="1080.0" y="1294.8"/>
      <point x="1109.2" y="1280.4" type="curve" smooth="yes"/>
      <point x="1158.3999999999999" y="1264.8000000000002" type="line" smooth="yes"/>
      <point x="1204.8" y="1242.0"/>
      <point x="1210.0" y="1196.3999999999999"/>
      <point x="1158.3999999999999" y="1117.1999999999998" type="curve" smooth="yes"/>
      <point x="516.4" y="117.6" type="line"/>
      <point x="600.0" y="134.0" type="line"/>
      <point x="595.2" y="363.2"/>
      <point x="577.2" y="1028.8"/>
      <point x="576.8" y="1153.2" type="curve" smooth="yes"/>
      <point x="576.0" y="1228.4"/>
      <point x="593.1999999999999" y="1260.3999999999999"/>
      <point x="635.6" y="1269.6" type="curve" smooth="yes"/>
      <point x="701.6" y="1281.2" type="line" smooth="yes"/>
      <point x="732.4" y="1288.8"/>
      <point x="750.4" y="1312.4"/>
      <point x="750.4" y="1347.2" type="curve" smooth="yes"/>
      <point x="750.4" y="1380.4"/>
      <point x="730.0" y="1400.0"/>
      <point x="698.8000000000001" y="1400.0" type="curve" smooth="yes"/>
      <point x="294.8" y="1400.0" type="line" smooth="yes"/>
      <point x="259.59999999999997" y="1400.0"/>
      <point x="228.0" y="1374.0"/>
      <point x="228.0" y="1341.6" type="curve" smooth="yes"/>
      <point x="228.0" y="1313.5285714285715"/>
      <point x="240.68495839967767" y="1292.5004409335215"/>
      <point x="267.6" y="1282.8" type="curve" smooth="yes"/>
      <point x="301.2" y="1275.1999999999998" type="line" smooth="yes"/>
      <point x="334.3672443513523" y="1264.1524407950444"/>
      <point x="347.2" y="1233.2"/>
      <point x="349.2" y="1185.1999999999998" type="curve" smooth="yes"/>
      <point x="357.2" y="1024.0"/>
      <point x="374.4" y="364.4"/>
      <point x="374.79999999999995" y="270.8" type="curve" smooth="yes"/>
      <point x="375.6" y="228.00000000000003"/>
      <point x="382.0" y="186.4"/>
      <point x="367.6" y="144.4" type="curve" smooth="yes"/>
      <point x="348.59999999999997" y="86.0" type="line" smooth="yes"/>
      <point x="334.2" y="39.800000000000004"/>
      <point x="353.0" y="0.0"/>
      <point x="396.0" y="0.0" type="curve" smooth="yes"/>
      <point x="570.4" y="0.0" type="line" smooth="yes"/>
      <point x="616.8000000000001" y="0.0"/>
      <point x="638.0" y="32.6"/>
      <point x="649.8" y="74.4" type="curve" smooth="yes"/>
      <point x="662.6000000000001" y="119.6" type="line" smooth="yes"/>
      <point x="673.0" y="154.4"/>
      <point x="689.8000000000001" y="181.79999999999998"/>
      <point x="710.8000000000001" y="214.20000000000002" type="curve" smooth="yes"/>
      <point x="1291.6" y="1105.6" type="line" smooth="yes"/>
      <point x="1354.7617728645725" y="1203.5249218739543"/>
      <point x="1384.3498755609578" y="1245.3749377804788"/>
      <point x="1450.8" y="1266.0" type="curve" smooth="yes"/>
      <point x="1486.0" y="1275.2" type="line" smooth="yes"/>
      <point x="1523.7602013416372" y="1288.6801006708185"/>
      <point x="1539.2" y="1312.8"/>
      <point x="1539.2" y="1348.8000000000002" type="curve" smooth="yes"/>
      <point x="1539.2" y="1379.6"/>
      <point x="1516.8000000000002" y="1400.0"/>
      <point x="1472.4" y="1400.0" type="curve" smooth="yes"/>
      <point x="1118.4" y="1400.0" type="line" smooth="yes"/>
      <point x="1085.6000000000001" y="1400.0"/>
      <point x="1061.2" y="1376.4"/>
    </contour>
  </outline>
</glyph>
<glyph name="W" format="2">
  <advance width="1992.3999999999999"/>
  <unicode hex="0057"/>
  <anchor x="1258.0" y="1478.0" name="center"/>
  <outline>
    <contour>
      <point x="1118.2" y="1090.3999999999999" type="line"/>
      <point x="508.4" y="171.6" type="line"/>
      <point x="579.6" y="166.6" type="line"/>
      <point x="572.8000000000001" y="391.6"/>
      <point x="567.4" y="1009.6"/>
      <point x="570.8000000000001" y="1177.8000000000002" type="curve" smooth="yes"/>
      <point x="571.8000000000001" y="1236.1999999999998"/>
      <point x="590.4000000000001" y="1258.4"/>
      <point x="634.1999999999999" y="1270.2" type="curve" smooth="yes"/>
      <point x="683.4" y="1281.0" type="line" smooth="yes"/>
      <point x="722.6" y="1293.6000000000001"/>
      <point x="743.2" y="1316.8"/>
      <point x="743.2" y="1347.8000000000002" type="curve" smooth="yes"/>
      <point x="743.1999999999999" y="1381.8"/>
      <point x="726.8" y="1400.0"/>
      <point x="681.8000000000001" y="1400.0" type="curve" smooth="yes"/>
      <point x="295.8" y="1400.0" type="line" smooth="yes"/>
      <point x="253.0" y="1400.0"/>
      <point x="228.0" y="1378.0"/>
      <point x="228.0" y="1341.8" type="curve" smooth="yes"/>
      <point x="228.0" y="1313.0"/>
      <point x="245.60000000000002" y="1294.8"/>
      <point x="283.4" y="1282.2" type="curve" smooth="yes"/>
      <point x="303.0" y="1276.8" type="line" smooth="yes"/>
      <point x="337.4" y="1267.4"/>
      <point x="345.4" y="1235.8"/>
      <point x="346.4" y="1193.2" type="curve" smooth="yes"/>
      <point x="352.59999999999997" y="1006.0"/>
      <point x="365.8" y="368.6"/>
      <point x="366.0" y="242.00000000000003" type="curve" smooth="yes"/>
      <point x="366.2" y="192.00000000000003"/>
      <point x="364.4" y="166.00000000000003"/>
      <point x="352.6" y="132.6" type="curve" smooth="yes"/>
      <point x="336.0" y="81.0" type="line" smooth="yes"/>
      <point x="318.59999999999997" y="28.400000000000002"/>
      <point x="341.79999999999995" y="0.0"/>
      <point x="396.6" y="0.0" type="curve" smooth="yes"/>
      <point x="513.6" y="0.0" type="line" smooth="yes"/>
      <point x="568.2" y="0.0"/>
      <point x="593.0" y="25.6"/>
      <point x="607.8000000000001" y="71.60000000000001" type="curve" smooth="yes"/>
      <point x="621.6" y="114.80000000000001" type="line" smooth="yes"/>
      <point x="633.8000000000001" y="152.6"/>
      <point x="650.6" y="178.2"/>
      <point x="677.6" y="219.0" type="curve" smooth="yes"/>
      <point x="1164.6" y="957.2" type="line"/>
    </contour>
    <contour>
      <point x="1741.8000000000002" y="1340.3999999999999" type="curve" smooth="yes"/>
      <point x="1741.8000000000002" y="1315.2"/>
      <point x="1754.8" y="1298.2"/>
      <point x="1783.8000000000002" y="1287.3999999999999" type="curve" smooth="yes"/>
      <point x="1838.3999999999999" y="1269.6" type="line" smooth="yes"/>
      <point x="1892.6" y="1245.4"/>
      <point x="1888.3999999999999" y="1195.8"/>
      <point x="1851.6" y="1134.6" type="curve" smooth="yes"/>
      <point x="1286.6" y="184.40000000000003" type="line"/>
      <point x="1357.8000000000002" y="169.6" type="line"/>
      <point x="1342.3999999999999" y="384.0"/>
      <point x="1304.6" y="1005.2"/>
      <point x="1297.6000000000001" y="1156.8" type="curve" smooth="yes"/>
      <point x="1294.1999999999998" y="1224.4"/>
      <point x="1306.3999999999999" y="1254.6"/>
      <point x="1353.4" y="1268.2" type="curve" smooth="yes"/>
      <point x="1416.0" y="1282.2" type="line" smooth="yes"/>
      <point x="1444.3999999999999" y="1294.2"/>
      <point x="1468.3999999999999" y="1314.6"/>
      <point x="1468.3999999999999" y="1347.8000000000002" type="curve" smooth="yes"/>
      <point x="1468.3999999999999" y="1384.2"/>
      <point x="1447.6" y="1400.0"/>
      <point x="1408.4" y="1400.0" type="curve" smooth="yes"/>
      <point x="1035.2" y="1400.0" type="line" smooth="yes"/>
      <point x="987.6" y="1400.0"/>
      <point x="961.8" y="1376.2"/>
      <point x="961.8" y="1338.6" type="curve" smooth="yes"/>
      <point x="961.8" y="1315.6"/>
      <point x="978.4000000000001" y="1296.0"/>
      <point x="1001.0" y="1287.2" type="curve" smooth="yes"/>
      <point x="1033.6" y="1277.0" type="line" smooth="yes"/>
      <point x="1066.8" y="1268.6"/>
      <point x="1076.4" y="1243.3999999999999"/>
      <point x="1082.8" y="1180.0" type="curve" smooth="yes"/>
      <point x="1104.8" y="969.0"/>
      <point x="1138.2" y="394.8"/>
      <point x="1145.4" y="226.0" type="curve" smooth="yes"/>
      <point x="1146.2" y="195.0"/>
      <point x="1144.4" y="172.0"/>
      <point x="1133.8" y="140.8" type="curve" smooth="yes"/>
      <point x="1116.8" y="87.4" type="line" smooth="yes"/>
      <point x="1100.6000000000001" y="36.800000000000004"/>
      <point x="1125.0" y="0.0"/>
      <point x="1170.1999999999998" y="0.0" type="curve" smooth="yes"/>
      <point x="1306.6000000000001" y="0.0" type="line" smooth="yes"/>
      <point x="1346.2" y="0.0"/>
      <point x="1376.6" y="25.8"/>
      <point x="1387.0" y="71.4" type="curve" smooth="yes"/>
      <point x="1398.8" y="119.4" type="line" smooth="yes"/>
      <point x="1407.8" y="158.60000000000002"/>
      <point x="1423.0" y="187.8"/>
      <point x="1444.4" y="223.8" type="curve" smooth="yes"/>
      <point x="1974.2" y="1113.2" type="line" smooth="yes"/>
      <point x="2030.6000000000001" y="1207.4"/>
      <point x="2062.2000000000003" y="1252.3999999999999"/>
      <point x="2109.0" y="1270.2" type="curve" smooth="yes"/>
      <point x="2145.7999999999997" y="1284.2" type="line" smooth="yes"/>
      <point x="2182.6000000000004" y="1298.6000000000001"/>
      <point x="2201.8" y="1322.6000000000001"/>
      <point x="2201.8" y="1348.3999999999999" type="curve" smooth="yes"/>
      <point x="2201.8" y="1380.0"/>
      <point x="2187.0" y="1400.0"/>
      <point x="2140.0" y="1400.0" type="curve" smooth="yes"/>
      <point x="1812.0" y="1400.0" type="line" smooth="yes"/>
      <point x="1768.3999999999999" y="1400.0"/>
      <point x="1741.8000000000002" y="1375.1999999999998"/>
    </contour>
  </outline>
</glyph>
<glyph name="X" format="2">
  <advance width="1325.2"/>
  <unicode hex="0058"/>
  <outline>
    <contour>
      <point x="627.8" y="732.4" type="line"/>
      <point x="234.0" y="257.6" type="line" smooth="yes"/>
      <point x="156.60000000000002" y="162.20000000000002"/>
      <point x="106.4" y="137.60000000000002"/>
      <point x="29.0" y="116.0" type="curve" smooth="yes"/>
      <point x="-12.2" y="99.8"/>
      <point x="-25.2" y="80.80000000000001"/>
      <point x="-25.2" y="52.2" type="curve" smooth="yes"/>
      <point x="-25.2" y="20.2"/>
      <point x="-5.799999999999999" y="0.0"/>
      <point x="34.2" y="0.0" type="curve" smooth="yes"/>
      <point x="357.59999999999997" y="0.0" type="line" smooth="yes"/>
      <point x="397.6" y="0.0"/>
      <point x="428.0" y="25.0"/>
      <point x="428.0" y="61.2" type="curve" smooth="yes"/>
      <point x="428.0" y="86.6"/>
      <point x="413.4" y="100.80000000000001"/>
      <point x="388.2" y="110.60000000000001" type="curve" smooth="yes"/>
      <point x="358.8" y="119.8" type="line" smooth="yes"/>
      <point x="323.0" y="132.8"/>
      <point x="318.0" y="172.6"/>
      <point x="378.6" y="245.2" type="curve" smooth="yes"/>
      <point x="695.1999999999999" y="636.0" type="line"/>
    </contour>
    <contour>
      <point x="647.6" y="1195.4" type="curve" smooth="yes"/>
      <point x="634.8" y="1231.4"/>
      <point x="643.4" y="1261.8"/>
      <point x="671.0" y="1270.3999999999999" type="curve" smooth="yes"/>
      <point x="717.4" y="1282.3999999999999" type="line" smooth="yes"/>
      <point x="754.1999999999999" y="1296.6"/>
      <point x="776.2" y="1316.8"/>
      <point x="776.2" y="1348.6" type="curve" smooth="yes"/>
      <point x="776.8" y="1381.2"/>
      <point x="757.2" y="1400.0"/>
      <point x="710.0" y="1400.0" type="curve" smooth="yes"/>
      <point x="335.2" y="1400.0" type="line" smooth="yes"/>
      <point x="291.8" y="1400.0"/>
      <point x="261.40000000000003" y="1378.3999999999999"/>
      <point x="260.8" y="1344.6" type="curve" smooth="yes"/>
      <point x="260.8" y="1317.1999999999998"/>
      <point x="275.6" y="1299.4"/>
      <point x="312.2" y="1284.6000000000001" type="curve" smooth="yes"/>
      <point x="357.2" y="1270.2"/>
      <point x="376.6" y="1254.0"/>
      <point x="401.2" y="1196.6" type="curve" smooth="yes"/>
      <point x="481.29456463131385" y="1016.6108707373725"/>
      <point x="758.9256661099239" y="331.5644355750166"/>
      <point x="805.8000000000001" y="207.40000000000003" type="curve" smooth="yes"/>
      <point x="823.1999999999999" y="163.20000000000002"/>
      <point x="814.4" y="133.6"/>
      <point x="777.0" y="121.0" type="curve" smooth="yes"/>
      <point x="746.8" y="114.4" type="line" smooth="yes"/>
      <point x="709.1999999999999" y="99.8"/>
      <point x="692.6" y="78.8"/>
      <point x="692.0" y="51.2" type="curve" smooth="yes"/>
      <point x="692.0" y="22.0"/>
      <point x="707.6" y="0.0"/>
      <point x="756.8" y="0.0" type="curve" smooth="yes"/>
      <point x="1125.4" y="0.0" type="line" smooth="yes"/>
      <point x="1169.4" y="0.0"/>
      <point x="1198.4" y="25.6"/>
      <point x="1199.0" y="58.800000000000004" type="curve" smooth="yes"/>
      <point x="1199.0" y="85.4"/>
      <point x="1184.6000000000001" y="102.0"/>
      <point x="1147.2" y="116.2" type="curve" smooth="yes"/>
      <point x="1098.4" y="130.0"/>
      <point x="1065.4" y="151.60000000000002"/>
      <point x="1045.6" y="200.8" type="curve" smooth="yes"/>
      <point x="959.5644122783505" y="411.7272677579777"/>
      <point x="693.9223502386286" y="1068.9188091006956"/>
    </contour>
    <contour>
      <point x="800.1999999999999" y="678.4000000000001" type="line"/>
      <point x="1084.8000000000002" y="1048.6000000000001" type="line" smooth="yes"/>
      <point x="1156.0370797241774" y="1139.3089688404357"/>
      <point x="1201.6308593261112" y="1182.5006923804153"/>
      <point x="1260.4" y="1194.6000000000001" type="curve" smooth="yes"/>
      <point x="1298.7630002319424" y="1205.3095817118076"/>
      <point x="1323.5538627380524" y="1204.4"/>
      <point x="1359.8" y="1204.4" type="curve" smooth="yes"/>
      <point x="1439.215458937198" y="1204.4"/>
      <point x="1490.4" y="1254.2309012875537"/>
      <point x="1490.3999999999999" y="1330.3999999999999" type="curve" smooth="yes"/>
      <point x="1490.3999999999999" y="1387.159162303665"/>
      <point x="1453.8" y="1434.0"/>
      <point x="1383.6000000000001" y="1434.0" type="curve" smooth="yes"/>
      <point x="1281.1934742014741" y="1434.0"/>
      <point x="1202.816213178354" y="1380.6992403224956"/>
      <point x="1072.6" y="1211.1999999999998" type="curve" smooth="yes"/>
      <point x="721.6" y="759.6" type="line"/>
    </contour>
  </outline>
</glyph>
<glyph name="Y" format="2">
  <advance width="1184.8"/>
  <unicode hex="0059"/>
  <anchor x="845.8" y="1498.0" name="center"/>
  <outline>
    <contour>
      <point x="617.4" y="537.6" type="line"/>
      <point x="694.5999999999999" y="530.4000000000001" type="line"/>
      <point x="660.4" y="687.4000000000001"/>
      <point x="580.0" y="1140.2"/>
      <point x="552.4" y="1279.6" type="curve" smooth="yes"/>
      <point x="536.0" y="1366.8"/>
      <point x="494.6" y="1400.0"/>
      <point x="408.00000000000006" y="1400.0" type="curve" smooth="yes"/>
      <point x="270.4" y="1400.0" type="line" smooth="yes"/>
      <point x="226.2" y="1400.0"/>
      <point x="197.79999999999998" y="1374.0"/>
      <point x="198.4" y="1338.8" type="curve" smooth="yes"/>
      <point x="199.0" y="1311.6000000000001"/>
      <point x="218.39999999999998" y="1291.2"/>
      <point x="255.20000000000002" y="1282.1999999999998" type="curve" smooth="yes"/>
      <point x="303.59999999999997" y="1273.8000000000002"/>
      <point x="336.4" y="1246.6"/>
      <point x="347.8" y="1195.0" type="curve" smooth="yes"/>
      <point x="373.0" y="1077.2"/>
      <point x="444.0" y="692.0"/>
      <point x="467.8" y="566.4" type="curve" smooth="yes"/>
      <point x="476.4" y="522.0"/>
      <point x="481.4" y="476.8"/>
      <point x="468.2" y="432.40000000000003" type="curve" smooth="yes"/>
      <point x="406.8" y="224.4" type="line" smooth="yes"/>
      <point x="389.40000000000003" y="164.39999999999998"/>
      <point x="365.0" y="137.60000000000002"/>
      <point x="321.4" y="127.39999999999999" type="curve" smooth="yes"/>
      <point x="273.8" y="116.2" type="line" smooth="yes"/>
      <point x="237.6" y="104.2"/>
      <point x="217.20000000000002" y="80.8"/>
      <point x="217.2" y="53.0" type="curve" smooth="yes"/>
      <point x="217.2" y="20.0"/>
      <point x="233.2" y="0.0"/>
      <point x="277.2" y="0.0" type="curve" smooth="yes"/>
      <point x="680.4" y="0.0" type="line" smooth="yes"/>
      <point x="729.4" y="0.0"/>
      <point x="757.1999999999999" y="21.200000000000003"/>
      <point x="757.1999999999999" y="60.2" type="curve" smooth="yes"/>
      <point x="757.2" y="82.60000000000001"/>
      <point x="747.4041501034594" y="99.61136028417899"/>
      <point x="712.2" y="113.4" type="curve" smooth="yes"/>
      <point x="665.2" y="126.8" type="line" smooth="yes"/>
      <point x="631.4" y="136.8"/>
      <point x="622.8" y="167.39999999999998"/>
      <point x="635.5999999999999" y="215.0" type="curve" smooth="yes"/>
      <point x="693.2" y="425.2" type="line" smooth="yes"/>
      <point x="702.3903964554758" y="458.5021438273002"/>
      <point x="713.8" y="489.8"/>
      <point x="742.4" y="540.0" type="curve" smooth="yes"/>
      <point x="1016.1999999999999" y="994.4" type="line" smooth="yes"/>
      <point x="1099.0" y="1137.0"/>
      <point x="1174.3999999999999" y="1173.4"/>
      <point x="1259.6" y="1190.6000000000001" type="curve" smooth="yes"/>
      <point x="1366.8" y="1211.6"/>
      <point x="1417.2" y="1260.0"/>
      <point x="1417.2" y="1332.8" type="curve" smooth="yes"/>
      <point x="1417.2" y="1388.8"/>
      <point x="1378.4" y="1434.0"/>
      <point x="1295.4" y="1434.0" type="curve" smooth="yes"/>
      <point x="1184.3999999999999" y="1434.0"/>
      <point x="1091.8000000000002" y="1367.8"/>
      <point x="972.0" y="1156.2" type="curve" smooth="yes"/>
    </contour>
  </outline>
</glyph>
<glyph name="Z" format="2">
  <advance width="1214.0"/>
  <unicode hex="005A"/>
  <anchor x="923.4" y="1504.0" name="center"/>
  <outline>
    <contour>
      <point x="718.0" y="0.0" type="line" smooth="yes"/>
      <point x="790.2" y="0.0"/>
      <point x="813.4000000000001" y="-30.0"/>
      <point x="865.0" y="-30.0" type="curve" smooth="yes"/>
      <point x="993.6" y="-30.0"/>
      <point x="1112.6000000000001" y="134.6"/>
      <point x="1112.6" y="318.2" type="curve" smooth="yes"/>
      <point x="1112.6" y="360.40000000000003"/>
      <point x="1096.6000000000001" y="387.0"/>
      <point x="1062.0" y="387.0" type="curve" smooth="yes"/>
      <point x="1034.0" y="387.0"/>
      <point x="1016.4" y="368.20000000000005"/>
      <point x="993.8" y="320.59999999999997" type="curve" smooth="yes"/>
      <point x="916.6" y="141.0"/>
      <point x="820.8" y="104.60000000000001"/>
      <point x="679.1999999999999" y="104.60000000000001" type="curve" smooth="yes"/>
      <point x="258.40000000000003" y="104.60000000000001" type="line"/>
      <point x="284.2" y="87.4" type="line"/>
      <point x="512.4" y="357.6"/>
      <point x="1159.6" y="1102.6"/>
      <point x="1274.2" y="1230.2" type="curve" smooth="yes"/>
      <point x="1314.6000000000001" y="1273.8000000000002"/>
      <point x="1342.2" y="1310.6"/>
      <point x="1342.2" y="1341.8" type="curve" smooth="yes"/>
      <point x="1342.1999999999998" y="1381.8"/>
      <point x="1321.4" y="1399.4"/>
      <point x="1267.0" y="1399.4" type="curve" smooth="yes"/>
      <point x="654.8" y="1399.4" type="line" smooth="yes"/>
      <point x="585.6" y="1399.4"/>
      <point x="565.4" y="1433.4"/>
      <point x="516.2" y="1433.4" type="curve" smooth="yes"/>
      <point x="479.2" y="1433.4"/>
      <point x="457.59999999999997" y="1413.6000000000001"/>
      <point x="426.79999999999995" y="1356.1999999999998" type="curve" smooth="yes"/>
      <point x="317.2" y="1179.8" type="line" smooth="yes"/>
      <point x="284.8" y="1122.0"/>
      <point x="287.8" y="1086.8"/>
      <point x="321.4" y="1073.0" type="curve" smooth="yes"/>
      <point x="353.2" y="1059.8"/>
      <point x="390.59999999999997" y="1069.4"/>
      <point x="427.8" y="1121.3999999999999" type="curve" smooth="yes"/>
      <point x="529.0" y="1256.2"/>
      <point x="599.8" y="1299.8"/>
      <point x="690.6" y="1299.8" type="curve" smooth="yes"/>
      <point x="1116.8" y="1299.8" type="line"/>
      <point x="1089.6" y="1339.8" type="line"/>
      <point x="916.4" y="1135.3999999999999"/>
      <point x="257.0" y="378.0"/>
      <point x="72.60000000000001" y="178.79999999999998" type="curve" smooth="yes"/>
      <point x="39.2" y="142.0"/>
      <point x="14.4" y="103.6"/>
      <point x="14.4" y="65.60000000000001" type="curve" smooth="yes"/>
      <point x="14.4" y="22.4"/>
      <point x="38.4" y="0.0"/>
      <point x="90.4" y="0.0" type="curve" smooth="yes"/>
    </contour>
  </outline>
</glyph>
<glyph name="bracketleft" format="2">
  <advance width="740.8000000000001"/>
  <unicode hex="005B"/>
  <outline>
    <contour>
      <point x="648.8000000000001" y="1307.8" type="line" smooth="yes"/>
      <point x="660.2" y="1351.2"/>
      <point x="683.0" y="1368.4"/>
      <point x="727.8000000000001" y="1368.4" type="curve" smooth="yes"/>
      <point x="915.2" y="1368.4" type="line" smooth="yes"/>
      <point x="955.4000000000001" y="1368.4"/>
      <point x="981.0000000000001" y="1387.6"/>
      <point x="990.4" y="1424.2" type="curve" smooth="yes"/>
      <point x="999.6" y="1457.6"/>
      <point x="985.2" y="1479.6"/>
      <point x="945.0000000000001" y="1479.6" type="curve" smooth="yes"/>
      <point x="594.8" y="1479.6" type="line" smooth="yes"/>
      <point x="540.4" y="1479.6"/>
      <point x="511.2" y="1453.2"/>
      <point x="496.0" y="1395.6000000000001" type="curve" smooth="yes"/>
      <point x="75.6" y="-172.0" type="line" smooth="yes"/>
      <point x="60.8" y="-229.6"/>
      <point x="74.79999999999998" y="-256.0"/>
      <point x="129.2" y="-256.0" type="curve" smooth="yes"/>
      <point x="479.4" y="-256.0" type="line" smooth="yes"/>
      <point x="519.6" y="-256.0"/>
      <point x="546.0" y="-234.0"/>
      <point x="555.1999999999999" y="-200.60000000000002" type="curve" smooth="yes"/>
      <point x="564.6" y="-164.0"/>
      <point x="549.8000000000001" y="-144.8"/>
      <point x="509.6" y="-144.8" type="curve" smooth="yes"/>
      <point x="322.20000000000005" y="-144.8" type="line" smooth="yes"/>
      <point x="277.4" y="-144.8"/>
      <point x="264.20000000000005" y="-127.6"/>
      <point x="276.0" y="-84.2" type="curve" smooth="yes"/>
    </contour>
  </outline>
</glyph>
<glyph name="asciicircum" format="2">
  <advance width="1004.8000000000001"/>
  <unicode hex="005E"/>
  <outline>
    <contour>
      <point x="786.4" y="1285.4" type="line"/>
      <point x="366.0" y="808.2" type="line" smooth="yes"/>
      <point x="319.0" y="758.2"/>
      <point x="275.6" y="740.4"/>
      <point x="243.60000000000002" y="740.4" type="curve" smooth="yes"/>
      <point x="193.1301389345711" y="740.4"/>
      <point x="201.8654310699441" y="803.6365948706465"/>
      <point x="259.2" y="874.0" type="curve" smooth="yes"/>
      <point x="627.0" y="1332.0" type="line" smooth="yes"/>
      <point x="690.8" y="1411.4"/>
      <point x="723.4" y="1428.0"/>
      <point x="768.1999999999999" y="1428.0" type="curve" smooth="yes"/>
      <point x="813.0" y="1428.0"/>
      <point x="836.8000000000001" y="1411.4"/>
      <point x="859.0" y="1332.0" type="curve" smooth="yes"/>
      <point x="981.2" y="874.0" type="line" smooth="yes"/>
      <point x="1000.8384482657303" y="800.0365948706464"/>
      <point x="977.2698610654289" y="740.4"/>
      <point x="925.6" y="740.4" type="curve" smooth="yes"/>
      <point x="893.6" y="740.4"/>
      <point x="869.4" y="758.2"/>
      <point x="848.8" y="808.2" type="curve" smooth="yes"/>
      <point x="684.4000000000001" y="1285.4" type="line"/>
    </contour>
  </outline>
</glyph>
<glyph name="underscore" format="2">
  <advance width="996.1999999999999"/>
  <unicode hex="005F"/>
  <outline>
    <contour>
      <point x="-69.0" y="-226.0" type="curve" smooth="yes"/>
      <point x="-79.2" y="-268.4"/>
      <point x="-70.20000000000002" y="-296.0"/>
      <point x="-34.400000000000006" y="-296.0" type="curve" smooth="yes"/>
      <point x="841.4" y="-296.0" type="line" smooth="yes"/>
      <point x="877.8" y="-296.0"/>
      <point x="900.1999999999999" y="-268.4"/>
      <point x="910.4" y="-226.0" type="curve" smooth="yes"/>
      <point x="920.8000000000001" y="-183.6"/>
      <point x="912.2" y="-155.39999999999998"/>
      <point x="875.8000000000001" y="-155.39999999999998" type="curve" smooth="yes"/>
      <point x="0.0" y="-155.39999999999998" type="line" smooth="yes"/>
      <point x="-35.8" y="-155.39999999999998"/>
      <point x="-58.6" y="-183.6"/>
    </contour>
  </outline>
</glyph>
<glyph name="a" format="2">
  <advance width="1105.3999999999999"/>
  <unicode hex="0061"/>
  <anchor x="723.0" y="1010.0" name="center"/>
  <outline>
    <contour>
      <point x="843.0" y="250.0" type="curve" smooth="yes"/>
      <point x="960.0" y="700.0" type="line" smooth="yes"/>
      <point x="973.6" y="750.0"/>
      <point x="1023.2" y="767.4"/>
      <point x="1028.0" y="823.6" type="curve" smooth="yes"/>
      <point x="1033.6" y="896.4"/>
      <point x="952.6" y="939.6"/>
      <point x="755.5999999999999" y="939.6" type="curve" smooth="yes"/>
      <point x="379.40000000000003" y="939.6"/>
      <point x="69.4" y="597.8"/>
      <point x="53.800000000000004" y="253.4" type="curve" smooth="yes"/>
      <point x="40.599999999999994" y="61.400000000000006"/>
      <point x="125.19999999999999" y="-20.2"/>
      <point x="254.79999999999998" y="-20.2" type="curve" smooth="yes"/>
      <point x="442.6" y="-20.2"/>
      <point x="614.8" y="123.2"/>
      <point x="747.1999999999999" y="415.59999999999997" type="curve"/>
      <point x="731.0" y="466.0" type="line"/>
      <point x="659.0" y="227.79999999999998"/>
      <point x="645.1999999999999" y="166.8"/>
      <point x="645.1999999999999" y="101.19999999999999" type="curve" smooth="yes"/>
      <point x="645.1999999999999" y="20.6"/>
      <point x="687.0" y="-20.2"/>
      <point x="753.2" y="-20.2" type="curve" smooth="yes"/>
      <point x="869.0" y="-20.2"/>
      <point x="964.6" y="44.400000000000006"/>
      <point x="999.0" y="124.00000000000003" type="curve" smooth="yes"/>
      <point x="1016.0" y="165.20000000000002"/>
      <point x="1011.6" y="191.4"/>
      <point x="994.0" y="201.2" type="curve" smooth="yes"/>
      <point x="980.8" y="209.0"/>
      <point x="964.2" y="203.0"/>
      <point x="943.4" y="188.0" type="curve" smooth="yes"/>
      <point x="918.0" y="170.4"/>
      <point x="898.8" y="157.8"/>
      <point x="873.0" y="157.8" type="curve" smooth="yes"/>
      <point x="832.4" y="157.8"/>
      <point x="827.6" y="191.60000000000002"/>
    </contour>
    <contour>
      <point x="267.40000000000003" y="281.2" type="curve" smooth="yes"/>
      <point x="281.40000000000003" y="545.2"/>
      <point x="509.59999999999997" y="817.5999999999999"/>
      <point x="701.4" y="817.5999999999999" type="curve" smooth="yes"/>
      <point x="753.8000000000001" y="817.5999999999999"/>
      <point x="786.2" y="789.2"/>
      <point x="782.6" y="732.4000000000001" type="curve" smooth="yes"/>
      <point x="770.1999999999999" y="503.6"/>
      <point x="522.0" y="124.0"/>
      <point x="359.8" y="124.0" type="curve" smooth="yes"/>
      <point x="296.40000000000003" y="124.0"/>
      <point x="259.8" y="161.8"/>
    </contour>
  </outline>
</glyph>
<glyph name="b" format="2">
  <advance width="1109.2"/>
  <unicode hex="0062"/>
  <outline>
    <contour>
      <point x="367.59999999999997" y="1122.2" type="curve" smooth="yes"/>
      <point x="85.8" y="161.8" type="line" smooth="yes"/>
      <point x="46.8" y="29.6"/>
      <point x="79.2" y="-2.4"/>
      <point x="130.6" y="-2.4" type="curve" smooth="yes"/>
      <point x="164.4" y="-2.4"/>
      <point x="189.0" y="16.0"/>
      <point x="205.0" y="38.0" type="curve" smooth="yes"/>
      <point x="293.0" y="189.4" type="line"/>
      <point x="238.6" y="224.4" type="line"/>
      <point x="238.6" y="57.199999999999996"/>
      <point x="332.2" y="-19.4"/>
      <point x="485.59999999999997" y="-19.4" type="curve" smooth="yes"/>
      <point x="765.6" y="-19.4"/>
      <point x="1062.0" y="274.0"/>
      <point x="1068.0" y="677.2" type="curve" smooth="yes"/>
      <point x="1069.8" y="838.4"/>
      <point x="986.0" y="935.1999999999999"/>
      <point x="838.8" y="935.1999999999999" type="curve" smooth="yes"/>
      <point x="631.0" y="935.1999999999999"/>
      <point x="440.2" y="753.5999999999999"/>
      <point x="347.40000000000003" y="526.0" type="curve"/>
      <point x="377.0" y="521.1999999999999" type="line"/>
      <point x="593.4" y="1219.0" type="line" smooth="yes"/>
      <point x="640.0" y="1368.2"/>
      <point x="589.4" y="1436.3999999999999"/>
      <point x="476.4" y="1436.3999999999999" type="curve" smooth="yes"/>
      <point x="374.40000000000003" y="1436.3999999999999"/>
      <point x="260.6" y="1372.0"/>
      <point x="214.6" y="1302.6" type="curve" smooth="yes"/>
      <point x="191.0" y="1267.1999999999998"/>
      <point x="194.39999999999998" y="1234.6"/>
      <point x="214.2" y="1222.2" type="curve" smooth="yes"/>
      <point x="230.2" y="1212.8"/>
      <point x="248.8" y="1218.2"/>
      <point x="277.0" y="1236.2" type="curve" smooth="yes"/>
      <point x="307.40000000000003" y="1256.6"/>
      <point x="328.40000000000003" y="1266.3999999999999"/>
      <point x="349.59999999999997" y="1266.3999999999999" type="curve" smooth="yes"/>
      <point x="393.59999999999997" y="1266.3999999999999"/>
      <point x="401.8" y="1238.8"/>
    </contour>
    <contour>
      <point x="735.4" y="810.6" type="curve" smooth="yes"/>
      <point x="803.0" y="810.6"/>
      <point x="857.1999999999999" y="767.4"/>
      <point x="854.8" y="650.8000000000001" type="curve" smooth="yes"/>
      <point x="848.8" y="321.4"/>
      <point x="629.6" y="90.2"/>
      <point x="468.20000000000005" y="90.2" type="curve" smooth="yes"/>
      <point x="384.2" y="90.2"/>
      <point x="337.6" y="133.39999999999998"/>
      <point x="337.6" y="232.8" type="curve" smooth="yes"/>
      <point x="337.6" y="480.4"/>
      <point x="564.0" y="810.6"/>
    </contour>
  </outline>
</glyph>
<glyph name="c" format="2">
  <advance width="913.8000000000001"/>
  <unicode hex="0063"/>
  <anchor x="619.0" y="1026.0" name="center"/>
  <outline>
    <contour>
      <point x="597.0" y="823.8000000000001" type="curve" smooth="yes"/>
      <point x="656.6" y="823.8000000000001"/>
      <point x="693.6" y="788.8"/>
      <point x="693.2" y="738.1999999999999" type="curve" smooth="yes"/>
      <point x="692.8000000000001" y="703.8"/>
      <point x="679.4" y="668.6"/>
      <point x="678.6" y="641.6" type="curve" smooth="yes"/>
      <point x="677.8000000000001" y="601.0"/>
      <point x="708.0" y="572.8000000000001"/>
      <point x="755.2" y="572.8000000000001" type="curve" smooth="yes"/>
      <point x="829.4" y="572.8000000000001"/>
      <point x="892.6" y="626.8"/>
      <point x="894.6" y="717.6" type="curve" smooth="yes"/>
      <point x="896.6" y="829.6"/>
      <point x="812.1999999999999" y="937.0"/>
      <point x="639.2" y="937.0" type="curve" smooth="yes"/>
      <point x="336.4" y="937.0"/>
      <point x="121.19999999999999" y="710.0"/>
      <point x="75.0" y="426.2" type="curve" smooth="yes"/>
      <point x="29.799999999999997" y="151.20000000000002"/>
      <point x="142.4" y="-21.0"/>
      <point x="368.0" y="-21.0" type="curve" smooth="yes"/>
      <point x="636.6" y="-21.0"/>
      <point x="786.8" y="135.4"/>
      <point x="803.2" y="269.2" type="curve" smooth="yes"/>
      <point x="813.2" y="315.0"/>
      <point x="792.5999999999999" y="342.0"/>
      <point x="766.4" y="342.0" type="curve" smooth="yes"/>
      <point x="739.5999999999999" y="342.0"/>
      <point x="721.8000000000001" y="318.79999999999995"/>
      <point x="705.0" y="291.2" type="curve" smooth="yes"/>
      <point x="660.5999999999999" y="185.39999999999998"/>
      <point x="572.4" y="122.0"/>
      <point x="459.40000000000003" y="122.0" type="curve" smooth="yes"/>
      <point x="338.40000000000003" y="122.0"/>
      <point x="262.0" y="224.40000000000003"/>
      <point x="293.6" y="448.6" type="curve" smooth="yes"/>
      <point x="325.6" y="672.1999999999999"/>
      <point x="459.4" y="823.8000000000001"/>
    </contour>
  </outline>
</glyph>
<glyph name="d" format="2">
  <advance width="1129.0"/>
  <unicode hex="0064"/>
  <anchor x="442.0" y="1022.0" name="center"/>
  <outline>
    <contour>
      <point x="1154.0" y="1213.0" type="line" smooth="yes"/>
      <point x="1199.8" y="1360.6000000000001"/>
      <point x="1156.3999999999999" y="1436.3999999999999"/>
      <point x="1037.0" y="1436.3999999999999" type="curve" smooth="yes"/>
      <point x="936.0" y="1436.3999999999999"/>
      <point x="819.8000000000001" y="1379.4"/>
      <point x="769.6" y="1302.6" type="curve" smooth="yes"/>
      <point x="746.4" y="1267.1999999999998"/>
      <point x="750.0" y="1234.3999999999999"/>
      <point x="769.2" y="1222.2" type="curve" smooth="yes"/>
      <point x="785.1999999999999" y="1212.8"/>
      <point x="801.4" y="1217.0"/>
      <point x="832.0" y="1236.2" type="curve" smooth="yes"/>
      <point x="864.8" y="1257.8"/>
      <point x="885.2" y="1266.3999999999999"/>
      <point x="906.4" y="1266.3999999999999" type="curve" smooth="yes"/>
      <point x="952.4" y="1266.3999999999999"/>
      <point x="957.8000000000001" y="1236.0"/>
      <point x="927.0" y="1138.2" type="curve" smooth="yes"/>
      <point x="740.1999999999999" y="544.0" type="line" smooth="yes"/>
      <point x="675.8000000000001" y="338.2"/>
      <point x="490.6" y="128.6"/>
      <point x="366.80000000000007" y="128.6" type="curve" smooth="yes"/>
      <point x="304.4" y="128.6"/>
      <point x="261.6" y="166.6"/>
      <point x="261.6" y="256.6" type="curve" smooth="yes"/>
      <point x="261.6" y="531.8"/>
      <point x="482.6" y="822.5999999999999"/>
      <point x="694.8" y="822.5999999999999" type="curve" smooth="yes"/>
      <point x="762.4000000000001" y="822.5999999999999"/>
      <point x="800.6" y="802.2"/>
      <point x="827.0" y="744.6" type="curve"/>
      <point x="978.1999999999999" y="776.0" type="line"/>
      <point x="960.4000000000001" y="864.6"/>
      <point x="882.4" y="935.4"/>
      <point x="744.4" y="935.4" type="curve" smooth="yes"/>
      <point x="394.0" y="935.4"/>
      <point x="83.2" y="646.4"/>
      <point x="58.4" y="285.6" type="curve" smooth="yes"/>
      <point x="34.39999999999999" y="78.39999999999999"/>
      <point x="120.4" y="-21.0"/>
      <point x="262.0" y="-21.0" type="curve" smooth="yes"/>
      <point x="427.40000000000003" y="-21.0"/>
      <point x="609.6" y="113.6"/>
      <point x="743.4" y="392.8" type="curve"/>
      <point x="722.0" y="391.6" type="line"/>
      <point x="662.6" y="211.6"/>
      <point x="646.0" y="155.79999999999998"/>
      <point x="646.0" y="102.0" type="curve" smooth="yes"/>
      <point x="646.0" y="18.6"/>
      <point x="686.4000000000001" y="-21.0"/>
      <point x="763.2" y="-21.0" type="curve" smooth="yes"/>
      <point x="856.6" y="-21.0"/>
      <point x="964.1999999999999" y="42.6"/>
      <point x="1006.2" y="116.00000000000001" type="curve" smooth="yes"/>
      <point x="1027.6000000000001" y="153.4"/>
      <point x="1024.8000000000002" y="183.8"/>
      <point x="1006.8" y="197.2" type="curve" smooth="yes"/>
      <point x="989.0" y="209.60000000000002"/>
      <point x="972.1999999999999" y="200.20000000000002"/>
      <point x="950.1999999999999" y="185.6" type="curve" smooth="yes"/>
      <point x="922.5999999999999" y="167.20000000000002"/>
      <point x="903.6" y="157.0"/>
      <point x="881.0" y="157.0" type="curve" smooth="yes"/>
      <point x="840.0" y="157.0"/>
      <point x="832.2" y="179.60000000000002"/>
      <point x="885.4000000000001" y="350.8" type="curve" smooth="yes"/>
    </contour>
  </outline>
</glyph>
<glyph name="e" format="2">
  <advance width="979.8"/>
  <unicode hex="0065"/>
  <anchor x="609.1999999999999" y="1035.0" name="center"/>
  <outline>
    <contour>
      <point x="176.20000000000002" y="416.8" type="curve"/>
      <point x="186.20000000000002" y="340.6" type="line"/>
      <point x="186.20000000000002" y="340.6"/>
      <point x="649.4" y="504.0"/>
      <point x="873.4" y="583.1999999999999" type="curve" smooth="yes"/>
      <point x="921.0" y="597.2"/>
      <point x="939.4000000000001" y="622.0"/>
      <point x="939.4" y="652.8000000000001" type="curve" smooth="yes"/>
      <point x="939.4" y="679.6"/>
      <point x="924.5999999999999" y="691.5999999999999"/>
      <point x="905.0" y="692.0" type="curve" smooth="yes"/>
      <point x="891.0" y="692.8"/>
      <point x="881.0" y="707.6"/>
      <point x="877.8000000000001" y="725.6" type="curve" smooth="yes"/>
      <point x="863.4" y="848.2"/>
      <point x="790.8" y="937.0"/>
      <point x="639.8" y="937.0" type="curve" smooth="yes"/>
      <point x="338.59999999999997" y="937.0"/>
      <point x="81.0" y="639.2"/>
      <point x="69.8" y="312.40000000000003" type="curve" smooth="yes"/>
      <point x="61.39999999999999" y="111.80000000000001"/>
      <point x="169.0" y="-21.0"/>
      <point x="392.59999999999997" y="-21.0" type="curve" smooth="yes"/>
      <point x="692.2" y="-21.0"/>
      <point x="874.6" y="150.0"/>
      <point x="874.6" y="293.6" type="curve" smooth="yes"/>
      <point x="874.5999999999999" y="322.4"/>
      <point x="863.0" y="345.2"/>
      <point x="836.6" y="345.2" type="curve" smooth="yes"/>
      <point x="811.4000000000001" y="345.2"/>
      <point x="796.6" y="333.59999999999997"/>
      <point x="773.0" y="300.79999999999995" type="curve" smooth="yes"/>
      <point x="714.6" y="181.2"/>
      <point x="603.4" y="115.00000000000001"/>
      <point x="483.8" y="115.00000000000001" type="curve" smooth="yes"/>
      <point x="356.6" y="115.00000000000001"/>
      <point x="276.20000000000005" y="201.00000000000003"/>
      <point x="282.2" y="384.0" type="curve" smooth="yes"/>
      <point x="288.2" y="611.2"/>
      <point x="454.59999999999997" y="825.8"/>
      <point x="579.0" y="825.8" type="curve" smooth="yes"/>
      <point x="648.6" y="825.8"/>
      <point x="691.0" y="776.6"/>
      <point x="691.0" y="698.8000000000001" type="curve" smooth="yes"/>
      <point x="691.0" y="652.0"/>
      <point x="686.2" y="616.8000000000001"/>
      <point x="673.8" y="584.4" type="curve"/>
      <point x="694.1999999999999" y="612.6" type="line"/>
      <point x="513.0" y="540.6"/>
      <point x="176.20000000000002" y="416.8"/>
    </contour>
  </outline>
</glyph>
<glyph name="f" format="2">
  <advance width="658.2"/>
  <unicode hex="0066"/>
  <outline>
    <contour>
      <point x="379.4" y="744.4000000000001" type="line"/>
      <point x="623.4" y="744.4000000000001" type="line" smooth="yes"/>
      <point x="687.8" y="744.4000000000001"/>
      <point x="744.6" y="787.1999999999999"/>
      <point x="744.6" y="840.4000000000001" type="curve" smooth="yes"/>
      <point x="744.6" y="877.1999999999999"/>
      <point x="718.6" y="889.1999999999999"/>
      <point x="673.8000000000001" y="889.1999999999999" type="curve" smooth="yes"/>
      <point x="424.6" y="889.5999999999999" type="line"/>
    </contour>
    <contour>
      <point x="106.6" y="834.4000000000001" type="curve" smooth="yes"/>
      <point x="106.6" y="808.4"/>
      <point x="127.79999999999998" y="787.6"/>
      <point x="165.39999999999998" y="768.4" type="curve" smooth="yes"/>
      <point x="245.8" y="754.0"/>
      <point x="269.2" y="715.1999999999999"/>
      <point x="246.6" y="638.8000000000001" type="curve" smooth="yes"/>
      <point x="9.2" y="-175.79999999999998" type="line" smooth="yes"/>
      <point x="-29.799999999999997" y="-306.2"/>
      <point x="-5.399999999999999" y="-372.4"/>
      <point x="80.2" y="-372.4" type="curve" smooth="yes"/>
      <point x="182.20000000000002" y="-372.4"/>
      <point x="285.40000000000003" y="-316.8"/>
      <point x="285.40000000000003" y="-244.8" type="curve" smooth="yes"/>
      <point x="285.40000000000003" y="-192.79999999999998"/>
      <point x="234.2" y="-178.0"/>
      <point x="234.2" y="-126.4" type="curve" smooth="yes"/>
      <point x="234.2" y="-99.6"/>
      <point x="237.0" y="-72.0"/>
      <point x="246.20000000000002" y="-38.79999999999999" type="curve" smooth="yes"/>
      <point x="497.20000000000005" y="869.6" type="line" smooth="yes"/>
      <point x="525.2" y="970.8000000000001"/>
      <point x="459.4" y="1085.2"/>
      <point x="478.40000000000003" y="1171.8" type="curve" smooth="yes"/>
      <point x="493.4" y="1244.0"/>
      <point x="532.6" y="1284.6000000000001"/>
      <point x="597.8000000000001" y="1284.6000000000001" type="curve" smooth="yes"/>
      <point x="676.1999999999999" y="1284.6000000000001"/>
      <point x="721.8" y="1192.6000000000001"/>
      <point x="803.6" y="1192.6000000000001" type="curve" smooth="yes"/>
      <point x="866.0" y="1192.6000000000001"/>
      <point x="905.6" y="1235.0"/>
      <point x="905.6" y="1301.6" type="curve" smooth="yes"/>
      <point x="905.6" y="1371.0"/>
      <point x="848.8" y="1431.3999999999999"/>
      <point x="721.8000000000001" y="1431.3999999999999" type="curve" smooth="yes"/>
      <point x="504.8" y="1431.3999999999999"/>
      <point x="385.4" y="1297.2"/>
      <point x="333.59999999999997" y="1057.8" type="curve" smooth="yes"/>
      <point x="293.4" y="889.6" type="line"/>
      <point x="178.2" y="889.6" type="line" smooth="yes"/>
      <point x="135.0" y="889.6"/>
      <point x="106.6" y="866.8"/>
    </contour>
  </outline>
</glyph>
<glyph name="g" format="2">
  <advance width="1054.2"/>
  <unicode hex="0067"/>
  <anchor x="726.6" y="1010.0" name="center"/>
  <outline>
    <contour>
      <point x="816.0" y="5.6" type="curve" smooth="yes"/>
      <point x="974.5999999999999" y="713.4000000000001" type="line" smooth="yes"/>
      <point x="989.0" y="773.8000000000001"/>
      <point x="1019.1999999999999" y="788.0"/>
      <point x="1024.8" y="835.8000000000001" type="curve" smooth="yes"/>
      <point x="1033.6" y="897.2"/>
      <point x="957.1999999999999" y="940.8"/>
      <point x="761.8" y="940.8" type="curve"/>
      <point x="372.6" y="940.8"/>
      <point x="73.4" y="603.1999999999999"/>
      <point x="57.8" y="257.59999999999997" type="curve" smooth="yes"/>
      <point x="44.599999999999994" y="72.80000000000001"/>
      <point x="123.2" y="-19.6"/>
      <point x="253.2" y="-19.6" type="curve" smooth="yes"/>
      <point x="458.2" y="-19.6"/>
      <point x="640.4" y="133.4"/>
      <point x="747.0" y="380.0" type="curve"/>
      <point x="711.1999999999999" y="416.0" type="line"/>
      <point x="598.8000000000001" y="-74.4" type="line" smooth="yes"/>
      <point x="553.0" y="-280.2"/>
      <point x="424.0" y="-369.0"/>
      <point x="284.20000000000005" y="-369.0" type="curve" smooth="yes"/>
      <point x="187.79999999999998" y="-369.0"/>
      <point x="115.2" y="-264.4"/>
      <point x="24.6" y="-264.4" type="curve" smooth="yes"/>
      <point x="-39.400000000000006" y="-264.4"/>
      <point x="-82.2" y="-305.59999999999997"/>
      <point x="-82.2" y="-364.0" type="curve" smooth="yes"/>
      <point x="-82.2" y="-447.6"/>
      <point x="2.4000000000000057" y="-504.8"/>
      <point x="152.6" y="-504.8" type="curve" smooth="yes"/>
      <point x="499.6" y="-504.8"/>
      <point x="740.0" y="-329.4"/>
    </contour>
    <contour>
      <point x="272.0" y="291.59999999999997" type="curve" smooth="yes"/>
      <point x="286.0" y="556.0"/>
      <point x="511.20000000000005" y="820.5999999999999"/>
      <point x="696.4000000000001" y="820.5999999999999" type="curve" smooth="yes"/>
      <point x="746.2" y="820.5999999999999"/>
      <point x="775.8" y="787.4000000000001"/>
      <point x="772.2" y="723.4000000000001" type="curve" smooth="yes"/>
      <point x="759.8" y="455.0"/>
      <point x="546.0" y="131.2"/>
      <point x="374.40000000000003" y="131.2" type="curve" smooth="yes"/>
      <point x="307.6" y="131.2"/>
      <point x="264.4" y="176.8"/>
    </contour>
  </outline>
</glyph>
<glyph name="h" format="2">
  <advance width="1162.2"/>
  <unicode hex="0068"/>
  <anchor x="468.4" y="980.0" name="center"/>
  <outline>
    <contour>
      <point x="391.0" y="506.40000000000003" type="line"/>
      <point x="375.4" y="510.0" type="line"/>
      <point x="516.4000000000001" y="789.8000000000001"/>
      <point x="725.4" y="936.4"/>
      <point x="915.8000000000001" y="936.4" type="curve" smooth="yes"/>
      <point x="1074.2" y="936.4"/>
      <point x="1082.0" y="810.8000000000001"/>
      <point x="1007.4" y="614.0" type="curve" smooth="yes"/>
      <point x="885.8000000000001" y="282.40000000000003" type="line" smooth="yes"/>
      <point x="853.8" y="196.4"/>
      <point x="859.0" y="158.8"/>
      <point x="901.8000000000001" y="158.8" type="curve" smooth="yes"/>
      <point x="923.2" y="158.8"/>
      <point x="942.1999999999999" y="164.8"/>
      <point x="971.0" y="185.6" type="curve" smooth="yes"/>
      <point x="992.4" y="200.8"/>
      <point x="1007.4" y="209.6"/>
      <point x="1025.8" y="197.20000000000002" type="curve" smooth="yes"/>
      <point x="1043.8" y="184.4"/>
      <point x="1044.4" y="153.4"/>
      <point x="1025.8" y="117.20000000000002" type="curve" smooth="yes"/>
      <point x="985.0" y="39.400000000000006"/>
      <point x="888.2" y="-21.0"/>
      <point x="780.2" y="-21.0" type="curve" smooth="yes"/>
      <point x="645.8" y="-21.0"/>
      <point x="615.6" y="67.6"/>
      <point x="675.0" y="233.8" type="curve" smooth="yes"/>
      <point x="798.4" y="582.8" type="line" smooth="yes"/>
      <point x="845.4" y="716.0"/>
      <point x="828.5999999999999" y="764.4"/>
      <point x="753.4" y="764.4" type="curve" smooth="yes"/>
      <point x="648.0" y="764.4"/>
      <point x="469.40000000000003" y="644.6"/>
      <point x="368.20000000000005" y="367.59999999999997" type="curve" smooth="yes"/>
      <point x="330.20000000000005" y="263.8"/>
      <point x="319.0" y="237.0"/>
      <point x="319.0" y="194.2" type="curve" smooth="yes"/>
      <point x="319.0" y="157.60000000000002"/>
      <point x="337.00000000000006" y="125.8"/>
      <point x="337.00000000000006" y="83.4" type="curve" smooth="yes"/>
      <point x="337.00000000000006" y="19.400000000000002"/>
      <point x="264.6" y="-21.0"/>
      <point x="165.60000000000002" y="-21.0" type="curve" smooth="yes"/>
      <point x="75.2" y="-21.0"/>
      <point x="56.199999999999996" y="24.0"/>
      <point x="109.4" y="203.4" type="curve" smooth="yes"/>
      <point x="379.6" y="1122.8" type="line" smooth="yes"/>
      <point x="409.6" y="1225.6"/>
      <point x="411.6" y="1266.3999999999999"/>
      <point x="360.40000000000003" y="1266.3999999999999" type="curve" smooth="yes"/>
      <point x="339.2" y="1266.3999999999999"/>
      <point x="319.4" y="1256.0"/>
      <point x="289.0" y="1236.2" type="curve" smooth="yes"/>
      <point x="265.6" y="1222.4"/>
      <point x="244.0" y="1212.2"/>
      <point x="226.8" y="1222.2" type="curve" smooth="yes"/>
      <point x="205.8" y="1235.0"/>
      <point x="204.0" y="1267.8"/>
      <point x="226.6" y="1302.6" type="curve" smooth="yes"/>
      <point x="273.2" y="1374.6000000000001"/>
      <point x="388.0" y="1436.3999999999999"/>
      <point x="494.8" y="1436.3999999999999" type="curve" smooth="yes"/>
      <point x="604.2" y="1436.3999999999999"/>
      <point x="655.8000000000001" y="1370.6"/>
      <point x="608.6" y="1219.0" type="curve" smooth="yes"/>
    </contour>
  </outline>
</glyph>
<glyph name="i" format="2">
  <advance width="638.8"/>
  <unicode hex="0069"/>
  <outline>
    <contour>
      <point x="358.0" y="290.8" type="curve" smooth="yes"/>
      <point x="504.4" y="665.6" type="line" smooth="yes"/>
      <point x="580.4" y="851.2"/>
      <point x="523.2" y="936.4"/>
      <point x="404.0" y="936.4" type="curve" smooth="yes"/>
      <point x="307.8" y="936.4"/>
      <point x="202.2" y="875.0"/>
      <point x="153.4" y="802.6" type="curve" smooth="yes"/>
      <point x="130.4" y="768.4"/>
      <point x="133.2" y="735.0"/>
      <point x="153.6" y="722.1999999999999" type="curve" smooth="yes"/>
      <point x="170.8" y="712.2"/>
      <point x="190.6" y="720.5999999999999"/>
      <point x="215.79999999999998" y="736.2" type="curve" smooth="yes"/>
      <point x="244.4" y="755.4"/>
      <point x="267.8" y="767.6"/>
      <point x="288.40000000000003" y="767.6" type="curve" smooth="yes"/>
      <point x="335.0" y="767.6"/>
      <point x="341.79999999999995" y="732.8"/>
      <point x="297.4" y="623.4" type="curve" smooth="yes"/>
      <point x="145.4" y="238.0" type="line" smooth="yes"/>
      <point x="75.2" y="67.2"/>
      <point x="125.2" y="-20.4"/>
      <point x="252.4" y="-20.4" type="curve" smooth="yes"/>
      <point x="357.4" y="-20.4"/>
      <point x="454.80000000000007" y="41.2"/>
      <point x="497.40000000000003" y="115.4" type="curve" smooth="yes"/>
      <point x="518.4000000000001" y="152.8"/>
      <point x="516.0" y="183.8"/>
      <point x="498.0" y="196.6" type="curve" smooth="yes"/>
      <point x="479.6" y="209.0"/>
      <point x="462.2" y="199.00000000000003"/>
      <point x="440.8" y="185.0" type="curve" smooth="yes"/>
      <point x="409.2" y="163.79999999999998"/>
      <point x="391.80000000000007" y="155.20000000000002"/>
      <point x="371.6" y="155.20000000000002" type="curve" smooth="yes"/>
      <point x="326.4" y="155.20000000000002"/>
      <point x="318.2" y="190.0"/>
    </contour>
    <contour>
      <point x="482.59999999999997" y="1124.6" type="curve" smooth="yes"/>
      <point x="586.1999999999999" y="1124.6"/>
      <point x="663.5999999999999" y="1189.2"/>
      <point x="671.4" y="1266.8000000000002" type="curve" smooth="yes"/>
      <point x="679.8" y="1340.8"/>
      <point x="637.4000000000001" y="1396.0"/>
      <point x="548.6" y="1396.0" type="curve" smooth="yes"/>
      <point x="439.8" y="1396.0"/>
      <point x="361.6" y="1327.2"/>
      <point x="353.20000000000005" y="1247.6000000000001" type="curve" smooth="yes"/>
      <point x="345.4" y="1179.6000000000001"/>
      <point x="394.6" y="1124.6"/>
    </contour>
  </outline>
</glyph>
<glyph name="j" format="2">
  <advance width="616.6"/>
  <unicode hex="006A"/>
  <outline>
    <contour>
      <point x="504.40000000000003" y="625.0" type="line" smooth="yes"/>
      <point x="566.0" y="828.0"/>
      <point x="548.4" y="937.0"/>
      <point x="401.20000000000005" y="937.0" type="curve" smooth="yes"/>
      <point x="286.4" y="937.0"/>
      <point x="173.6" y="856.4"/>
      <point x="144.0" y="791.2" type="curve" smooth="yes"/>
      <point x="127.6" y="759.4"/>
      <point x="134.0" y="730.8"/>
      <point x="155.0" y="721.6" type="curve" smooth="yes"/>
      <point x="170.4" y="716.4000000000001"/>
      <point x="185.39999999999998" y="717.6"/>
      <point x="207.0" y="732.0" type="curve" smooth="yes"/>
      <point x="233.2" y="754.5999999999999"/>
      <point x="260.2" y="767.6"/>
      <point x="284.40000000000003" y="767.6" type="curve" smooth="yes"/>
      <point x="334.8" y="767.6"/>
      <point x="328.0" y="691.8"/>
      <point x="294.8" y="585.6" type="curve" smooth="yes"/>
      <point x="143.4" y="96.60000000000001" type="line" smooth="yes"/>
      <point x="107.0" y="-24.4"/>
      <point x="161.4" y="-112.0"/>
      <point x="134.8" y="-200.8" type="curve" smooth="yes"/>
      <point x="104.4" y="-298.6"/>
      <point x="56.20000000000002" y="-330.8"/>
      <point x="12.399999999999999" y="-330.8" type="curve" smooth="yes"/>
      <point x="-49.4" y="-330.8"/>
      <point x="-81.0" y="-281.0"/>
      <point x="-147.0" y="-281.0" type="curve" smooth="yes"/>
      <point x="-212.0" y="-281.0"/>
      <point x="-251.4" y="-324.0"/>
      <point x="-251.4" y="-382.6" type="curve" smooth="yes"/>
      <point x="-251.4" y="-448.6"/>
      <point x="-197.20000000000002" y="-495.8"/>
      <point x="-95.39999999999998" y="-495.8" type="curve" smooth="yes"/>
      <point x="85.2" y="-495.8"/>
      <point x="198.0" y="-386.20000000000005"/>
      <point x="259.40000000000003" y="-183.4" type="curve" smooth="yes"/>
    </contour>
    <contour>
      <point x="473.8" y="1124.6" type="curve" smooth="yes"/>
      <point x="577.4000000000001" y="1124.6"/>
      <point x="654.8000000000001" y="1189.2"/>
      <point x="662.6" y="1266.8" type="curve" smooth="yes"/>
      <point x="671.0" y="1340.8"/>
      <point x="628.6" y="1396.0"/>
      <point x="539.8" y="1396.0" type="curve" smooth="yes"/>
      <point x="431.0" y="1396.0"/>
      <point x="352.79999999999995" y="1327.1999999999998"/>
      <point x="344.4" y="1247.6" type="curve" smooth="yes"/>
      <point x="336.6" y="1179.6"/>
      <point x="385.8" y="1124.6"/>
    </contour>
  </outline>
</glyph>
<glyph name="k" format="2">
  <advance width="1136.2"/>
  <unicode hex="006B"/>
  <anchor x="435.79999999999995" y="980.0" name="center"/>
  <outline>
    <contour>
      <point x="384.6" y="1155.4" type="line" smooth="yes"/>
      <point x="411.20000000000005" y="1248.3999999999999"/>
      <point x="398.8" y="1271.6"/>
      <point x="363.6" y="1271.6" type="curve" smooth="yes"/>
      <point x="344.0" y="1271.6"/>
      <point x="327.4" y="1263.1999999999998"/>
      <point x="300.2" y="1244.2" type="curve" smooth="yes"/>
      <point x="277.2" y="1228.6000000000001"/>
      <point x="268.2" y="1222.6000000000001"/>
      <point x="250.39999999999998" y="1226.2" type="curve" smooth="yes"/>
      <point x="229.4" y="1229.8"/>
      <point x="215.6" y="1252.6"/>
      <point x="222.2" y="1287.8" type="curve" smooth="yes"/>
      <point x="234.8" y="1352.0"/>
      <point x="339.6" y="1436.3999999999999"/>
      <point x="495.79999999999995" y="1436.3999999999999" type="curve" smooth="yes"/>
      <point x="631.0" y="1436.3999999999999"/>
      <point x="641.4" y="1335.0"/>
      <point x="592.4" y="1160.6" type="curve" smooth="yes"/>
      <point x="427.0" y="569.2" type="line"/>
      <point x="381.2" y="563.0" type="line"/>
      <point x="471.2" y="771.2"/>
      <point x="685.0" y="947.0"/>
      <point x="895.4000000000001" y="936.8" type="curve" smooth="yes"/>
      <point x="1021.4" y="932.0"/>
      <point x="1100.2" y="860.8"/>
      <point x="1084.3999999999999" y="731.5999999999999" type="curve" smooth="yes"/>
      <point x="1062.6" y="556.4"/>
      <point x="823.2" y="402.4"/>
      <point x="302.4" y="316.0" type="curve"/>
      <point x="304.40000000000003" y="395.40000000000003" type="line"/>
      <point x="707.5999999999999" y="470.8"/>
      <point x="860.8" y="576.5999999999999"/>
      <point x="878.8000000000001" y="700.6" type="curve" smooth="yes"/>
      <point x="888.2" y="765.8"/>
      <point x="855.8000000000001" y="807.8"/>
      <point x="786.6" y="813.8" type="curve" smooth="yes"/>
      <point x="644.1999999999999" y="825.2"/>
      <point x="424.40000000000003" y="627.1999999999999"/>
      <point x="366.4" y="409.40000000000003" type="curve" smooth="yes"/>
      <point x="316.20000000000005" y="222.2"/>
      <point x="309.20000000000005" y="192.0"/>
      <point x="309.20000000000005" y="161.0" type="curve" smooth="yes"/>
      <point x="309.20000000000005" y="114.4"/>
      <point x="318.40000000000003" y="94.4"/>
      <point x="318.40000000000003" y="65.60000000000001" type="curve" smooth="yes"/>
      <point x="318.40000000000003" y="16.0"/>
      <point x="249.6" y="-18.6"/>
      <point x="172.8" y="-18.6" type="curve" smooth="yes"/>
      <point x="94.60000000000001" y="-18.6"/>
      <point x="64.0" y="41.6"/>
      <point x="96.0" y="150.8" type="curve" smooth="yes"/>
    </contour>
    <contour>
      <point x="538.2" y="396.8" type="line"/>
      <point x="713.0" y="440.59999999999997" type="line"/>
      <point x="781.0" y="242.4" type="line" smooth="yes"/>
      <point x="800.6" y="184.8"/>
      <point x="825.4" y="164.4"/>
      <point x="856.6" y="159.0" type="curve" smooth="yes"/>
      <point x="884.4" y="154.4"/>
      <point x="908.8000000000001" y="167.20000000000002"/>
      <point x="926.1999999999999" y="192.20000000000002" type="curve" smooth="yes"/>
      <point x="939.5999999999999" y="205.8"/>
      <point x="958.8" y="212.39999999999998"/>
      <point x="975.1999999999999" y="207.60000000000002" type="curve" smooth="yes"/>
      <point x="998.1999999999999" y="199.8"/>
      <point x="1006.8" y="182.6"/>
      <point x="1000.6" y="140.6" type="curve" smooth="yes"/>
      <point x="987.8000000000001" y="52.6"/>
      <point x="887.1999999999999" y="-31.2"/>
      <point x="766.4" y="-19.0" type="curve" smooth="yes"/>
      <point x="693.8000000000001" y="-11.0"/>
      <point x="653.0" y="40.2"/>
      <point x="621.5999999999999" y="139.0" type="curve" smooth="yes"/>
    </contour>
  </outline>
</glyph>
<glyph name="l" format="2">
  <advance width="630.4"/>
  <unicode hex="006C"/>
  <anchor x="199.6" y="1593.0" name="center"/>
  <outline>
    <contour>
      <point x="620.4" y="1190.2" type="line" smooth="yes"/>
      <point x="677.4" y="1365.0"/>
      <point x="631.2" y="1436.4"/>
      <point x="512.4" y="1436.4" type="curve"/>
      <point x="404.2" y="1436.4"/>
      <point x="289.20000000000005" y="1374.0"/>
      <point x="242.60000000000002" y="1302.6" type="curve" smooth="yes"/>
      <point x="218.2" y="1265.4"/>
      <point x="224.2" y="1233.8"/>
      <point x="242.79999999999998" y="1222.2" type="curve" smooth="yes"/>
      <point x="260.0" y="1212.1999999999998"/>
      <point x="281.6" y="1222.3999999999999"/>
      <point x="305.0" y="1236.2" type="curve" smooth="yes"/>
      <point x="335.4" y="1256.0"/>
      <point x="356.4" y="1267.0"/>
      <point x="378.2" y="1267.0" type="curve" smooth="yes"/>
      <point x="425.2" y="1267.0"/>
      <point x="432.2" y="1234.1999999999998"/>
      <point x="387.8" y="1097.6" type="curve" smooth="yes"/>
      <point x="116.0" y="270.4" type="line" smooth="yes"/>
      <point x="51.0" y="73.0"/>
      <point x="79.0" y="-21.0"/>
      <point x="225.8" y="-21.0" type="curve"/>
      <point x="364.2" y="-21.0"/>
      <point x="502.6" y="70.2"/>
      <point x="530.6" y="164.0" type="curve" smooth="yes"/>
      <point x="545.0" y="199.0"/>
      <point x="539.0" y="225.20000000000002"/>
      <point x="520.4" y="234.4" type="curve" smooth="yes"/>
      <point x="505.6" y="242.0"/>
      <point x="493.59999999999997" y="239.20000000000002"/>
      <point x="478.20000000000005" y="226.4" type="curve" smooth="yes"/>
      <point x="446.40000000000003" y="191.8"/>
      <point x="394.4" y="158.8"/>
      <point x="354.40000000000003" y="158.8" type="curve" smooth="yes"/>
      <point x="299.00000000000006" y="158.8"/>
      <point x="294.00000000000006" y="189.2"/>
      <point x="334.79999999999995" y="315.40000000000003" type="curve" smooth="yes"/>
    </contour>
  </outline>
</glyph>
